<?xml version="1.0" encoding="utf-8"?><svg width="125" height="80" viewBox="0 0 125 80" xmlns="http://www.w3.org/2000/svg" xmlns:xlink="http://www.w3.org/1999/xlink"><svg width="60" height="80" fill="none" viewBox="0 0 60 80" id="ain-bonus" xmlns="http://www.w3.org/2000/svg"><path fill-rule="evenodd" clip-rule="evenodd" d="M26.29 3.149l-.16.733-.446-.09-.289-.06-.446-.09.16-.732.088-.403-.56-.113-.734-.15.088-.405.072-.327.088-.405.736.148.558.114.14-.636.16-.733.446.09.288.059.447.09-.16.733-.139.636.57.116.736.149-.089.405-.071.327-.089.406-.735-.15-.57-.115-.088.403zM14.37 9.176l-.16.733-.447-.09-.289-.059-.446-.09.16-.733.237-1.087-1.162-.235-.735-.149.089-.405.071-.328.089-.405.735.149 1.162.235.238-1.09.16-.733.446.09.289.059.446.09-.16.733-.238 1.09 1.15.234.735.148-.089.406-.071.327-.089.406-.735-.15-1.15-.232-.236 1.086zM2.886 28.957l-.16.733-.447-.09-.288-.06-.447-.09.16-.732.213-.975-1.153-.233-.735-.15.089-.405.071-.327.089-.405.735.148 1.152.234.263-1.202.16-.733.447.09.288.059.447.09-.16.733-.263 1.202 1.159.235.735.149-.089.405-.071.328-.089.405-.735-.149-1.158-.234-.213.974zm-.919 10.984l-.16.733-.446-.09-.289-.06-.446-.09.16-.732.038-.173-.089-.018L0 39.362l.089-.405.071-.328.089-.405.735.149.088.018.015-.07.16-.732.447.09.288.059.447.09-.16.733-.015.069.214.043.735.15-.089.405-.071.327-.089.406-.735-.15-.214-.043-.037.173zm57.406 12.108h-9.057v7.784h6.394v10.23h-1.086v9.063H14.809V68.897h1.086v-7.784H9.5v-10.23h9.057V41.82h21.286c-9.51-.474-17.074-8.308-17.074-17.902 0-9.9 8.053-17.925 17.987-17.925 9.934 0 17.987 8.025 17.987 17.925 0 9.594-7.565 17.428-17.075 17.902h17.704v10.229zm-27.895-1.215h2.295v-7.567h-2.295v7.567zm-3.14 0v-7.567h-4.47v7.567h4.47zm-3.748 8.95h-2.168v-7.566h2.168v7.567zm-9.779 0h4.471v-7.566h-4.47v7.567zm14.005 9.064h2.294v-7.567h-2.294v7.567zm-3.14 0v-7.567h-4.462v7.567h4.463zm4.23 8.95v-7.567h-2.294v7.567h2.294zm-5.434-6.982v-.585H20v7.567h4.472v-6.982zm29.197 6.288H30.656v-6.288h23.013v6.288zm-28.447 0h1.64v-6.288h-1.64v6.288zm-5.972 0h-2.605v-6.288h2.605v6.288zm12.61-8.95h23.014v-6.288H31.86v6.288zm-3.794 0h-1.64v-6.288h1.64v6.288zm-10.208 0h2.606v-6.288h-2.606v6.288zm30.495-9.072H25.34v-6.289h23.013v6.289zm-28.32 0h1.639v-6.289h-1.64v6.289zm-5.972 0h-2.605v-6.289h2.605v6.289zm20.462-8.95h23.013v-6.289H34.523v6.288zm-3.795 0h-1.64v-6.289h1.64v6.288zm-10.216 0h2.606v-6.289h-2.606v6.288zM7.302 20.035l.735.148.097.02-.015.07-.16.732.447.09.288.06.447.09.16-.733.015-.07.205.042.735.149.089-.405.071-.328.089-.405-.735-.15-.205-.04.037-.173.16-.733-.446-.09-.289-.059-.446-.09-.16.732-.038.173-.098-.02-.735-.149-.088.406-.072.327-.088.405zm49.442 3.882c0 8.788-7.151 15.924-15.987 15.924S24.77 32.706 24.77 23.918c0-8.789 7.15-15.925 15.987-15.925 8.836 0 15.987 7.136 15.987 15.925zM40.569 37.545c-7.43 0-13.45-6.002-13.45-13.4 0-7.4 6.02-13.402 13.45-13.402 7.431 0 13.45 6.002 13.45 13.401S48 37.545 40.57 37.545zm0 .75c-7.842 0-14.2-6.336-14.2-14.15 0-7.816 6.358-14.152 14.2-14.152 7.843 0 14.2 6.336 14.2 14.151 0 7.816-6.357 14.151-14.2 14.151zm-.555-9.302h2.112V19H40.39l-3.22 2.564 1.025 1.271 1.149-.923a3.6 3.6 0 00.212-.184l.212-.199.184-.184a2.08 2.08 0 00.116-.123c-.004.15-.011.317-.02.499-.005.182-.012.364-.02.547l-.014.52v6.206z" fill="#727CF5"/><path fill-rule="evenodd" clip-rule="evenodd" d="M26.29 3.149l-.16.733-.446-.09-.289-.06-.446-.09.16-.732.088-.403-.56-.113-.734-.15.088-.405.072-.327.088-.405.736.148.558.114.14-.636.16-.733.446.09.288.059.447.09-.16.733-.139.636.57.116.736.149-.089.405-.071.327-.089.406-.735-.15-.57-.115-.088.403zM14.37 9.176l-.16.733-.447-.09-.289-.059-.446-.09.16-.733.237-1.087-1.162-.235-.735-.149.089-.405.071-.328.089-.405.735.149 1.162.235.238-1.09.16-.733.446.09.289.059.446.09-.16.733-.238 1.09 1.15.234.735.148-.089.406-.071.327-.089.406-.735-.15-1.15-.232-.236 1.086zM2.886 28.957l-.16.733-.447-.09-.288-.06-.447-.09.16-.732.213-.975-1.153-.233-.735-.15.089-.405.071-.327.089-.405.735.148 1.152.234.263-1.202.16-.733.447.09.288.059.447.09-.16.733-.263 1.202 1.159.235.735.149-.089.405-.071.328-.089.405-.735-.149-1.158-.234-.213.974zm-.919 10.984l-.16.733-.446-.09-.289-.06-.446-.09.16-.732.038-.173-.089-.018L0 39.362l.089-.405.071-.328.089-.405.735.149.088.018.015-.07.16-.732.447.09.288.059.447.09-.16.733-.015.069.214.043.735.15-.089.405-.071.327-.089.406-.735-.15-.214-.043-.037.173zm57.406 12.108h-9.057v7.784h6.394v10.23h-1.086v9.063H14.809V68.897h1.086v-7.784H9.5v-10.23h9.057V41.82h21.286c-9.51-.474-17.074-8.308-17.074-17.902 0-9.9 8.053-17.925 17.987-17.925 9.934 0 17.987 8.025 17.987 17.925 0 9.594-7.565 17.428-17.075 17.902h17.704v10.229zm-27.895-1.215h2.295v-7.567h-2.295v7.567zm-3.14 0v-7.567h-4.47v7.567h4.47zm-3.748 8.95h-2.168v-7.566h2.168v7.567zm-9.779 0h4.471v-7.566h-4.47v7.567zm14.005 9.064h2.294v-7.567h-2.294v7.567zm-3.14 0v-7.567h-4.462v7.567h4.463zm4.23 8.95v-7.567h-2.294v7.567h2.294zm-5.434-6.982v-.585H20v7.567h4.472v-6.982zm29.197 6.288H30.656v-6.288h23.013v6.288zm-28.447 0h1.64v-6.288h-1.64v6.288zm-5.972 0h-2.605v-6.288h2.605v6.288zm12.61-8.95h23.014v-6.288H31.86v6.288zm-3.794 0h-1.64v-6.288h1.64v6.288zm-10.208 0h2.606v-6.288h-2.606v6.288zm30.495-9.072H25.34v-6.289h23.013v6.289zm-28.32 0h1.639v-6.289h-1.64v6.289zm-5.972 0h-2.605v-6.289h2.605v6.289zm20.462-8.95h23.013v-6.289H34.523v6.288zm-3.795 0h-1.64v-6.289h1.64v6.288zm-10.216 0h2.606v-6.289h-2.606v6.288zM7.302 20.035l.735.148.097.02-.015.07-.16.732.447.09.288.06.447.09.16-.733.015-.07.205.042.735.149.089-.405.071-.328.089-.405-.735-.15-.205-.04.037-.173.16-.733-.446-.09-.289-.059-.446-.09-.16.732-.038.173-.098-.02-.735-.149-.088.406-.072.327-.088.405zm49.442 3.882c0 8.788-7.151 15.924-15.987 15.924S24.77 32.706 24.77 23.918c0-8.789 7.15-15.925 15.987-15.925 8.836 0 15.987 7.136 15.987 15.925zM40.569 37.545c-7.43 0-13.45-6.002-13.45-13.4 0-7.4 6.02-13.402 13.45-13.402 7.431 0 13.45 6.002 13.45 13.401S48 37.545 40.57 37.545zm0 .75c-7.842 0-14.2-6.336-14.2-14.15 0-7.816 6.358-14.152 14.2-14.152 7.843 0 14.2 6.336 14.2 14.151 0 7.816-6.357 14.151-14.2 14.151zm-.555-9.302h2.112V19H40.39l-3.22 2.564 1.025 1.271 1.149-.923a3.6 3.6 0 00.212-.184l.212-.199.184-.184a2.08 2.08 0 00.116-.123c-.004.15-.011.317-.02.499-.005.182-.012.364-.02.547l-.014.52v6.206z" fill="url(#apaint0_linear)"/><defs><linearGradient id="apaint0_linear" x1="-9" y1="12.5" x2="62.271" y2="81.736" gradientUnits="userSpaceOnUse"><stop offset=".111" stop-color="#BB76DB"/><stop offset=".899" stop-color="#727CF5" stop-opacity=".6"/></linearGradient></defs></svg><svg width="65" height="77" fill="none" viewBox="0 0 65 77" id="ain-security" x="60" xmlns="http://www.w3.org/2000/svg"><path fill-rule="evenodd" clip-rule="evenodd" d="M32.27 0l1.544 2.1c3.635 4.943 8.992 7.864 14.36 9.48 5.374 1.619 10.586 1.877 13.666 1.63l2.226-.178L64 15.264C62.712 58.07 43.26 73.96 32.643 76.352l-.507.114-.499-.147C18.375 72.409 10.423 61.09 5.84 49.029 1.248 36.94-.126 23.706.01 15.172l.031-1.968H2.01c15.901 0 25.822-7.655 28.632-11.168L32.27 0zm-.067 74.4C7.412 67.09 1.743 31.89 2.009 15.205c14.637 0 24.538-6.233 28.819-10.418a16.907 16.907 0 001.375-1.5c.408.554.835 1.084 1.279 1.591 7.422 8.48 19.605 10.48 26.514 10.412.731-.007 1.403-.037 2.004-.085-.02.677-.045 1.348-.075 2.011-1.807 40.732-20.47 55.1-29.722 57.186zm.21-66.035l-.574-.684-.574.684c-2.648 3.152-11.336 9.58-24.438 9.268l-.737-.018-.03.737c-.268 6.702.675 17.253 4.377 27.189 3.703 9.936 10.208 19.36 21.13 23.6l.244.094.249-.077c8.981-2.763 26.122-16.826 25.161-50.797l-.021-.747-.747.019c-2.64.064-7.05-.324-11.614-1.707-4.567-1.383-9.216-3.74-12.426-7.561zM6.81 18.382c-.53 13.243 3.734 41.796 25.03 50.06 8.607-2.65 25.585-16.37 24.631-50.06-5.297.13-17.35-1.506-24.133-8.964-.17-.186-.336-.377-.499-.57-.15.178-.319.367-.505.564-3.252 3.434-11.898 9.271-24.524 8.97zM32.167 52.85c7.824 0 14.167-6.394 14.167-14.282S39.99 24.285 32.167 24.285 18 30.68 18 38.567s6.343 14.282 14.167 14.282zm0-.876c7.344 0 13.297-6.002 13.297-13.406 0-7.404-5.953-13.406-13.298-13.406-7.344 0-13.298 6.002-13.298 13.406 0 7.404 5.954 13.406 13.298 13.406zm-8.713-13.359l6.462 6.459 10.171-10.165-2.225-2.223-7.946 7.835-4.237-4.235-2.225 2.33z" fill="#727CF5"/><path fill-rule="evenodd" clip-rule="evenodd" d="M32.27 0l1.544 2.1c3.635 4.943 8.992 7.864 14.36 9.48 5.374 1.619 10.586 1.877 13.666 1.63l2.226-.178L64 15.264C62.712 58.07 43.26 73.96 32.643 76.352l-.507.114-.499-.147C18.375 72.409 10.423 61.09 5.84 49.029 1.248 36.94-.126 23.706.01 15.172l.031-1.968H2.01c15.901 0 25.822-7.655 28.632-11.168L32.27 0zm-.067 74.4C7.412 67.09 1.743 31.89 2.009 15.205c14.637 0 24.538-6.233 28.819-10.418a16.907 16.907 0 001.375-1.5c.408.554.835 1.084 1.279 1.591 7.422 8.48 19.605 10.48 26.514 10.412.731-.007 1.403-.037 2.004-.085-.02.677-.045 1.348-.075 2.011-1.807 40.732-20.47 55.1-29.722 57.186zm.21-66.035l-.574-.684-.574.684c-2.648 3.152-11.336 9.58-24.438 9.268l-.737-.018-.03.737c-.268 6.702.675 17.253 4.377 27.189 3.703 9.936 10.208 19.36 21.13 23.6l.244.094.249-.077c8.981-2.763 26.122-16.826 25.161-50.797l-.021-.747-.747.019c-2.64.064-7.05-.324-11.614-1.707-4.567-1.383-9.216-3.74-12.426-7.561zM6.81 18.382c-.53 13.243 3.734 41.796 25.03 50.06 8.607-2.65 25.585-16.37 24.631-50.06-5.297.13-17.35-1.506-24.133-8.964-.17-.186-.336-.377-.499-.57-.15.178-.319.367-.505.564-3.252 3.434-11.898 9.271-24.524 8.97zM32.167 52.85c7.824 0 14.167-6.394 14.167-14.282S39.99 24.285 32.167 24.285 18 30.68 18 38.567s6.343 14.282 14.167 14.282zm0-.876c7.344 0 13.297-6.002 13.297-13.406 0-7.404-5.953-13.406-13.298-13.406-7.344 0-13.298 6.002-13.298 13.406 0 7.404 5.954 13.406 13.298 13.406zm-8.713-13.359l6.462 6.459 10.171-10.165-2.225-2.223-7.946 7.835-4.237-4.235-2.225 2.33z" fill="url(#bpaint0_linear)"/><defs><linearGradient id="bpaint0_linear" x1="-13" y1="16.5" x2="52.5" y2="78" gradientUnits="userSpaceOnUse"><stop stop-color="#BB76DB"/><stop offset="1" stop-color="#727CF5" stop-opacity=".6"/></linearGradient></defs></svg></svg>