<svg width="32" height="32" xmlns="http://www.w3.org/2000/svg" xmlns:xlink="http://www.w3.org/1999/xlink"><g transform="translate(1037 1995)"><use xlink:href="#path0_fill" transform="translate(-1037 -1995)" fill="#727cf5"/><mask id="a"><use xlink:href="#path0_fill" fill="#fff" transform="translate(-1037 -1995)"/></mask><g mask="url(#a)"><use xlink:href="#path1_stroke_2x" transform="translate(-1037 -1995)" fill="#727cf5"/></g></g><use xlink:href="#path2_fill" transform="translate(8 6)" fill="#FFF"/><use xlink:href="#path3_fill" transform="translate(9.04 10.7)" fill="url(#paint3_linear)"/><defs><linearGradient id="paint3_linear" x1="0" y1="0" x2="1" y2="0" gradientUnits="userSpaceOnUse" gradientTransform="matrix(.63014 4.272 -4.40207 .61152 4.047 -.315)"><stop offset="0" stop-color="#FFF"/><stop offset="1" stop-color="#BFBFBF"/></linearGradient><path id="path0_fill" d="M32 16c0 8.837-7.163 16-16 16S0 24.837 0 16 7.163 0 16 0s16 7.163 16 16z"/><path id="path1_stroke_2x" d="M30 16c0 7.732-6.268 14-14 14v4c9.941 0 18-8.059 18-18h-4zM16 30C8.268 30 2 23.732 2 16h-4c0 9.941 8.059 18 18 18v-4zM2 16C2 8.268 8.268 2 16 2v-4C6.059-2-2 6.059-2 16h4zM16 2c7.732 0 14 6.268 14 14h4c0-9.941-8.059-18-18-18v4z"/><path id="path2_fill" d="M9.348 18.954c-2.136.227-4.305-.389-5.774-1.846a5.654 5.654 0 0 1-1.735-4.049c0-1.522.6-2.98 1.735-4.049l.067-.064c-.768-.713-1.802-1.75-2.403-2.883C.97 5.609-1.065 1.658.738.298c.834-.616 1.935-.227 4.638.712 1.068.389 1.77.616 2.437.907 2.236.972 6.408 2.818 7.71 6.672.901 2.624.667 6.316-1.936 8.551a7.75 7.75 0 0 1-4.239 1.814zM6.711 9.53a2.832 2.832 0 0 0-1.768.842 3.792 3.792 0 0 0-1.169 2.72c0 1.037.4 1.976 1.169 2.721 1.835 1.782 5.273 1.75 7.376-.032 2.236-1.911 1.869-5.118 1.401-6.543-1.068-3.077-4.572-4.632-6.675-5.57-.6-.26-1.235-.487-2.303-.843-.4-.13-.834-.292-1.235-.421-.767-.292-1.502.389-1.268 1.101.167.518.4 1.069.701 1.652.6 1.101 1.736 2.17 2.403 2.72 1.736-.615 3.772-.258 5.14 1.102a3.943 3.943 0 0 1 0 5.668c-1.335 1.296-3.504 1.328-4.873.065-.367-.356-.467-.94-.133-1.328a.992.992 0 0 1 1.401-.097c.635.55 1.636.615 2.237.032a2.125 2.125 0 0 0 0-3.012c-.635-.615-1.536-.874-2.404-.777z"/><path id="path3_fill" d="M1.669 0A4.98 4.98 0 0 0 0 .972l.2.388c.601 1.134 1.602 2.138 2.403 2.85.501-.453 1.068-.809 1.703-1.036-.668-.55-1.803-1.587-2.37-2.688A1.7 1.7 0 0 1 1.669 0z"/></defs></svg>