<svg width="2572" height="860" viewBox="0 0 2572 860" fill="none" xmlns="http://www.w3.org/2000/svg">
<path d="M348.268 719.355H360.981V779.44H362.136L428.18 719.355H445.711L376.771 781.751L449.554 855.704H431.271L362.136 785.232H360.981V855.704H348.268V719.355Z" fill="#878787"/>
<path d="M534.62 796.97L484.492 719.355H499.809L541.012 784.062L583.189 719.355H597.447L547.319 796.97V855.704H534.62V796.97Z" fill="#878787"/>
<path d="M765.766 834.316C759.979 842.54 752.146 849.11 743.041 853.378C734.251 857.265 724.733 859.235 715.122 859.157C705.334 859.273 695.617 857.47 686.522 853.852C678.134 850.533 670.542 845.479 664.242 839.023C657.959 832.491 653.045 824.769 649.789 816.312C646.254 807.132 644.492 797.366 644.595 787.53C644.482 777.72 646.245 767.979 649.789 758.832C653.06 750.406 657.973 742.715 664.242 736.204C670.554 729.739 678.141 724.656 686.522 721.277C695.602 717.598 705.325 715.766 715.122 715.889C723.993 715.817 732.791 717.482 741.022 720.79C749.382 724.32 756.656 730.004 762.103 737.263L751.702 745.924C747.76 739.757 742.109 734.871 735.438 731.86C729.057 728.96 722.132 727.45 715.122 727.432C706.897 727.309 698.735 728.883 691.144 732.055C684.256 734.974 678.056 739.305 672.945 744.768C667.86 750.288 663.931 756.769 661.388 763.83C656.013 779.154 656.013 795.85 661.388 811.174C663.934 818.233 667.863 824.714 672.945 830.236C678.057 835.695 684.257 840.021 691.144 842.935C698.735 846.107 706.897 847.681 715.122 847.558C722.635 847.502 730.039 845.76 736.789 842.462C740.391 840.669 743.778 838.474 746.884 835.917C750.178 833.187 753.038 829.97 755.364 826.379L765.766 834.316Z" fill="#878787"/>
<path d="M1101.42 719.355H1114.51L1171.89 855.704H1157.65L1142.82 819.5H1070.6L1055.2 855.704H1041.91L1101.42 719.355ZM1107.39 733.28L1075.6 807.999H1138.19L1107.39 733.28Z" fill="#878787"/>
<path d="M1226.4 719.355H1245.47L1295.15 833.745L1344.84 719.355H1362.95V855.704H1350.23V735.536H1349.84L1297.85 855.704H1292.28L1239.52 735.536H1239.13V855.704H1226.42L1226.4 719.355Z" fill="#878787"/>
<path d="M1449.68 719.355H1462.39V844.146H1525.93V855.704H1449.68V719.355Z" fill="#878787"/>
<path d="M1971.04 834.316C1965.26 842.536 1957.43 849.106 1948.33 853.378C1939.54 857.266 1930.02 859.236 1920.4 859.157C1910.62 859.272 1900.9 857.469 1891.81 853.852C1883.43 850.526 1875.84 845.473 1869.53 839.022C1863.26 832.486 1858.35 824.765 1855.09 816.312C1851.56 807.133 1849.79 797.367 1849.89 787.53C1849.78 777.719 1851.55 767.978 1855.09 758.832C1858.37 750.409 1863.27 742.718 1869.53 736.204C1875.85 729.746 1883.44 724.664 1891.81 721.277C1900.89 717.599 1910.61 715.767 1920.4 715.888C1929.27 715.813 1938.07 717.479 1946.3 720.79C1954.66 724.32 1961.94 730.004 1967.4 737.263L1956.99 745.924C1953.05 739.753 1947.39 734.866 1940.72 731.86C1934.34 728.957 1927.41 727.447 1920.4 727.432C1912.18 727.294 1904.03 728.848 1896.44 731.999C1889.55 734.925 1883.35 739.255 1878.24 744.712C1873.16 750.233 1869.23 756.714 1866.69 763.775C1861.32 779.098 1861.32 795.795 1866.69 811.118C1869.23 818.177 1873.16 824.658 1878.24 830.18C1883.35 835.633 1889.55 839.959 1896.44 842.879C1904.03 846.051 1912.19 847.625 1920.41 847.502C1927.93 847.449 1935.33 845.707 1942.08 842.406C1945.69 840.617 1949.08 838.421 1952.19 835.862C1955.48 833.131 1958.34 829.915 1960.67 826.323L1971.04 834.316Z" fill="#878787"/>
<path d="M2029.51 719.355H2111.16V730.913H2042.22V779.44H2106.28V790.997H2042.22V855.704H2029.51V719.355Z" fill="#878787"/>
<path d="M2195.41 730.913H2148.81V719.355H2254.72V730.913H2208.11V855.704H2195.41V730.913Z" fill="#878787"/>
<path d="M899.049 808.124C904.74 808.124 909.353 803.51 909.353 797.82C909.353 792.129 904.74 787.516 899.049 787.516C893.358 787.516 888.745 792.129 888.745 797.82C888.745 803.51 893.358 808.124 899.049 808.124Z" fill="#878787"/>
<path d="M1692.1 808.124C1697.79 808.124 1702.4 803.51 1702.4 797.82C1702.4 792.129 1697.79 787.516 1692.1 787.516C1686.41 787.516 1681.79 792.129 1681.79 797.82C1681.79 803.51 1686.41 808.124 1692.1 808.124Z" fill="#878787"/>
<path d="M348.268 718.434H360.981V778.518H362.136L428.18 718.434H445.711L376.771 780.829L449.554 854.782H431.271L362.136 784.296H360.981V854.782H348.268V718.434Z" fill="#878787"/>
<path d="M534.62 796.049L484.492 718.434H499.809L541.012 783.141L583.189 718.434H597.447L547.319 796.049V854.782H534.62V796.049Z" fill="#878787"/>
<path d="M765.765 833.394C759.978 841.618 752.146 848.188 743.041 852.457C734.25 856.339 724.732 858.304 715.122 858.221C705.335 858.341 695.618 856.544 686.521 852.93C678.134 849.611 670.541 844.557 664.242 838.101C657.959 831.569 653.045 823.848 649.789 815.39C646.253 806.206 644.49 796.434 644.595 786.594C644.484 776.784 646.247 767.044 649.789 757.896C653.066 749.473 657.978 741.783 664.242 735.268C670.562 728.812 678.146 723.73 686.521 720.341C695.605 716.673 705.327 714.846 715.122 714.967C723.992 714.895 732.791 716.56 741.022 719.868C749.382 723.398 756.656 729.082 762.103 736.341L751.702 745.002C747.76 738.835 742.109 733.949 735.438 730.938C729.057 728.037 722.131 726.528 715.122 726.51C706.897 726.387 698.734 727.961 691.144 731.133C684.253 734.047 678.052 738.378 672.945 743.846C667.857 749.363 663.927 755.845 661.388 762.908C656.011 778.231 656.011 794.929 661.388 810.252C663.93 817.313 667.86 823.794 672.945 829.314C678.056 834.778 684.256 839.108 691.144 842.027C698.734 845.199 706.897 846.773 715.122 846.65C722.635 846.594 730.039 844.853 736.789 841.554C740.394 839.761 743.781 837.561 746.884 834.995C750.181 832.273 753.041 829.061 755.364 825.471L765.765 833.394Z" fill="#878787"/>
<path d="M1101.42 718.434H1114.51L1171.89 854.782H1157.65L1142.82 818.578H1070.6L1055.2 854.782H1041.91L1101.42 718.434ZM1107.39 732.358L1075.6 807.077H1138.19L1107.39 732.358Z" fill="#878787"/>
<path d="M1226.4 718.434H1245.47L1295.15 832.823L1344.84 718.434H1362.95V854.782H1350.23V734.614H1349.84L1297.85 854.782H1292.28L1239.52 734.614H1239.13V854.782H1226.42L1226.4 718.434Z" fill="#878787"/>
<path d="M1449.68 718.434H1462.39V843.225H1525.93V854.782H1449.68V718.434Z" fill="#878787"/>
<path d="M1971.04 833.394C1965.26 841.614 1957.43 848.184 1948.33 852.456C1939.54 856.339 1930.01 858.304 1920.4 858.221C1910.62 858.34 1900.91 856.543 1891.81 852.93C1883.43 849.604 1875.84 844.551 1869.53 838.1C1863.26 831.564 1858.35 823.844 1855.09 815.39C1851.55 806.206 1849.79 796.435 1849.89 786.594C1849.78 776.783 1851.55 767.043 1855.09 757.895C1858.37 749.476 1863.28 741.787 1869.53 735.268C1875.86 728.819 1883.44 723.738 1891.81 720.341C1900.89 716.674 1910.61 714.847 1920.4 714.966C1929.27 714.891 1938.07 716.556 1946.3 719.868C1954.66 723.398 1961.94 729.081 1967.39 736.34L1956.99 745.001C1953.05 738.831 1947.39 733.944 1940.72 730.938C1934.34 728.034 1927.41 726.525 1920.4 726.51C1912.17 726.387 1904.01 727.961 1896.42 731.133C1889.53 734.053 1883.34 738.384 1878.22 743.846C1873.14 749.364 1869.21 755.846 1866.68 762.908C1861.3 778.231 1861.3 794.928 1866.68 810.251C1869.22 817.312 1873.14 823.794 1878.22 829.314C1883.34 834.771 1889.54 839.101 1896.42 842.027C1904.01 845.199 1912.17 846.773 1920.4 846.65C1927.91 846.596 1935.32 844.855 1942.07 841.554C1945.68 839.765 1949.07 837.564 1952.18 834.995C1955.47 832.273 1958.33 829.061 1960.66 825.471L1971.04 833.394Z" fill="#878787"/>
<path d="M2029.51 718.434H2111.16V729.991H2042.22V778.518H2106.28V790.075H2042.22V854.782H2029.51V718.434Z" fill="#878787"/>
<path d="M2195.41 729.991H2148.81V718.434H2254.72V729.991H2208.11V854.782H2195.41V729.991Z" fill="#878787"/>
<path d="M899.049 807.202C904.74 807.202 909.353 802.589 909.353 796.898C909.353 791.207 904.74 786.594 899.049 786.594C893.358 786.594 888.745 791.207 888.745 796.898C888.745 802.589 893.358 807.202 899.049 807.202Z" fill="#878787"/>
<path d="M1692.1 807.202C1697.79 807.202 1702.4 802.589 1702.4 796.898C1702.4 791.207 1697.79 786.594 1692.1 786.594C1686.41 786.594 1681.79 791.207 1681.79 796.898C1681.79 802.589 1686.41 807.202 1692.1 807.202Z" fill="#878787"/>
<path d="M213.226 9.27819L265.276 8.58203L477.165 462.062H423.695L371.492 350.206L112.984 349.037L59.6526 462.062H0L213.226 9.27819ZM136.377 297.655H347.069L241.73 72.3981L136.377 297.655Z" fill="black"/>
<path d="M2088.5 362.988C2111.52 384.717 2139.2 400.909 2169.43 410.331C2192.1 416.588 2215.54 419.602 2239.05 419.284C2267 421.085 2294.92 415.257 2319.81 402.422C2330.06 397.26 2338.78 389.521 2345.13 379.965C2351.48 370.41 2355.23 359.366 2356.02 347.921C2357.4 339.784 2356.84 331.434 2354.38 323.555C2351.92 315.675 2347.64 308.489 2341.87 302.583C2323.8 284.144 2300.09 272.257 2274.5 268.802C2261.87 265.558 2231.04 259.654 2203.17 252.26C2170.51 243.585 2137.1 234.06 2112.05 212.255C2097.08 200.882 2085.41 185.729 2078.25 168.354C2071.08 150.978 2068.67 132.007 2071.26 113.39C2073.53 78.3146 2096.9 51.1758 2126.87 30.7763C2160.55 9.30836 2199.98 -1.37826 2239.89 0.142422C2269.53 -0.729262 2299.07 3.99474 2326.96 14.0669C2348.22 21.6233 2367.75 33.3708 2384.4 48.6136L2361.94 91.0974C2345.65 77.9645 2327.8 66.8985 2308.8 58.152C2287.25 48.6493 2263.73 44.4429 2240.22 45.8844C2214.1 45.2372 2188.29 51.7114 2165.57 64.6129C2155.27 69.9992 2146.49 77.9029 2140.06 87.5895C2133.63 97.2761 2129.75 108.431 2128.78 120.019C2128.14 155.582 2139.81 167.571 2161.85 181.092C2185.27 193.215 2210.1 202.405 2235.76 208.453L2302.35 224.202C2350.74 237.347 2368.93 248.389 2386.46 267.256C2404.53 287.664 2413.96 314.308 2412.73 341.544C2413.49 360.135 2409.44 378.608 2400.97 395.174C2392.49 411.74 2379.89 425.838 2364.37 436.105C2329.1 459.236 2287.55 470.907 2245.4 469.524C2227.76 469.624 2210.13 468.419 2192.67 465.918C2177.32 463.994 2162.18 460.733 2147.4 456.17C2134.19 452.071 2121.43 446.635 2109.32 439.948C2091.72 429.829 2074.84 418.525 2058.78 406.112L2088.5 362.988Z" fill="black"/>
<path d="M1747.44 0.71807C1701.41 1.61486 1656.67 16.084 1618.84 42.3104C1581 68.5368 1551.75 105.353 1534.75 148.139C1517.76 190.926 1513.78 237.779 1523.31 282.819C1532.84 327.86 1555.46 369.083 1588.33 401.318C1621.2 433.552 1662.86 455.362 1708.08 464.013C1753.3 472.663 1800.06 467.767 1842.51 449.941C1884.96 432.114 1921.19 402.15 1946.68 363.808C1972.16 325.465 1985.75 280.452 1985.75 234.413C1985.13 171.824 1959.68 112.043 1914.99 68.2182C1870.3 24.3932 1810.03 0.113142 1747.44 0.71807V0.71807ZM1747.44 412.745C1712.32 412.056 1678.19 401.013 1649.32 381C1620.45 360.986 1598.14 332.894 1585.17 300.247C1572.21 267.6 1569.17 231.852 1576.45 197.486C1583.72 163.12 1600.98 131.668 1626.06 107.073C1651.14 82.4788 1682.92 65.8377 1717.43 59.2374C1751.93 52.637 1787.61 56.3713 1820 69.9718C1852.38 83.5723 1880.03 106.433 1899.48 135.688C1918.92 164.942 1929.3 199.286 1929.3 234.413C1928.83 282.176 1909.4 327.796 1875.3 361.239C1841.2 394.682 1795.21 413.209 1747.44 412.745V412.745Z" fill="black"/>
<path d="M1360.94 380.417C1325.77 401.691 1285.42 412.899 1244.31 412.819C1220.46 413.55 1196.7 409.482 1174.45 400.858C1152.19 392.234 1131.9 379.229 1114.77 362.614C1097.64 345.999 1084.02 326.113 1074.72 304.134C1065.41 282.156 1060.62 258.534 1060.62 234.669C1060.62 210.804 1065.41 187.181 1074.72 165.203C1084.02 143.225 1097.64 123.339 1114.77 106.724C1131.9 90.1087 1152.19 77.1036 1174.45 68.4794C1196.7 59.8553 1220.46 55.7878 1244.31 56.5184C1270.15 56.4401 1295.71 61.8345 1319.3 72.3467C1342.9 82.8589 1364.01 98.2504 1381.23 117.508L1422.16 79.3268C1399.6 54.62 1372.13 34.9053 1341.5 21.4496C1310.87 7.99398 1277.77 1.09506 1244.31 1.19633C1213.22 0.517198 1182.31 6.05409 1153.39 17.482C1124.47 28.91 1098.12 45.9989 1075.9 67.7461C1053.67 89.4932 1036.01 115.461 1023.95 144.125C1011.89 172.789 1005.68 203.572 1005.68 234.669C1005.68 265.765 1011.89 296.549 1023.95 325.213C1036.01 353.877 1053.67 379.844 1075.9 401.592C1098.12 423.339 1124.47 440.428 1153.39 451.856C1182.31 463.284 1213.22 468.82 1244.31 468.141C1288.41 467.699 1331.75 456.592 1370.62 435.767C1388.53 426.854 1405.76 416.614 1422.14 405.133V234.697H1361.89L1360.94 380.417Z" fill="black"/>
<path d="M812.926 306.465C844.242 296.963 871.648 277.594 891.058 251.246C910.468 224.898 920.841 192.982 920.633 160.257C920.633 78.6455 849.618 13.1445 762.116 13.1445H558.637V461.974H619.069L618.401 319.832C672.567 319.442 764.01 319.052 766.794 318.663L872.022 461.974H937.147L812.926 306.465ZM739.266 270.358H613.444V57.522H747.968C749.653 57.522 766.07 57.884 768.674 57.884C775.43 58.0158 782.165 58.7005 788.809 59.9309C837.239 74.7884 872.022 111.368 872.022 160.313C871.149 184.834 862.303 208.401 846.826 227.441C831.35 246.481 810.086 259.955 786.261 265.819C770.802 268.904 755.071 270.425 739.307 270.358H739.266Z" fill="black"/>
<path d="M2519.49 469.366C2548.49 469.366 2572 445.857 2572 416.857C2572 387.857 2548.49 364.348 2519.49 364.348C2490.49 364.348 2466.98 387.857 2466.98 416.857C2466.98 445.857 2490.49 469.366 2519.49 469.366Z" fill="#878787"/>
</svg>
