<svg width="140" height="40" viewBox="0 0 140 40" fill="none" xmlns="http://www.w3.org/2000/svg">
<path d="M83.6602 19.9015C83.8946 20.1358 83.8946 20.5157 83.6602 20.7501L79.8419 24.5684C79.6076 24.8028 79.2277 24.8028 78.9933 24.5684C78.759 24.3341 78.759 23.9542 78.9933 23.7199L82.3875 20.3258L78.9933 16.9317C78.759 16.6974 78.759 16.3175 78.9933 16.0832C79.2277 15.8488 79.6076 15.8488 79.8419 16.0832L83.6602 19.9015ZM69.191 19.7258L83.236 19.7258L83.236 20.9258L69.191 20.9258L69.191 19.7258Z" fill="#080808" fill-opacity="0.8"/>
<path d="M56.1263 19.9015C55.892 20.1359 55.892 20.5158 56.1263 20.7501L59.9447 24.5684C60.179 24.8028 60.5589 24.8028 60.7932 24.5684C61.0275 24.3341 61.0275 23.9542 60.7932 23.7199L57.3991 20.3258L60.7932 16.9317C61.0275 16.6974 61.0275 16.3175 60.7932 16.0832C60.5589 15.8489 60.179 15.8489 59.9447 16.0832L56.1263 19.9015ZM70.5955 19.7258H56.5505V20.9258H70.5955V19.7258Z" fill="#080808" fill-opacity="0.8"/>
<g clip-path="url(#clip0)">
<path d="M136.958 27.6994V34.5733C136.958 35.4745 136.237 36.7116 135.319 36.7116H102.548C101.647 36.7116 100.909 35.4745 100.909 34.5733V11.6332C100.909 10.7238 101.647 10.4944 102.548 10.4944H135.319C136.221 10.4944 136.958 10.7238 136.958 11.625V19.5066" stroke="#727CF5" stroke-width="1.25" stroke-linecap="round" stroke-linejoin="round"/>
<path d="M127.407 24.6797C127.989 24.6797 128.461 24.2081 128.461 23.6264C128.461 23.0446 127.989 22.573 127.407 22.573C126.826 22.573 126.354 23.0446 126.354 23.6264C126.354 24.2081 126.826 24.6797 127.407 24.6797Z" stroke="#727CF5" stroke-width="1.25" stroke-linecap="round" stroke-linejoin="round"/>
<path d="M138.714 19.5065H123.966V27.6994H138.714V19.5065Z" stroke="#727CF5" stroke-width="1.25" stroke-linecap="round" stroke-linejoin="round"/>
<path d="M102.615 10.516L126.95 3.75048C127.146 3.68074 127.356 3.65815 127.562 3.68454C127.769 3.71093 127.966 3.78556 128.139 3.90239C128.311 4.01922 128.454 4.17497 128.555 4.35706C128.656 4.53915 128.712 4.74246 128.72 4.95056L128.831 10.2174" stroke="#727CF5" stroke-width="1.25" stroke-linecap="round" stroke-linejoin="round"/>
</g>
<g clip-path="url(#clip1)">
<path d="M37.2388 27.6994V34.5733C37.2388 35.4745 36.5178 36.7116 35.6002 36.7116H2.82866C1.92744 36.7116 1.19008 35.4745 1.19008 34.5733V11.6332C1.19008 10.7238 1.92744 10.4944 2.82866 10.4944H35.6002C36.5014 10.4944 37.2388 10.7238 37.2388 11.625V19.5066" stroke="#727CF5" stroke-width="1.25" stroke-linecap="round" stroke-linejoin="round"/>
<path d="M27.6882 24.6797C28.27 24.6797 28.7416 24.2081 28.7416 23.6264C28.7416 23.0446 28.27 22.573 27.6882 22.573C27.1064 22.573 26.6348 23.0446 26.6348 23.6264C26.6348 24.2081 27.1064 24.6797 27.6882 24.6797Z" stroke="#727CF5" stroke-width="1.25" stroke-linecap="round" stroke-linejoin="round"/>
<path d="M38.9944 19.5065H24.2472V27.6994H38.9944V19.5065Z" stroke="#727CF5" stroke-width="1.25" stroke-linecap="round" stroke-linejoin="round"/>
<path d="M2.89547 10.516L27.2304 3.75048C27.4267 3.68074 27.6366 3.65815 27.8431 3.68454C28.0497 3.71093 28.2471 3.78556 28.4195 3.90239C28.5919 4.01922 28.7344 4.17497 28.8355 4.35706C28.9365 4.53915 28.9933 4.74246 29.0012 4.95056L29.1122 10.2174" stroke="#727CF5" stroke-width="1.25" stroke-linecap="round" stroke-linejoin="round"/>
</g>
<defs>
<clipPath id="clip0">
<rect width="39.3258" height="39.3258" fill="white" transform="translate(100.09 0.662903)"/>
</clipPath>
<clipPath id="clip1">
<rect width="39.3258" height="39.3258" fill="white" transform="translate(0.370789 0.662903)"/>
</clipPath>
</defs>
</svg>
