<svg width="2572" height="764" viewBox="0 0 2572 764" fill="none" xmlns="http://www.w3.org/2000/svg">
<path d="M1961.95 674.346L2031.08 652.645V80.375L1961.95 102.076V674.346ZM1164.63 327.126C1208.04 327.126 1248.22 346.416 1273.94 378.566L1302.08 313.463C1265.1 278.098 1216.07 261.219 1164.63 261.219C1045.68 261.219 963.696 355.258 964.5 458.941C965.304 571.466 1053.72 663.094 1164.63 663.094C1220.9 663.094 1263.5 646.215 1295.65 622.906V543.335C1261.89 577.093 1212.86 597.186 1170.26 597.186C1105.96 597.186 1033.62 544.943 1033.62 458.941C1033.62 379.37 1096.32 327.126 1164.63 327.126ZM1624.38 261.219C1505.42 261.219 1436.3 355.258 1436.3 458.941C1436.3 571.466 1525.52 663.094 1636.44 663.094C1692.7 663.094 1735.3 646.215 1767.45 622.906V543.335C1733.69 577.093 1684.66 597.186 1642.06 597.186C1585 597.186 1522.3 561.821 1509.44 487.073H1812.46V460.549C1812.46 349.631 1739.32 261.219 1624.38 261.219ZM2371.06 261.219C2260.15 261.219 2170.13 351.239 2170.13 462.156C2170.13 573.074 2260.15 663.094 2371.06 663.094C2481.98 663.094 2572 573.074 2572 462.156C2572 351.239 2481.98 261.219 2371.06 261.219ZM1625.18 327.126C1679.03 327.126 1736.1 360.884 1740.92 425.988H1509.44C1514.27 360.884 1571.33 327.126 1625.18 327.126ZM2371.06 597.186C2344.36 597.186 2318.25 589.267 2296.04 574.43C2273.84 559.592 2256.53 538.504 2246.31 513.83C2236.09 489.157 2233.42 462.007 2238.63 435.813C2243.84 409.62 2256.7 385.56 2275.58 366.676C2294.47 347.791 2318.53 334.931 2344.72 329.721C2370.91 324.511 2398.06 327.185 2422.74 337.405C2447.41 347.625 2468.5 364.932 2483.34 387.138C2498.17 409.343 2506.09 435.45 2506.09 462.156C2506.12 479.897 2502.65 497.469 2495.87 513.865C2489.1 530.261 2479.15 545.158 2466.61 557.703C2454.06 570.248 2439.17 580.193 2422.77 586.968C2406.38 593.744 2388.8 597.216 2371.06 597.186V597.186Z" fill="#2E3338"/>
<path d="M301.406 683.188C423.48 683.188 522.438 584.23 522.438 462.156C522.438 340.083 423.48 241.125 301.406 241.125C179.333 241.125 80.375 340.083 80.375 462.156C80.375 584.23 179.333 683.188 301.406 683.188ZM301.406 763.563C134.95 763.563 0 628.613 0 462.156C0 295.7 134.95 160.75 301.406 160.75C467.863 160.75 602.813 295.7 602.813 462.156C602.813 628.613 467.863 763.563 301.406 763.563Z" fill="#FBCC5C"/>
<path d="M462.156 522.438C584.23 522.438 683.188 423.48 683.188 301.406C683.188 179.333 584.23 80.375 462.156 80.375C340.083 80.375 241.125 179.333 241.125 301.406C241.125 423.48 340.083 522.438 462.156 522.438ZM462.156 602.813C295.7 602.813 160.75 467.863 160.75 301.406C160.75 134.95 295.7 0 462.156 0C628.613 0 763.563 134.95 763.563 301.406C763.563 467.863 628.613 602.813 462.156 602.813Z" fill="#35D07F"/>
<path d="M472.043 602.651C492.932 577.341 507.904 547.684 515.863 515.846C547.7 507.887 577.356 492.919 602.668 472.034C601.514 508.896 593.575 545.23 579.247 579.214C545.26 593.549 508.92 601.494 472.051 602.651H472.043ZM247.708 247.699C215.872 255.658 186.215 270.626 160.903 291.512C162.057 254.649 169.997 218.315 184.325 184.331C218.313 170.002 254.653 162.062 291.521 160.91C270.638 186.217 255.669 215.869 247.708 247.699V247.699Z" fill="#5EA33B"/>
</svg>
