<svg width="24" height="24" xmlns="http://www.w3.org/2000/svg" xmlns:xlink="http://www.w3.org/1999/xlink"><use xlink:href="#path0_fill" fill-opacity=".54"/><defs><path id="path0_fill" d="M12 17.035A5.038 5.038 0 0 1 6.965 12 5.038 5.038 0 0 1 12 6.965 5.038 5.038 0 0 1 17.035 12c0 2.765-2.27 5.035-5.035 5.035zm0-8.218A3.195 3.195 0 0 0 8.817 12 3.195 3.195 0 0 0 12 15.183 3.195 3.195 0 0 0 15.183 12 3.195 3.195 0 0 0 12 8.817zM12 24h-.13c-.913 0-1.696-.104-1.748-.104a.94.94 0 0 1-.809-.783l-.26-1.878a9.169 9.169 0 0 1-1.644-.705l-1.461 1.122c-.34.261-.783.235-1.122 0-.026-.026-.652-.522-1.304-1.148l-.105-.104c-.652-.652-1.121-1.278-1.147-1.304a.902.902 0 0 1 0-1.122l1.147-1.513c-.287-.522-.495-1.096-.678-1.67l-1.826-.26a.914.914 0 0 1-.783-.81C.104 13.697 0 12.914 0 12v-.13c0-.913.104-1.696.104-1.748a.94.94 0 0 1 .783-.809l1.878-.26a9.172 9.172 0 0 1 .705-1.644L2.348 5.948c-.261-.34-.235-.783 0-1.122.026-.026.522-.652 1.148-1.304l.104-.105c.652-.652 1.278-1.121 1.304-1.147a.902.902 0 0 1 1.122 0L7.54 3.417c.522-.287 1.096-.495 1.67-.678l.26-1.826a.914.914 0 0 1 .81-.783C10.303.104 11.086 0 12 0h.13c.913 0 1.696.104 1.748.104a.94.94 0 0 1 .809.783l.26 1.878a9.172 9.172 0 0 1 1.644.705l1.461-1.122c.34-.261.783-.235 1.122 0 .026.026.652.522 1.304 1.148l.105.104c.652.652 1.121 1.278 1.147 1.304.261.34.261.783 0 1.122L20.61 7.54c.287.522.495 1.096.678 1.67l1.826.26c.417.053.73.392.783.81 0 .025.104.834.104 1.747v.13c0 .914-.104 1.696-.104 1.748a.94.94 0 0 1-.783.809l-1.878.26a9.168 9.168 0 0 1-.705 1.644l1.122 1.487c.261.34.235.783 0 1.122-.026.026-.522.652-1.148 1.304l-.104.105c-.652.652-1.278 1.121-1.304 1.148a.902.902 0 0 1-1.122 0l-1.513-1.174c-.522.287-1.096.495-1.67.678l-.26 1.826a.914.914 0 0 1-.81.783c-.025 0-.808.104-1.721.104zm-.94-1.878c.236.026.523.026.81.026H12c.287 0 .574 0 .809-.026l.235-1.722c.052-.391.339-.678.704-.783a7.354 7.354 0 0 0 2.296-.939.95.95 0 0 1 .704-.104c.13.026.26.104.365.182l1.383 1.044c.182-.157.391-.34.6-.548l.104-.104c.209-.209.391-.418.548-.6l-1.044-1.383a.951.951 0 0 1-.052-1.043 6.932 6.932 0 0 0 .94-2.218.942.942 0 0 1 .782-.756l1.748-.235c.026-.235.026-.522.026-.809V12c0-.287 0-.574-.026-.809l-1.722-.235a.984.984 0 0 1-.783-.704 7.817 7.817 0 0 0-.913-2.27c-.052-.052-.078-.13-.104-.208a.922.922 0 0 1 .13-.861l1.07-1.409c-.157-.182-.34-.391-.548-.6l-.104-.104a10.491 10.491 0 0 0-.6-.548l-1.383 1.044a.94.94 0 0 1-1.095 0 8.345 8.345 0 0 0-2.218-.94.919.919 0 0 1-.704-.782l-.235-1.748c-.235-.026-.522-.026-.809-.026H12c-.287 0-.574 0-.809.026L10.956 3.6a.887.887 0 0 1-.782.783 7.512 7.512 0 0 0-2.217.913.95.95 0 0 1-.705.104.964.964 0 0 1-.365-.183L5.53 4.174c-.182.156-.39.339-.6.548l-.104.104c-.209.209-.391.417-.548.6L5.322 6.81c.235.313.235.704.052 1.043-.026.026-.026.052-.052.078a7.512 7.512 0 0 0-.913 2.218.919.919 0 0 1-.783.704l-1.748.235c-.026.235-.026.522-.026.809V12c0 .287 0 .574.026.809l1.722.235c.417.052.73.365.783.782v.026c.182.783.495 1.513.913 2.192.13.234.182.521.078.782-.026.104-.104.209-.183.313l-1.017 1.357c.156.182.339.391.548.6l.104.104c.209.209.417.391.6.548l1.383-1.044a.94.94 0 0 1 1.148.026c.678.418 1.408.705 2.165.913a.918.918 0 0 1 .704.783l.235 1.696z"/></defs></svg>