<svg width="40" height="40" viewBox="0 0 40 40" fill="none" xmlns="http://www.w3.org/2000/svg">
<path d="M14.9977 11.3169C13.6851 11.3431 12.8542 11.8112 12.4971 12.5346C12.1565 13.224 12.2282 14.0912 12.4706 14.9933C12.3406 15.1283 12.2337 15.3176 12.2601 15.6022V15.6177C12.3075 15.9178 12.41 16.1304 12.5401 16.28C12.6029 16.3518 12.6911 16.3557 12.7682 16.3955C12.8354 16.7325 12.9875 17.0529 13.1616 17.3054C13.1704 17.3423 13.1881 17.3753 13.2134 17.4054C13.2134 17.4054 13.2421 17.4375 13.2487 17.4443C13.3369 17.5598 13.3798 17.721 13.3798 17.8987C13.3798 18.0881 13.3765 18.2648 13.3534 18.461C13.2696 18.6484 13.0602 18.7979 12.7241 18.9465C12.3737 19.1028 11.9141 19.2465 11.4468 19.4242C10.9806 19.6029 10.5068 19.8166 10.1265 20.1564C9.74632 20.4973 9.47411 20.9682 9.43554 21.5829L9.41791 21.8451H20.648L20.6315 21.5829C20.5929 20.9682 20.3273 20.4982 19.9493 20.1564C19.5702 19.8156 19.0952 19.6029 18.6279 19.4242C18.1606 19.2465 17.6988 19.1038 17.3418 18.9465C16.9968 18.795 16.7808 18.6396 16.686 18.4464C16.664 18.2124 16.6596 18.0288 16.6596 17.822C16.6596 17.6899 16.7114 17.5705 16.7996 17.452C16.8018 17.4491 16.8062 17.4472 16.8084 17.4443C16.8095 17.4423 16.826 17.4287 16.826 17.4287C16.8613 17.3967 16.8855 17.3569 16.8965 17.3132C17.0652 17.0568 17.2062 16.7315 17.2723 16.4033C17.3594 16.3635 17.4586 16.3586 17.5258 16.28C17.6603 16.1256 17.7396 15.9042 17.7705 15.6022C17.7958 15.341 17.711 15.1516 17.5787 15.0089C17.7242 14.6136 17.8961 13.9815 17.841 13.3367C17.8102 12.9823 17.7044 12.6278 17.4652 12.3346C17.2481 12.0685 16.8987 11.8869 16.459 11.8024C16.1626 11.4538 15.6248 11.3169 15.0065 11.3169H14.9977ZM15.0065 11.8102C15.0098 11.8102 15.012 11.8102 15.0153 11.8102C15.5741 11.8121 15.9322 11.951 16.0479 12.1268L16.1174 12.2345L16.2573 12.2501C16.6431 12.2967 16.8536 12.4278 17.0101 12.6201C17.1665 12.8114 17.2558 13.0794 17.2812 13.3746C17.333 13.9669 17.1379 14.6622 17.0101 14.9778L16.9219 15.1856L17.1412 15.2866C17.139 15.2934 17.2305 15.3749 17.2194 15.5556C17.2194 15.5594 17.2194 15.5594 17.2194 15.5633C17.1941 15.7954 17.1258 15.9265 17.0795 15.9799C17.0332 16.0333 17.009 16.0255 17.0189 16.0255H16.7742L16.7389 16.2421C16.6905 16.5616 16.5064 16.9646 16.3455 17.1665H16.3367C16.3202 17.1879 16.308 17.2131 16.2926 17.2365C16.2199 17.3112 16.1086 17.4103 15.9521 17.5287C15.6898 17.7249 15.3437 17.8987 15.0329 17.8987C14.7244 17.8987 14.375 17.7171 14.1061 17.5132C13.8736 17.3374 13.7347 17.186 13.695 17.1432C13.6939 17.1413 13.6961 17.1374 13.695 17.1355C13.5297 16.9257 13.3402 16.5577 13.2928 16.2421L13.2663 16.0255H13.0393C13.0294 16.0226 13.0029 16.01 12.9776 15.9799C12.928 15.9226 12.8586 15.7896 12.82 15.5633C12.82 15.5585 12.82 15.5604 12.82 15.5556C12.8189 15.5517 12.8211 15.5517 12.82 15.5478C12.8156 15.3613 12.9467 15.2574 12.9258 15.271L13.0823 15.171L13.0393 15.0011C12.7814 14.1019 12.7406 13.2881 13.0129 12.7356C13.2851 12.184 13.8361 11.8354 15.0065 11.8102ZM13.9397 18.0298C14.235 18.2211 14.6042 18.392 15.0329 18.392C15.4528 18.392 15.8132 18.2298 16.0997 18.0453C16.1008 18.1959 16.1064 18.3493 16.1262 18.5386V18.5697L16.1438 18.5998C16.1934 18.7134 16.2629 18.8105 16.3455 18.9008C16.3422 18.9106 16.3389 18.9212 16.3367 18.9319C16.3367 18.9319 16.2695 19.0931 16.0744 19.2708C15.8782 19.4476 15.5741 19.6253 15.0329 19.6253C14.494 19.6253 14.1788 19.4398 13.975 19.2553C13.77 19.0698 13.7039 18.9008 13.7039 18.9008C13.7843 18.8086 13.8515 18.7086 13.8956 18.592L13.9132 18.5464C13.9375 18.359 13.9397 18.191 13.9397 18.0298ZM16.783 19.2397C16.8811 19.2961 16.9825 19.3475 17.0883 19.3941C17.4972 19.5728 17.9611 19.7117 18.4009 19.8797C18.8406 20.0467 19.2506 20.237 19.5459 20.5041C19.7829 20.7167 19.925 21.0003 20.0011 21.3518H10.0648C10.142 21.0003 10.283 20.7167 10.52 20.5041C10.8175 20.237 11.2352 20.0467 11.6749 19.8797C12.1136 19.7117 12.5731 19.5738 12.9776 19.3941C13.0779 19.3485 13.1815 19.3009 13.2751 19.2475C13.338 19.3466 13.4338 19.4757 13.5727 19.6019C13.8581 19.8612 14.3408 20.1186 15.0329 20.1186C15.7228 20.1186 16.1967 19.8641 16.4767 19.6097C16.6298 19.4709 16.7224 19.3417 16.783 19.2397Z" fill="#909090"/>
<circle cx="15.1227" cy="17.1227" r="10.6227" stroke="#C4C4C4" stroke-width="3"/>
<rect x="23.8911" y="23.3216" width="14.74" height="4.26938" rx="0.5" transform="rotate(36.23 23.8911 23.3216)" fill="#C4C4C4" fill-opacity="0.84"/>
</svg>
