<svg width="40" height="40" viewBox="0 0 40 40" fill="none" xmlns="http://www.w3.org/2000/svg">
<path d="M31.1717 11.1783C31.4451 10.905 31.4451 10.4617 31.1717 10.1884L29.8116 8.82832C29.5383 8.55495 29.0951 8.55495 28.8217 8.82832L20.495 17.155C20.2216 17.4284 19.7784 17.4284 19.505 17.155L11.1783 8.82832C10.9049 8.55495 10.4617 8.55495 10.1884 8.82832L8.82831 10.1884C8.55494 10.4617 8.55494 10.905 8.82831 11.1783L17.155 19.505C17.4284 19.7784 17.4284 20.2216 17.155 20.495L8.82831 28.8217C8.55494 29.0951 8.55494 29.5383 8.82831 29.8117L10.1884 31.1717C10.4617 31.4451 10.9049 31.4451 11.1783 31.1717L19.505 22.845C19.7784 22.5716 20.2216 22.5716 20.495 22.845L28.8217 31.1717C29.0951 31.4451 29.5383 31.4451 29.8116 31.1717L31.1717 29.8117C31.4451 29.5383 31.4451 29.0951 31.1717 28.8217L22.845 20.495C22.5716 20.2216 22.5716 19.7784 22.845 19.505L31.1717 11.1783Z" fill="#FA5C7C"/>
</svg>
