<svg width="102" height="102" viewBox="0 0 102 102" fill="none" xmlns="http://www.w3.org/2000/svg">
<path d="M94.7947 97.0545H92.0024V9.37683C92.0024 8.45131 91.2522 7.7015 90.3271 7.7015H59.0535C58.1281 7.7015 57.3781 8.45131 57.3781 9.37683V16.6367H54.0275V9.37683C54.0275 8.45131 53.2773 7.7015 52.3521 7.7015H45.0921V2.67533C45.0921 1.74981 44.3419 1 43.4167 1C42.4916 1 41.7414 1.74981 41.7414 2.67533V7.7015H34.4815C33.5562 7.7015 32.8062 8.45131 32.8062 9.37683V16.6367H27.78C26.8547 16.6367 26.1047 17.3865 26.1047 18.312V32.2734H12.1433C11.218 32.2734 10.468 33.0232 10.468 33.9487V97.0543H7.67533C6.75 97.0543 6 97.8042 6 98.7297C6 99.6552 6.7502 100.405 7.67533 100.405H94.7947C95.72 100.405 96.47 99.6554 96.47 98.7299C96.47 97.8043 95.7198 97.0545 94.7947 97.0545ZM36.1567 11.0522H50.6764V16.6367H36.1567V11.0522ZM30.5721 97.0545H29.4552V94.2623C29.4552 93.3367 28.705 92.5869 27.7798 92.5869C26.8547 92.5869 26.1045 93.3367 26.1045 94.2623V97.0545H24.9876V91.47H30.5721V97.0545ZM41.7412 54.0532V56.9354V97.0545H33.9228V89.7947C33.9228 88.8691 33.1726 88.1193 32.2474 88.1193H23.3122C22.3869 88.1193 21.6369 88.8691 21.6369 89.7947V97.0545H13.8185V35.6243H41.7412V54.0532ZM43.4165 32.2736H29.4552V19.9876H57.3779V52.3779H45.0921V46.7934H50.1182C51.0436 46.7934 51.7936 46.0436 51.7936 45.118C51.7936 44.1925 51.0434 43.4427 50.1182 43.4427H45.0921V37.8582H50.1182C51.0436 37.8582 51.7936 37.1084 51.7936 36.1828C51.7936 35.2573 51.0434 34.5075 50.1182 34.5075H45.0921V33.9491C45.0921 33.0234 44.3419 32.2736 43.4165 32.2736ZM73.0148 97.0545H45.0921V56.9354V55.7288H73.0148V97.0545ZM88.6515 97.0545H76.3655V54.0532V51.8194C76.3655 50.8938 75.6153 50.144 74.6902 50.144C73.765 50.144 73.0148 50.8938 73.0148 51.8194V52.3777H69.6642V51.8194C69.6642 50.8938 68.914 50.144 67.9889 50.144C67.0637 50.144 66.3135 50.8938 66.3135 51.8194V52.3777H60.729V18.3122V11.0522H88.6517L88.6515 97.0545Z" fill="#727CF5"/>
<path d="M52.3519 93.7044C53.2772 93.7044 54.0272 92.9542 54.0272 92.0291V60.7557C54.0272 59.8301 53.277 59.0803 52.3519 59.0803C51.4268 59.0803 50.6766 59.8301 50.6766 60.7557V92.0293C50.6766 92.9544 51.4266 93.7044 52.3519 93.7044Z" fill="#727CF5"/>
<path d="M59.0534 93.7044C59.9788 93.7044 60.7288 92.9542 60.7288 92.0291V60.7557C60.7288 59.8301 59.9786 59.0803 59.0534 59.0803C58.1283 59.0803 57.3781 59.8301 57.3781 60.7557V92.0293C57.3779 92.9544 58.1281 93.7044 59.0534 93.7044Z" fill="#727CF5"/>
<path d="M65.7548 93.7044C66.6801 93.7044 67.4301 92.9542 67.4301 92.0291V60.7557C67.4301 59.8301 66.6799 59.0803 65.7548 59.0803C64.8297 59.0803 64.0795 59.8301 64.0795 60.7557V92.0293C64.0795 92.9544 64.8297 93.7044 65.7548 93.7044Z" fill="#727CF5"/>
<path d="M67.9887 22.2213C68.9141 22.2213 69.6641 21.4715 69.6641 20.546V18.3123C69.6641 17.3868 68.9139 16.637 67.9887 16.637C67.0636 16.637 66.3134 17.3868 66.3134 18.3123V20.5462C66.3134 21.4715 67.0634 22.2213 67.9887 22.2213Z" fill="#727CF5"/>
<path d="M74.6901 22.2213C75.6154 22.2213 76.3654 21.4715 76.3654 20.546V18.3123C76.3654 17.3868 75.6152 16.637 74.6901 16.637C73.765 16.637 73.0148 17.3868 73.0148 18.3123V20.5462C73.0148 21.4715 73.7648 22.2213 74.6901 22.2213Z" fill="#727CF5"/>
<path d="M81.3916 22.2213C82.317 22.2213 83.067 21.4715 83.067 20.546V18.3123C83.067 17.3868 82.3168 16.637 81.3916 16.637C80.4665 16.637 79.7163 17.3868 79.7163 18.3123V20.5462C79.7163 21.4715 80.4663 22.2213 81.3916 22.2213Z" fill="#727CF5"/>
<path d="M67.9887 33.3905C68.9141 33.3905 69.6641 32.6407 69.6641 31.7151V29.4812C69.6641 28.5557 68.9139 27.8059 67.9887 27.8059C67.0636 27.8059 66.3134 28.5557 66.3134 29.4812V31.7151C66.3134 32.6407 67.0634 33.3905 67.9887 33.3905Z" fill="#727CF5"/>
<path d="M74.6901 33.3905C75.6154 33.3905 76.3654 32.6407 76.3654 31.7151V29.4812C76.3654 28.5557 75.6152 27.8059 74.6901 27.8059C73.765 27.8059 73.0148 28.5557 73.0148 29.4812V31.7151C73.0148 32.6407 73.7648 33.3905 74.6901 33.3905Z" fill="#727CF5"/>
<path d="M81.3916 33.3905C82.317 33.3905 83.067 32.6407 83.067 31.7151V29.4812C83.067 28.5557 82.3168 27.8059 81.3916 27.8059C80.4665 27.8059 79.7163 28.5557 79.7163 29.4812V31.7151C79.7163 32.6407 80.4663 33.3905 81.3916 33.3905Z" fill="#727CF5"/>
<path d="M67.9887 44.5597C68.9141 44.5597 69.6641 43.8098 69.6641 42.8843V40.6504C69.6641 39.7249 68.9139 38.9751 67.9887 38.9751C67.0636 38.9751 66.3134 39.7249 66.3134 40.6504V42.8843C66.3134 43.8096 67.0634 44.5597 67.9887 44.5597Z" fill="#727CF5"/>
<path d="M74.6901 44.5597C75.6154 44.5597 76.3654 43.8098 76.3654 42.8843V40.6504C76.3654 39.7249 75.6152 38.9751 74.6901 38.9751C73.765 38.9751 73.0148 39.7249 73.0148 40.6504V42.8843C73.0148 43.8096 73.7648 44.5597 74.6901 44.5597Z" fill="#727CF5"/>
<path d="M81.3916 44.5597C82.317 44.5597 83.067 43.8098 83.067 42.8843V40.6504C83.067 39.7249 82.3168 38.9751 81.3916 38.9751C80.4665 38.9751 79.7163 39.7249 79.7163 40.6504V42.8843C79.7163 43.8096 80.4663 44.5597 81.3916 44.5597Z" fill="#727CF5"/>
<path d="M21.0783 49.0274C22.0036 49.0274 22.7536 48.2776 22.7536 47.3521V45.1182C22.7536 44.1927 22.0034 43.4429 21.0783 43.4429C20.1532 43.4429 19.403 44.1927 19.403 45.1182V47.3521C19.403 48.2774 20.1532 49.0274 21.0783 49.0274Z" fill="#727CF5"/>
<path d="M27.7798 49.0274C28.7051 49.0274 29.4551 48.2776 29.4551 47.3521V45.1182C29.4551 44.1927 28.7049 43.4429 27.7798 43.4429C26.8547 43.4429 26.1045 44.1927 26.1045 45.1182V47.3521C26.1045 48.2774 26.8545 49.0274 27.7798 49.0274Z" fill="#727CF5"/>
<path d="M34.4814 49.0274C35.4067 49.0274 36.1567 48.2776 36.1567 47.3521V45.1182C36.1567 44.1927 35.4065 43.4429 34.4814 43.4429C33.5562 43.4429 32.806 44.1927 32.806 45.1182V47.3521C32.806 48.2774 33.556 49.0274 34.4814 49.0274Z" fill="#727CF5"/>
<path d="M21.0783 60.1964C22.0036 60.1964 22.7536 59.4466 22.7536 58.521V56.2871C22.7536 55.3616 22.0034 54.6118 21.0783 54.6118C20.1532 54.6118 19.403 55.3616 19.403 56.2871V58.521C19.403 59.4464 20.1532 60.1964 21.0783 60.1964Z" fill="#727CF5"/>
<path d="M27.7798 60.1964C28.7051 60.1964 29.4551 59.4466 29.4551 58.521V56.2871C29.4551 55.3616 28.7049 54.6118 27.7798 54.6118C26.8547 54.6118 26.1045 55.3616 26.1045 56.2871V58.521C26.1045 59.4464 26.8545 60.1964 27.7798 60.1964Z" fill="#727CF5"/>
<path d="M34.4814 60.1964C35.4067 60.1964 36.1567 59.4466 36.1567 58.521V56.2871C36.1567 55.3616 35.4065 54.6118 34.4814 54.6118C33.5562 54.6118 32.806 55.3616 32.806 56.2871V58.521C32.806 59.4464 33.556 60.1964 34.4814 60.1964Z" fill="#727CF5"/>
<path d="M21.0783 71.3653C22.0036 71.3653 22.7536 70.6155 22.7536 69.69V67.4561C22.7536 66.5306 22.0034 65.7808 21.0783 65.7808C20.1532 65.7808 19.403 66.5306 19.403 67.4561V69.69C19.403 70.6155 20.1532 71.3653 21.0783 71.3653Z" fill="#727CF5"/>
<path d="M27.7798 71.3653C28.7051 71.3653 29.4551 70.6155 29.4551 69.69V67.4561C29.4551 66.5306 28.7049 65.7808 27.7798 65.7808C26.8547 65.7808 26.1045 66.5306 26.1045 67.4561V69.69C26.1045 70.6155 26.8545 71.3653 27.7798 71.3653Z" fill="#727CF5"/>
<path d="M34.4814 71.3653C35.4067 71.3653 36.1567 70.6155 36.1567 69.69V67.4561C36.1567 66.5306 35.4065 65.7808 34.4814 65.7808C33.5562 65.7808 32.806 66.5306 32.806 67.4561V69.69C32.806 70.6155 33.556 71.3653 34.4814 71.3653Z" fill="#727CF5"/>
<path d="M21.0783 82.5347C22.0036 82.5347 22.7536 81.7849 22.7536 80.8594V78.6255C22.7536 77.7 22.0034 76.9502 21.0783 76.9502C20.1532 76.9502 19.403 77.7 19.403 78.6255V80.8594C19.403 81.7849 20.1532 82.5347 21.0783 82.5347Z" fill="#727CF5"/>
<path d="M27.7798 82.5347C28.7051 82.5347 29.4551 81.7849 29.4551 80.8594V78.6255C29.4551 77.7 28.7049 76.9502 27.7798 76.9502C26.8547 76.9502 26.1045 77.7 26.1045 78.6255V80.8594C26.1045 81.7849 26.8545 82.5347 27.7798 82.5347Z" fill="#727CF5"/>
<path d="M34.4814 82.5347C35.4067 82.5347 36.1567 81.7849 36.1567 80.8594V78.6255C36.1567 77.7 35.4065 76.9502 34.4814 76.9502C33.5562 76.9502 32.806 77.7 32.806 78.6255V80.8594C32.806 81.7849 33.556 82.5347 34.4814 82.5347Z" fill="#727CF5"/>
<path d="M81.3916 55.7288C82.317 55.7288 83.067 54.979 83.067 54.0535V51.8196C83.067 50.8941 82.3168 50.1443 81.3916 50.1443C80.4665 50.1443 79.7163 50.8941 79.7163 51.8196V54.0535C79.7163 54.9788 80.4663 55.7288 81.3916 55.7288Z" fill="#727CF5"/>
<path d="M81.3916 66.898C82.317 66.898 83.067 66.1482 83.067 65.2227V62.9888C83.067 62.0633 82.3168 61.3135 81.3916 61.3135C80.4665 61.3135 79.7163 62.0633 79.7163 62.9888V65.2227C79.7163 66.148 80.4663 66.898 81.3916 66.898Z" fill="#727CF5"/>
<path d="M81.3916 78.067C82.317 78.067 83.067 77.3172 83.067 76.3916V74.1577C83.067 73.2322 82.3168 72.4824 81.3916 72.4824C80.4665 72.4824 79.7163 73.2322 79.7163 74.1577V76.3916C79.7163 77.317 80.4663 78.067 81.3916 78.067Z" fill="#727CF5"/>
<path d="M81.3916 89.2359C82.317 89.2359 83.067 88.4861 83.067 87.5606V85.3267C83.067 84.4012 82.3168 83.6514 81.3916 83.6514C80.4665 83.6514 79.7163 84.4012 79.7163 85.3267V87.5606C79.7163 88.4859 80.4663 89.2359 81.3916 89.2359Z" fill="#727CF5"/>
<path d="M51.7934 27.2476C51.7934 26.3221 51.0432 25.5723 50.1181 25.5723H36.7151C35.7897 25.5723 35.0397 26.3221 35.0397 27.2476C35.0397 28.1731 35.7899 28.9229 36.7151 28.9229H50.1181C51.0434 28.9229 51.7934 28.1731 51.7934 27.2476Z" fill="#727CF5"/>
</svg>
