<svg width="70" height="32" xmlns="http://www.w3.org/2000/svg" xmlns:xlink="http://www.w3.org/1999/xlink"><g transform="translate(-1296 651)"><mask id="a"><use xlink:href="#path0_fill" fill="#fff" transform="translate(1296 -651)"/></mask><g mask="url(#a)"><use xlink:href="#path1_stroke_2x" transform="translate(1296 -651)" fill="#0acf97"/></g></g><use xlink:href="#path0_fill" transform="translate(38)" fill="#F56565"/><defs><path id="path0_fill" d="M0 2a2 2 0 0 1 2-2h28a2 2 0 0 1 2 2v28a2 2 0 0 1-2 2H2a2 2 0 0 1-2-2V2z"/><path id="path1_stroke_2x" d="M2 2h28v-4H2v4zm28 0v28h4V2h-4zm0 28H2v4h28v-4zM2 30V2h-4v28h4zM2-2a4 4 0 0 0-4 4h4v-4zm28 4h4a4 4 0 0 0-4-4v4zm0 28v4a4 4 0 0 0 4-4h-4zM2 30h-4a4 4 0 0 0 4 4v-4z"/></defs></svg>