<svg width="40" height="64" viewBox="0 0 40 64" fill="none" xmlns="http://www.w3.org/2000/svg">
<path d="M20.6152 0.369569C20.3809 0.135254 20.001 0.135254 19.7667 0.369569L15.9483 4.18795C15.714 4.42226 15.714 4.80216 15.9483 5.03647C16.1827 5.27079 16.5626 5.27079 16.7969 5.03647L20.191 1.64236L23.5851 5.03647C23.8194 5.27079 24.1993 5.27079 24.4336 5.03647C24.6679 4.80216 24.6679 4.42226 24.4336 4.18795L20.6152 0.369569ZM20.791 17.6478L20.791 0.793833H19.591L19.591 17.6478H20.791Z" fill="#080808" fill-opacity="0.8"/>
<g clip-path="url(#clip0)">
<path d="M36.868 51.1489V58.0227C36.868 58.9239 36.147 60.1611 35.2294 60.1611H2.45785C1.55663 60.1611 0.819275 58.9239 0.819275 58.0227V35.0827C0.819275 34.1732 1.55663 33.9438 2.45785 33.9438H35.2294C36.1306 33.9438 36.868 34.1732 36.868 35.0745V42.956" stroke="#727CF5" stroke-width="1.25" stroke-linecap="round" stroke-linejoin="round"/>
<path d="M27.3174 48.1292C27.8992 48.1292 28.3708 47.6576 28.3708 47.0758C28.3708 46.4941 27.8992 46.0225 27.3174 46.0225C26.7356 46.0225 26.264 46.4941 26.264 47.0758C26.264 47.6576 26.7356 48.1292 27.3174 48.1292Z" stroke="#727CF5" stroke-width="1.25" stroke-linecap="round" stroke-linejoin="round"/>
<path d="M38.6236 42.956H23.8764V51.1489H38.6236V42.956Z" stroke="#727CF5" stroke-width="1.25" stroke-linecap="round" stroke-linejoin="round"/>
<path d="M2.52467 33.9654L26.8596 27.1999C27.0559 27.1302 27.2657 27.1076 27.4723 27.134C27.6789 27.1604 27.8763 27.235 28.0487 27.3519C28.2211 27.4687 28.3636 27.6244 28.4646 27.8065C28.5657 27.9886 28.6225 28.1919 28.6304 28.4L28.7414 33.6669" stroke="#727CF5" stroke-width="1.25" stroke-linecap="round" stroke-linejoin="round"/>
</g>
<defs>
<clipPath id="clip0">
<rect width="39.3258" height="39.3258" fill="white" transform="translate(0 24.1124)"/>
</clipPath>
</defs>
</svg>
