<svg width="20" height="21" viewBox="0 0 20 21" fill="none" xmlns="http://www.w3.org/2000/svg">
<path d="M3.06557 15.6703V17.1232C3.06557 18.683 4.31177 19.9474 5.84903 19.9474H16.2165C17.7538 19.9474 19 18.683 19 17.1232V3.82413C19 2.26441 17.7538 1 16.2165 1H5.84903C4.31177 1 3.06557 2.26441 3.06557 3.82414V5.27706M1.20243 7.93214H4.90209C5.01389 7.93214 5.10452 7.84018 5.10452 7.72675V7.66375C5.10452 7.55032 5.01389 7.45836 4.90209 7.45836H1.20243C1.09063 7.45836 1 7.55032 1 7.66375V7.72675C1 7.84018 1.09063 7.93214 1.20243 7.93214ZM1.20243 11.0692H4.90209C5.01389 11.0692 5.10452 10.9772 5.10452 10.8638V10.8008C5.10452 10.6874 5.01389 10.5954 4.90209 10.5954H1.20243C1.09063 10.5954 1 10.6874 1 10.8008V10.8638C1 10.9772 1.09063 11.0692 1.20243 11.0692ZM1.20243 14.1732H4.90209C5.01389 14.1732 5.10452 14.0812 5.10452 13.9678V13.9048C5.10452 13.7914 5.01389 13.6994 4.90209 13.6994H1.20243C1.09063 13.6994 1 13.7914 1 13.9048V13.9678C1 14.0812 1.09063 14.1732 1.20243 14.1732ZM13.5072 7.37211C13.5072 8.651 12.4853 9.68774 11.2249 9.68774C9.96441 9.68774 8.94261 8.651 8.94261 7.37211C8.94261 6.09323 9.96441 5.05649 11.2249 5.05649C12.4853 5.05649 13.5072 6.09323 13.5072 7.37211ZM16.0516 15.7277C16.0516 14.5479 15.5386 13.4165 14.6255 12.5823C13.7124 11.7482 12.474 11.2795 11.1827 11.2795C9.89143 11.2795 8.65302 11.7482 7.73993 12.5823C6.82684 13.4165 6.31387 14.5479 6.31387 15.7277H16.0516Z" stroke="black" stroke-opacity="0.54" stroke-width="1.1"/>
</svg>
