<svg xmlns="http://www.w3.org/2000/svg" id="prefix__icon_visible_on" width="20" height="20" viewBox="0 0 20 20">
    <path id="prefix__Path_19" fill="#727cf5" d="M19.5 2h-15A2.448 2.448 0 0 0 2 4.5v15A2.448 2.448 0 0 0 4.5 22h15a2.448 2.448 0 0 0 2.5-2.5v-15A2.448 2.448 0 0 0 19.5 2z" data-name="Path 19" transform="translate(-2 -2)"/>
    <path id="prefix__Path_20" fill="#fff" d="M17.142 9.421c-.068-.079-1.716-1.933-5.926-1.933S5.357 9.342 5.289 9.421a.622.622 0 0 0 .063.875.629.629 0 0 0 .88-.054A5.229 5.229 0 0 1 8.5 9.091a3.092 3.092 0 0 0-.42 1.537 3.14 3.14 0 1 0 6.28 0 3.092 3.092 0 0 0-.42-1.537 5.224 5.224 0 0 1 2.26 1.147.625.625 0 0 0 .946-.817zm-4.036 1.207a1.89 1.89 0 1 1-1.89-1.89 1.893 1.893 0 0 1 1.889 1.89z" data-name="Path 20" transform="translate(-1.215 -.628)"/>
</svg>
