<svg xmlns="http://www.w3.org/2000/svg" id="prefix__icon_changestatus" width="20" height="20" viewBox="0 0 20 20">
    <path id="prefix__icon_changestatus-2" fill="#727cf5" d="M19.5 2h-15A2.448 2.448 0 0 0 2 4.5v15A2.448 2.448 0 0 0 4.5 22h15a2.448 2.448 0 0 0 2.5-2.5v-15A2.448 2.448 0 0 0 19.5 2zM6.037 14.724a.76.76 0 0 1-.286-.057.746.746 0 0 1-.4-.406.733.733 0 0 1-.059-.286v-3.19a.751.751 0 0 1 1.5 0v1.379l6.7-6.7a.75.75 0 0 1 1.061 1.061l-6.7 6.695h1.38a.75.75 0 1 1 0 1.5zm12.675-1.508a.751.751 0 0 1-1.5 0v-1.379l-6.7 6.695a.75.75 0 0 1-1.061-1.061l6.7-6.7h-1.38a.75.75 0 1 1 0-1.5h3.191a.76.76 0 0 1 .286.057.746.746 0 0 1 .405.406.733.733 0 0 1 .059.286z" data-name="icon_changestatus" transform="translate(-2 -2)"/>
</svg>
