<svg width="48" height="48" viewBox="0 0 48 48" fill="none" xmlns="http://www.w3.org/2000/svg">
<path d="M46 47L35.5405 39.1239L36.7027 42.5H8.81081C5.60208 42.5 3 39.9823 3 36.875V7.625C3 4.51775 5.60208 2 8.81081 2H40.1892C43.399 2 46 4.51775 46 7.625V47Z" fill="#ACACAC"/>
<path d="M35.0641 14.645C35.0641 14.645 32.0425 12.3838 28.463 12.125L28.1492 12.7437C31.38 13.4975 32.856 14.5887 34.4016 15.9275C31.7403 14.6112 29.1022 13.25 24.5 13.25C19.8978 13.25 17.2598 14.6112 14.5984 15.9275C16.1441 14.5887 17.9106 13.3737 20.8508 12.7437L20.537 12.125C16.7833 12.4738 13.936 14.645 13.936 14.645C13.936 14.645 10.5541 19.3587 9.973 28.5725C13.3898 32.3525 18.5613 32.375 18.5613 32.375L19.6306 30.9913C17.806 30.3838 15.7257 29.2925 13.936 27.3125C16.0743 28.865 19.2935 30.125 24.5 30.125C29.7065 30.125 32.9257 28.865 35.0641 27.3125C33.2743 29.2925 31.1941 30.3838 29.3695 30.9913L30.4387 32.375C30.4387 32.375 35.6103 32.3525 39.027 28.5725C38.446 19.3587 35.0641 14.645 35.0641 14.645ZM20.4325 26.75C19.1541 26.75 18.1081 25.49 18.1081 23.9375C18.1081 22.385 19.1541 21.125 20.4325 21.125C21.7108 21.125 22.7568 22.385 22.7568 23.9375C22.7568 25.49 21.7108 26.75 20.4325 26.75ZM28.5676 26.75C27.2892 26.75 26.2433 25.49 26.2433 23.9375C26.2433 22.385 27.2892 21.125 28.5676 21.125C29.846 21.125 30.8919 22.385 30.8919 23.9375C30.8919 25.49 29.846 26.75 28.5676 26.75Z" fill="white"/>
</svg>
