<svg xmlns="http://www.w3.org/2000/svg" width="30" height="30" viewBox="0 0 30 30">
    <g>
        <path fill="none" d="M0 0H30V30H0z" transform="translate(-60 -347) rotate(90 -128.5 218.5)"/>
        <path fill="#727cf5" d="M94.157 30.339a1.409 1.409 0 0 0-.78-2.4l-3.346-.487a.246.246 0 0 1-.185-.135l-1.5-3.031a1.4 1.4 0 0 0-1.264-.785 1.4 1.4 0 0 0-1.261.785l-1.5 3.03a.249.249 0 0 1-.187.136l-3.345.487a1.408 1.408 0 0 0-.78 2.4l2.426 2.361a.247.247 0 0 1 .072.219l-.571 3.331a1.408 1.408 0 0 0 2.044 1.485l2.99-1.572a.256.256 0 0 1 .232 0l2.99 1.572a1.409 1.409 0 0 0 2.044-1.484l-.571-3.333a.248.248 0 0 1 .071-.218zm-3.636 2.774l.571 3.331a.236.236 0 0 1-.1.242.241.241 0 0 1-.261.02l-2.992-1.572a1.4 1.4 0 0 0-1.311 0l-2.99 1.572a.23.23 0 0 1-.26-.02.234.234 0 0 1-.1-.242l.57-3.33a1.409 1.409 0 0 0-.406-1.247l-2.42-2.36a.248.248 0 0 1 .138-.422l3.343-.485a1.41 1.41 0 0 0 1.061-.771l1.5-3.031a.248.248 0 0 1 .444 0l1.5 3.03a1.409 1.409 0 0 0 1.06.771l3.344.485a.248.248 0 0 1 .139.422l-2.421 2.36a1.407 1.407 0 0 0-.409 1.248z" transform="translate(-60 -347) translate(-12.041 331.5)"/>
    </g>
</svg>
