<svg xmlns="http://www.w3.org/2000/svg" id="btn_help" width="24" height="24" viewBox="0 0 24 24">
    <rect id="Rectangle_516" width="24" height="24" fill="#727cf5" data-name="Rectangle 516" rx="12"/>
    <path id="Path_325" fill="#fff" d="M508.058 325.694a3.252 3.252 0 0 1 .082-1.16 2.613 2.613 0 0 1 .363-.78 2.817 2.817 0 0 1 .5-.546c.183-.153.354-.3.514-.445a2.194 2.194 0 0 0 .4-.481 1.236 1.236 0 0 0 .164-.66 1.314 1.314 0 0 0-.26-.831.992.992 0 0 0-.836-.337 1.288 1.288 0 0 0-.945.368 1.717 1.717 0 0 0-.425 1.129h-1.712a3.416 3.416 0 0 1 .363-1.408 2.832 2.832 0 0 1 .753-.913 2.634 2.634 0 0 1 .98-.475 3.593 3.593 0 0 1 1.041-.109 4.264 4.264 0 0 1 1.13.2 2.806 2.806 0 0 1 .911.481 2.2 2.2 0 0 1 .822 1.771 2.684 2.684 0 0 1-.178 1.066 2.253 2.253 0 0 1-.445.678 3.585 3.585 0 0 1-.569.476 4.033 4.033 0 0 0-.555.45 2.023 2.023 0 0 0-.418.6 1.989 1.989 0 0 0-.137.926zm.781 3.349a1.221 1.221 0 0 1-.89-.349 1.237 1.237 0 0 1 0-1.737 1.217 1.217 0 0 1 .89-.349 1.234 1.234 0 0 1 .9.349 1.237 1.237 0 0 1 0 1.737 1.239 1.239 0 0 1-.9.349z" data-name="Path 325" transform="translate(-496.907 -312.043)"/>
</svg>
