<svg xmlns="http://www.w3.org/2000/svg" width="30" height="30" viewBox="0 0 30 30">
    <path fill="none" d="M0 0H30V30H0z" transform="rotate(90 15 15)"/>
    <path fill="#fff" d="M15.19 10.508a.332.332 0 0 0 0-.057.521.521 0 0 0-.082-.244L10.8 3.739a.559.559 0 0 0-.9 0l-4.31 6.469a.521.521 0 0 0-.082.244.332.332 0 0 0 0 .057.518.518 0 0 0 .006.136.489.489 0 0 0 .063.123c.006.012 0 .027.01.038L9.9 17.273a.539.539 0 0 0 .9 0l4.311-6.473c.008-.011 0-.026.01-.038a.489.489 0 0 0 .063-.123.518.518 0 0 0 .006-.131zm-4.839-5.5l3.525 5.292-3.525 1.76-3.526-1.76zm0 10.994L7.614 11.9l2.5 1.248a.539.539 0 0 0 .483 0l2.5-1.248z" transform="translate(4.493 4.486)"/>
</svg>
