<svg width="48" height="48" viewBox="0 0 48 48" fill="none" xmlns="http://www.w3.org/2000/svg">
<path d="M43.5723 2H4.42772C3.78385 2 3.16635 2.25578 2.71106 2.71106C2.25578 3.16635 2 3.78385 2 4.42772V43.5723C2 44.2161 2.25578 44.8336 2.71106 45.2891C3.16635 45.7441 3.78385 46 4.42772 46H25.5053V28.9828H19.7891V22.3249H25.5053V17.4386C25.5053 11.7533 28.9789 8.66175 34.0428 8.66175C35.7547 8.65716 37.4657 8.7435 39.1684 8.92035V14.8449H35.6716C32.9119 14.8449 32.3793 16.1533 32.3793 18.0793V22.3249H38.9754L38.1147 28.9828H32.3793V46H43.5723C44.2161 46 44.8336 45.7441 45.2891 45.2891C45.7441 44.8336 46 44.2161 46 43.5723V4.42772C46 3.78385 45.7441 3.16635 45.2891 2.71106C44.8336 2.25578 44.2161 2 43.5723 2Z" fill="#ACACAC"/>
<path d="M32.3793 46V28.9828H38.1147L38.9754 22.3249H32.3793V18.0793C32.3793 16.1495 32.9119 14.8449 35.6716 14.8449H39.1684V8.90491C37.4631 8.72779 35.7496 8.64145 34.0351 8.64631C28.9674 8.64631 25.4975 11.734 25.4975 17.4232V22.3249H19.7891V28.9828H25.5053V46H32.3793Z" fill="white"/>
</svg>
