<svg xmlns="http://www.w3.org/2000/svg" width="30" height="30" viewBox="0 0 30 30">
    <g id="icon_wallet" transform="translate(-60 -347)">
        <path id="Rectangle_451" fill="none" d="M0 0H30V30H0z" data-name="Rectangle 451" transform="rotate(90 -128.5 218.5)"/>
        <path id="Path_379" fill="#727cf5" d="M-50.836 30.107A2.7 2.7 0 0 0-53.2 28.7h-.652v-2.014a1.742 1.742 0 0 0-.71-1.56 1.262 1.262 0 0 0-1.283.03l-5.575 3.637c-.012.008-.017.023-.03.032a.53.53 0 0 0-.117.127.446.446 0 0 0-.039.058.538.538 0 0 0-.061.237v8.41a.527.527 0 0 0 .07.25.428.428 0 0 0 .038.057.543.543 0 0 0 .146.141.458.458 0 0 0 .052.034.525.525 0 0 0 .237.061h7.924a2.7 2.7 0 0 0 2.361-1.4 3.356 3.356 0 0 0 3.173-3.346 3.356 3.356 0 0 0-3.17-3.347zm-4.457-4.017c.03-.015.131-.063.173-.035.074.044.186.249.186.63V28.7H-59.3zm2.1 11.025h-7.38V29.79h7.38a1.623 1.623 0 0 1 1.146.473 3.359 3.359 0 0 0-1.8 1.367 3.345 3.345 0 0 0-.543 1.822c0 .044.011.084.013.127a3.345 3.345 0 0 0 2.328 3.061 1.62 1.62 0 0 1-1.151.476zm3.851-3.664v.543h-1.138v1.139h-1.09v-1.138h-1.139V32.91h1.139v-1.14h1.086v1.14h1.138z" data-name="Path 379" transform="translate(131.125 330.035)"/>
    </g>
</svg>
