<svg width="48" height="48" viewBox="0 0 48 48" fill="none" xmlns="http://www.w3.org/2000/svg">
<path d="M24 47C36.7025 47 47 36.7025 47 24C47 11.2975 36.7025 1 24 1C11.2975 1 1 11.2975 1 24C1 36.7025 11.2975 47 24 47Z" fill="#ACACAC"/>
<path d="M39.3333 24C39.3333 22.1439 37.8269 20.6374 35.9708 20.6374C35.0561 20.6374 34.2491 20.9871 33.6573 21.5789C31.3708 19.938 28.1965 18.862 24.6994 18.7275L26.2328 11.545L31.2094 12.5941C31.2632 13.8585 32.3123 14.8807 33.6035 14.8807C34.9216 14.8807 35.9977 13.8047 35.9977 12.4865C35.9977 11.1684 34.9216 10.0924 33.6035 10.0924C32.662 10.0924 31.855 10.6304 31.4784 11.4374L25.9099 10.2538C25.7485 10.2269 25.5871 10.2538 25.4526 10.3345C25.3181 10.4152 25.2374 10.5497 25.1836 10.7111L23.4889 18.7275C19.9111 18.8351 16.7099 19.8842 14.3965 21.5789C13.8047 21.014 12.9708 20.6374 12.083 20.6374C10.2269 20.6374 8.72047 22.1439 8.72047 24C8.72047 25.3719 9.52749 26.5286 10.7111 27.0667C10.6573 27.3895 10.6304 27.7392 10.6304 28.0889C10.6304 33.2538 16.6292 37.4234 24.0538 37.4234C31.4784 37.4234 37.4772 33.2538 37.4772 28.0889C37.4772 27.7392 37.4503 27.4164 37.3965 27.0936C38.4994 26.5555 39.3333 25.3719 39.3333 24ZM16.3333 26.3941C16.3333 25.076 17.4094 24 18.7275 24C20.0456 24 21.1216 25.076 21.1216 26.3941C21.1216 27.7123 20.0456 28.7883 18.7275 28.7883C17.4094 28.7883 16.3333 27.7123 16.3333 26.3941ZM29.7029 32.7158C28.062 34.3567 24.9415 34.4643 24.0269 34.4643C23.1123 34.4643 19.9649 34.3298 18.3509 32.7158C18.1088 32.4737 18.1088 32.0702 18.3509 31.8281C18.593 31.586 18.9965 31.586 19.2386 31.8281C20.2608 32.8503 22.4667 33.2269 24.0538 33.2269C25.6409 33.2269 27.8199 32.8503 28.869 31.8281C29.1111 31.586 29.5146 31.586 29.7567 31.8281C29.945 32.0971 29.945 32.4737 29.7029 32.7158ZM29.2725 28.7883C27.9544 28.7883 26.8784 27.7123 26.8784 26.3941C26.8784 25.076 27.9544 24 29.2725 24C30.5906 24 31.6667 25.076 31.6667 26.3941C31.6667 27.7123 30.5906 28.7883 29.2725 28.7883Z" fill="white"/>
</svg>
