<svg width="48" height="48" viewBox="0 0 48 48" fill="none" xmlns="http://www.w3.org/2000/svg">
<path d="M23.9996 2C10.7446 2 0 10.7986 0 21.6516C0 28.6688 4.49169 34.8254 11.2492 38.3029L8.80741 47.3348C8.80741 47.3348 8.75973 47.7579 9.0241 47.918C9.28851 48.0783 9.59622 47.9541 9.59622 47.9541C10.3503 47.8442 18.3507 42.0082 19.7376 40.9955C21.121 41.1989 22.546 41.3042 24.0004 41.3042C37.2554 41.3042 48 32.5055 48 21.6526C48 10.7996 37.2536 2 23.9996 2Z" fill="#ACACAC"/>
<path d="M9.86543 29.1818C9.12514 29.1818 8.52194 28.525 8.52194 27.7173V18.5947H6.4255C6.07636 18.5942 5.74161 18.4359 5.49442 18.1545C5.24723 17.873 5.10772 17.4913 5.10638 17.0928C5.10772 16.6943 5.24723 16.3126 5.49442 16.0312C5.74161 15.7497 6.07636 15.5914 6.4255 15.5909H13.3071C13.6562 15.5914 13.991 15.7497 14.2381 16.0312C14.4854 16.3126 14.6249 16.6943 14.6262 17.0928C14.6249 17.4913 14.4854 17.873 14.2381 18.1545C13.991 18.4359 13.6562 18.5942 13.3071 18.5947H11.2081V27.7173C11.2081 28.524 10.6058 29.1818 9.86461 29.1818H9.86543ZM21.6491 29.1626C21.0889 29.1626 20.6598 28.9033 20.5302 28.4846L19.8657 26.4969H15.7686L15.1041 28.4866C14.9753 28.9033 14.5472 29.1626 13.9868 29.1626C13.6924 29.1626 13.4005 29.0906 13.1329 28.9514C12.7628 28.7564 12.4061 28.2196 12.8132 26.7734L16.0269 17.1158C16.254 16.3813 16.9413 15.6245 17.8163 15.6015C18.6938 15.6235 19.3811 16.3813 19.6082 17.1168L22.8219 26.7695C23.2308 28.21 22.8749 28.7574 22.5038 28.9494C22.2346 29.0887 21.9444 29.1607 21.6499 29.1607L21.6491 29.1626ZM19.1589 23.7792L17.8172 19.4263L16.4753 23.7792H19.1589ZM24.9839 28.9581C24.2739 28.9581 23.6968 28.3272 23.6968 27.5522V17.1332C23.6968 16.2881 24.3126 15.5996 25.0681 15.5996C25.8235 15.5996 26.4393 16.2871 26.4393 17.1332V26.1445H29.2954C30.0055 26.1445 30.5826 26.7754 30.5826 27.5503C30.5826 28.3253 30.0046 28.9561 29.2954 28.9561L24.9839 28.9581ZM32.4493 29.1616C32.0932 29.1609 31.7519 28.9991 31.5002 28.7117C31.2483 28.4242 31.1066 28.0345 31.1058 27.6281V17.135C31.1066 16.7286 31.2483 16.3389 31.5002 16.0515C31.7519 15.764 32.0932 15.6022 32.4493 15.6015C32.8054 15.6022 33.1469 15.764 33.3986 16.0515C33.6505 16.3389 33.7922 16.7286 33.7929 17.135V20.4317L37.5424 16.1517C37.6408 16.0415 37.7573 15.9546 37.8852 15.8961C38.0131 15.8376 38.15 15.8086 38.2878 15.8108C38.6243 15.8108 38.9608 15.976 39.2132 16.2641C39.4488 16.533 39.5893 16.8787 39.6086 17.2369C39.628 17.595 39.5228 17.9301 39.3125 18.1712L36.2502 21.6667L39.5581 26.6697C39.7735 26.9943 39.8669 27.4034 39.8164 27.8057C39.766 28.2081 39.5808 28.574 39.2948 28.817C39.0624 29.0185 38.7783 29.1271 38.4863 29.1261C38.064 29.1281 37.6661 28.9024 37.4128 28.5164L34.2615 23.7495L33.7954 24.2815V27.6281C33.795 28.035 33.6532 28.4249 33.4012 28.7126C33.1491 29.0002 32.8075 29.1621 32.4511 29.1626L32.4493 29.1616Z" fill="white"/>
</svg>
