<svg xmlns="http://www.w3.org/2000/svg" id="icon_deleteacc" width="30" height="30" viewBox="0 0 30 30">
    <defs>
        <style>
            .cls-2{fill:#fff}
        </style>
    </defs>
    <path id="Rectangle_451" fill="none" d="M0 0H30V30H0z" transform="rotate(90 15 15)"/>
    <g id="Group_524" transform="translate(-35.875 44.5)">
        <path id="Path_465" d="M49.833-31.833a2.336 2.336 0 0 0 2.333-2.333 2.336 2.336 0 0 0-2.333-2.334 2.336 2.336 0 0 0-2.333 2.333 2.336 2.336 0 0 0 2.333 2.334zm0-3.733a1.4 1.4 0 0 1 1.4 1.4 1.4 1.4 0 0 1-1.4 1.4 1.4 1.4 0 0 1-1.4-1.4 1.4 1.4 0 0 1 1.4-1.401z" class="cls-2" transform="translate(-.242)"/>
        <path id="Path_466" d="M54.767-28.5c-.094 0-.182.02-.274.028a3.244 3.244 0 0 0-1.068.268 3.267 3.267 0 0 0-1.925 2.971 3.27 3.27 0 0 0 3.267 3.267 3.27 3.27 0 0 0 3.267-3.267 3.27 3.27 0 0 0-3.267-3.267zm0 5.6a2.336 2.336 0 0 1-2.333-2.333 2.33 2.33 0 0 1 1.7-2.234 2.308 2.308 0 0 1 .636-.1 2.388 2.388 0 0 1 .466.047 2.337 2.337 0 0 1 1.864 2.287 2.336 2.336 0 0 1-2.333 2.333z" class="cls-2" transform="translate(-.508 -.533)"/>
        <path id="Path_467" d="M56.16-25.7a.468.468 0 0 0 0-.661.469.469 0 0 0-.331-.136.471.471 0 0 0-.329.136l-.446.446-.154.154-.6-.6a.468.468 0 0 0-.661 0 .468.468 0 0 0 0 .661l.6.6-.6.6a.468.468 0 0 0 0 .661.469.469 0 0 0 .33.136.469.469 0 0 0 .33-.136l.6-.6.6.6a.491.491 0 0 0 .152.1.471.471 0 0 0 .178.035.471.471 0 0 0 .178-.035.491.491 0 0 0 .152-.1.491.491 0 0 0 .1-.152.471.471 0 0 0 .035-.178.469.469 0 0 0-.136-.33l-.6-.6.549-.549z" class="cls-2" transform="translate(-.642 -.667)"/>
        <path id="Path_468" d="M49.592-24.9h-3.637a1.123 1.123 0 0 1-.955-.522 1.188 1.188 0 0 1-.077-1.139 5.149 5.149 0 0 1 4.673-3.006 5.092 5.092 0 0 1 2.083.443.965.965 0 0 0 .784.02l.23-.1c.224-.107.243-.311-.037-.467a6.044 6.044 0 0 0-3.059-.829 6.085 6.085 0 0 0-5.523 3.552 2.117 2.117 0 0 0 .315 2.264 2.185 2.185 0 0 0 1.674.717h3.533a.467.467 0 0 0 .467-.467.467.467 0 0 0-.471-.466z" class="cls-2" transform="translate(0 -.4)"/>
    </g>
</svg>
