<svg xmlns="http://www.w3.org/2000/svg" width="30" height="30" viewBox="0 0 30 30">
    <g>
        <path fill="none" d="M0 0H30V30H0z" transform="translate(-60 -347) rotate(90 -128.5 218.5)"/>
        <path fill="#727cf5" d="M52.385 23.5H40.538a.539.539 0 0 0-.538.538v1.615a.539.539 0 0 0 .538.538h1.114a4.4 4.4 0 0 0 1.969 3.209c.57.453.867.709.867 1.1s-.3.646-.867 1.1a4.4 4.4 0 0 0-1.969 3.208h-1.114a.539.539 0 0 0-.538.538v1.615a.539.539 0 0 0 .538.538h11.847a.539.539 0 0 0 .538-.538v-1.615a.539.539 0 0 0-.538-.538h-1.114A4.4 4.4 0 0 0 49.3 31.6c-.57-.453-.867-.709-.867-1.1s.3-.646.867-1.1a4.4 4.4 0 0 0 1.969-3.208h1.114a.539.539 0 0 0 .538-.538v-1.616a.539.539 0 0 0-.536-.538zm-.538 12.923h-10.77v-.538h10.769zm-3.214-7.865a2.51 2.51 0 0 0-1.274 1.942 2.51 2.51 0 0 0 1.274 1.942 3.38 3.38 0 0 1 1.567 2.366h-7.47a3.38 3.38 0 0 1 1.564-2.366 2.51 2.51 0 0 0 1.27-1.942 2.51 2.51 0 0 0-1.274-1.942 3.38 3.38 0 0 1-1.564-2.366H50.2a3.38 3.38 0 0 1-1.567 2.366zm3.214-3.443h-10.77v-.538h10.769z" transform="translate(-60 -347) translate(29 331.5)"/>
    </g>
</svg>
