<svg xmlns="http://www.w3.org/2000/svg" width="58.55" height="16" viewBox="0 0 58.55 16">
    <defs>
        <style>
            .cls-1{fill:#004497}
        </style>
    </defs>
    <g id="icon_company_sepa" transform="translate(-5.091 -3.468)">
        <path id="Path_311" d="M18.1 8.923h-4.007a2.577 2.577 0 0 0-.231-1.323q-.358-.5-1.973-.5a4.877 4.877 0 0 0-2.078.287q-.511.29-.511 1.255a1.249 1.249 0 0 0 .45 1.15 1.875 1.875 0 0 0 .854.23l.808.057q2.6.172 3.244.242a4.953 4.953 0 0 1 2.978 1.092 2.894 2.894 0 0 1 .866 1.805 12.613 12.613 0 0 1 .081 1.506 7.967 7.967 0 0 1-.369 2.829 3.656 3.656 0 0 1-3.007 2.081 17.684 17.684 0 0 1-3 .184 18.462 18.462 0 0 1-4.69-.4 3.059 3.059 0 0 1-2.144-2 9.485 9.485 0 0 1-.288-2.79H9.1v.333q0 1.039.6 1.339a2.347 2.347 0 0 0 1 .218h1.47a5.329 5.329 0 0 0 1.438-.116 1.172 1.172 0 0 0 .725-.7 2.672 2.672 0 0 0 .092-.77q0-1.056-.771-1.287a24.019 24.019 0 0 0-2.68-.253q-1.921-.137-2.668-.265a3.558 3.558 0 0 1-2.622-1.516 5.96 5.96 0 0 1-.574-2.95 7.646 7.646 0 0 1 .311-2.413 2.642 2.642 0 0 1 1-1.379 5.077 5.077 0 0 1 2.591-.85q1.316-.119 2.917-.119a15.577 15.577 0 0 1 3.594.288q2.615.7 2.615 3.936c0 .181-.013.446-.038.799z" class="cls-1" data-name="Path 311" transform="translate(0 -.351)"/>
        <path id="Path_312" d="M162.861 19.468v-16h8.023a8.964 8.964 0 0 1 2.517.269 3.909 3.909 0 0 1 2.658 2.539 9.808 9.808 0 0 1 .351 3.032 11.286 11.286 0 0 1-.387 3.5 3.6 3.6 0 0 1-3.173 2.423q-.282.047-2.4.082l-.715.024h-2.567v4.131zm4.306-7.842h2.685a4.8 4.8 0 0 0 1.555-.2 1.151 1.151 0 0 0 .51-.84A7.069 7.069 0 0 0 172 9.339a5.147 5.147 0 0 0-.162-1.506 1.285 1.285 0 0 0-1.113-.84q-.174-.023-.835-.023h-2.721z" class="cls-1" data-name="Path 312" transform="translate(-127.145)"/>
        <path id="Path_313" d="M234.406 16.7h-5.758l-.774 2.765h-4.454l4.807-16h6.5l4.866 16h-4.362zm-.855-3.117l-2.018-6.933-1.958 6.936z" class="cls-1" data-name="Path 313" transform="translate(-175.949)"/>
        <path id="Path_314" fill="#ffb300" d="M88.063 6.311a5.661 5.661 0 0 1 4.4 2.1l.928-1.99A8.159 8.159 0 0 0 80.3 9.152h-1.81l-1.069 2.291h2.329c-.017.213-.029.425-.029.642a7.708 7.708 0 0 0 .04.779h-1.17l-1.069 2.292h2.834a8.075 8.075 0 0 0 7.431 4.812 8.16 8.16 0 0 0 4.539-1.368v-2.806a5.665 5.665 0 0 1-9.01-.638h5.934l1.069-2.292h-7.877a5.8 5.8 0 0 1-.062-.845c0-.194.01-.386.029-.576h8.571l1.069-2.291h-8.9a5.674 5.674 0 0 1 4.914-2.841z" data-name="Path 314" transform="translate(-58.291 -.592)"/>
    </g>
</svg>
