<svg width="48" height="48" viewBox="0 0 48 48" fill="none" xmlns="http://www.w3.org/2000/svg">
<path d="M46 2H2V46H46V2Z" fill="#ACACAC"/>
<path d="M12.5 16.7153C12.5366 16.3525 12.3983 15.9938 12.1273 15.7496L9.36744 12.4248V11.9282H17.9371L24.5609 26.4552L30.3845 11.9282H38.5538V12.4248L36.1941 14.6874C35.9906 14.8425 35.8896 15.0973 35.9318 15.3496V31.9735C35.8896 32.2257 35.9906 32.4807 36.1941 32.6358L38.4986 34.8982V35.3949H26.9069V34.8982L29.2941 32.5805C29.5289 32.346 29.5289 32.277 29.5289 31.9184V18.4812L22.8912 35.3396H21.9942L14.2663 18.4812V29.78C14.2019 30.255 14.3597 30.7333 14.6942 31.0768L17.799 34.8429V35.3396H8.99484V34.8429L12.0998 31.0768C12.4318 30.7327 12.5804 30.2512 12.5 29.78V16.7153Z" fill="white"/>
</svg>
