<svg xmlns="http://www.w3.org/2000/svg" id="prefix__icon_visible_off" width="20" height="20" viewBox="0 0 20 20">
    <path id="prefix__Path_21" fill="#929398" d="M59.5 2h-15A2.448 2.448 0 0 0 42 4.5v15a2.448 2.448 0 0 0 2.5 2.5h15a2.448 2.448 0 0 0 2.5-2.5v-15A2.448 2.448 0 0 0 59.5 2z" data-name="Path 21" transform="translate(-42 -2)"/>
    <path id="prefix__Path_22" fill="#fff" d="M57.142 9.973a5.83 5.83 0 0 0-2.434-1.405l2.228-2.224a.625.625 0 0 0-.884-.885l-2.77 2.765a11.948 11.948 0 0 0-2.066-.184c-4.21 0-5.859 1.854-5.926 1.933a.625.625 0 0 0 .942.821A5.229 5.229 0 0 1 48.5 9.643a3.092 3.092 0 0 0-.42 1.537 3.128 3.128 0 0 0 .52 1.72l-3.112 3.108a.625.625 0 0 0 .884.885l3.11-3.105a3.136 3.136 0 0 0 4.879-2.611 3.092 3.092 0 0 0-.42-1.537 5.2 5.2 0 0 1 2.259 1.147.631.631 0 0 0 .474.216.618.618 0 0 0 .409-.153.625.625 0 0 0 .059-.877zm-7.816 1.207a1.892 1.892 0 0 1 1.89-1.89 1.856 1.856 0 0 1 .81.19l-2.511 2.507a1.866 1.866 0 0 1-.19-.806zm1.89 1.89a1.864 1.864 0 0 1-.82-.2l2.516-2.512a1.87 1.87 0 0 1 .194.818 1.892 1.892 0 0 1-1.891 1.895z" data-name="Path 22" transform="translate(-41.215 -1.181)"/>
</svg>
