<svg xmlns="http://www.w3.org/2000/svg" width="30" height="30" viewBox="0 0 30 30">
    <defs>
        <style>
            .cls-2{fill:#727cf5}
        </style>
    </defs>
    <g id="icon_logout" transform="translate(-60 -347)">
        <path id="Rectangle_451" fill="none" d="M0 0H30V30H0z" transform="rotate(90 -128.5 218.5)"/>
        <g id="Group_523" transform="translate(65.5 392)">
            <path id="Path_463" d="M13-24.5H4.5v-11H13a.5.5 0 0 0 .5-.5.5.5 0 0 0-.5-.5H4a.5.5 0 0 0-.5.5v12a.5.5 0 0 0 .5.5h9a.5.5 0 0 0 .5-.5.5.5 0 0 0-.5-.5z" class="cls-2"/>
            <path id="Path_464" d="M16.462-29.809a.505.505 0 0 0 0-.382.518.518 0 0 0-.109-.163l-3-3a.5.5 0 0 0-.708 0 .5.5 0 0 0 0 .708l2.148 2.146H10a.5.5 0 0 0-.5.5.5.5 0 0 0 .5.5h4.793l-2.147 2.146a.5.5 0 0 0 0 .708.5.5 0 0 0 .354.146.5.5 0 0 0 .354-.146l3-3a.518.518 0 0 0 .108-.163z" class="cls-2"/>
        </g>
    </g>
</svg>
