<svg xmlns="http://www.w3.org/2000/svg" id="icon_notenoughlevel" width="60" height="60" viewBox="0 0 60 60">
    <defs>
        <style>
            .cls-1{fill:#231f20}.cls-2{fill:#ff7097}
        </style>
    </defs>
    <g id="Group_423" data-name="Group 423" transform="translate(1)">
        <path id="Path_372" d="M17.5 23.5a10 10 0 1 0-10-10 10.011 10.011 0 0 0 10 10zm0-16a6 6 0 1 1-6 6 6.007 6.007 0 0 1 6-6z" class="cls-1" data-name="Path 372" transform="translate(7 -3.5)"/>
        <path id="Path_373" d="M25.5 11.5c-.4 0-.78.084-1.176.12a13.264 13.264 0 1 0 1.176-.12zm0 24a9.974 9.974 0 0 1-2.724-19.576A9.891 9.891 0 0 1 25.5 15.5a10.235 10.235 0 0 1 2 .2 10 10 0 0 1-2 19.8z" class="cls-2" data-name="Path 373" transform="translate(19 20.5)"/>
        <path id="Path_374" d="M24.9 16.929l.016-.012a2 2 0 0 0-2.832-2.832l-.012.016-1.912 1.912-.66.66-2.571-2.573-.012-.016a2 2 0 0 0-2.832 2.832l.016.012 2.572 2.572-2.573 2.573-.016.012a2 2 0 0 0 2.832 2.832l.012-.016 2.572-2.572 2.573 2.571.012.012a2.106 2.106 0 0 0 .652.432 2 2 0 0 0 1.528 0 1.966 1.966 0 0 0 1.084-1.084 2 2 0 0 0-.432-2.18l-.016-.012-2.572-2.568 2.352-2.352z" class="cls-2" data-name="Path 374" transform="translate(25 26.499)"/>
        <path id="Path_375" d="M28.375 33.5H12.791a4.811 4.811 0 0 1-4.112-2.236 5.089 5.089 0 0 1-.332-4.88A22.068 22.068 0 0 1 28.375 13.5a21.824 21.824 0 0 1 8.925 1.9 4.135 4.135 0 0 0 3.36.084l.984-.432c.96-.46 1.04-1.332-.16-2A26 26 0 0 0 4.707 24.724a9.072 9.072 0 0 0 1.352 9.7 9.365 9.365 0 0 0 7.176 3.076h15.14a2 2 0 1 0 0-4z" class="cls-1" data-name="Path 375" transform="translate(-3.875 14.5)"/>
    </g>
    <path id="Rectangle_528" fill="none" d="M0 0H60V60H0z" data-name="Rectangle 528"/>
</svg>
