<svg xmlns="http://www.w3.org/2000/svg" width="30" height="30" viewBox="0 0 30 30">
    <path fill="none" d="M0 0H30V30H0z" transform="rotate(90 15 15)"/>
    <path fill="#fff" d="M.95 10.164a2.763 2.763 0 0 0 .764-1.9 2.771 2.771 0 0 0-2.06-2.67V4.038A.538.538 0 0 0-.885 3.5a.539.539 0 0 0-.538.538v1.449h-1.336V4.038A.539.539 0 0 0-3.3 3.5a.539.539 0 0 0-.538.538v1.449h-2.124a.538.538 0 0 0-.538.538.539.539 0 0 0 .538.538h.87v7.872h-.87a.539.539 0 0 0-.538.538.538.538 0 0 0 .538.538h2.126v1.448a.539.539 0 0 0 .536.541.539.539 0 0 0 .538-.538v-1.449h1.335v1.448a.539.539 0 0 0 .538.538.538.538 0 0 0 .538-.538v-1.448h.268A2.779 2.779 0 0 0 2.7 12.738a2.777 2.777 0 0 0-1.75-2.574zm-.313-1.9a1.7 1.7 0 0 1-1.7 1.7h-2.951v-3.4h2.952A1.7 1.7 0 0 1 .637 8.262zm-.715 6.174h-3.936v-3.4h3.936a1.7 1.7 0 0 1 1.7 1.7 1.7 1.7 0 0 1-1.7 1.698z" transform="translate(16.5 4.5)"/>
</svg>
