<svg width="48" height="48" viewBox="0 0 48 48" fill="none" xmlns="http://www.w3.org/2000/svg">
<path d="M24 47C36.7025 47 47 36.7025 47 24C47 11.2975 36.7025 1 24 1C11.2975 1 1 11.2975 1 24C1 36.7025 11.2975 47 24 47Z" fill="#ACACAC"/>
<path d="M35.8052 13.7832L31.4519 36.0096C31.4519 36.0096 31.2648 37.0253 30.0051 37.0253C29.3357 37.0253 28.9906 36.7068 28.9906 36.7068L19.5612 28.8824L14.9477 26.557L9.02673 24.9824C9.02673 24.9824 7.9727 24.6779 7.9727 23.8063C7.9727 23.08 9.05694 22.7337 9.05694 22.7337L33.8284 12.893C33.8272 12.8918 34.5849 12.6199 35.1369 12.6211C35.4763 12.6211 35.8633 12.7663 35.8633 13.2021C35.8633 13.4926 35.8052 13.7832 35.8052 13.7832Z" fill="white"/>
<path d="M18.6927 35.8039H18.6925C18.6324 35.8056 18.5693 35.7981 18.5044 35.7753L19.601 28.9897L22.9933 31.8053L19.0607 35.6783L19.0571 35.6808C19.0526 35.684 19.0458 35.6888 19.0366 35.6945C19.0185 35.706 18.9918 35.7217 18.9582 35.7376C18.8907 35.7695 18.7977 35.8013 18.6927 35.8039Z" fill="white" stroke="#C6C6C6" stroke-width="0.12"/>
<path d="M30.3102 17.439L30.3104 17.4393L30.3156 17.4355C30.5459 17.2606 30.872 17.3025 31.0488 17.5324C31.2236 17.7628 31.1805 18.09 30.9506 18.2644L30.9505 18.2642L30.9464 18.2681L19.5206 28.8386L19.5058 28.8522L19.5027 28.8719L18.3951 35.7252C18.3684 35.7046 18.3324 35.6707 18.2887 35.6151C18.1731 35.4676 18.0072 35.1713 17.8211 34.5814C17.6342 33.9873 16.9286 31.9779 16.2704 30.1187C15.9411 29.1886 15.6235 28.2956 15.3882 27.6352C15.2707 27.3049 15.1735 27.0329 15.1059 26.8433L15.0276 26.6239L15.0161 26.5917L30.3102 17.439Z" fill="white" stroke="#C6C6C6" stroke-width="0.12"/>
</svg>
