<svg width="48" height="48" viewBox="0 0 48 48" fill="none" xmlns="http://www.w3.org/2000/svg">
<path d="M47.906 8.64581C46.1361 9.42377 44.2462 9.95375 42.2562 10.1957C44.2842 8.97379 45.8441 7.04787 46.5821 4.74997C44.6801 5.85992 42.5722 6.66789 40.3283 7.11787C38.5364 5.19995 35.9825 4 33.1466 4C27.7128 4 23.307 8.40582 23.307 13.8336C23.307 14.6136 23.397 15.3635 23.561 16.0815C15.3814 15.6955 8.13166 11.7677 3.27986 5.82992C2.4259 7.27386 1.94792 8.95179 1.94792 10.7797C1.94792 14.1996 3.68785 17.2054 6.32374 18.9714C4.7098 18.9194 3.19187 18.4754 1.86792 17.7394V17.8614C1.86792 22.6312 5.25378 26.6091 9.75959 27.515C8.93363 27.737 8.06166 27.857 7.1677 27.857C6.53973 27.857 5.93775 27.797 5.33578 27.685C6.59773 31.5908 10.2256 34.4387 14.5434 34.5187C11.1835 37.1566 6.92571 38.7286 2.3399 38.7286C1.55993 38.7286 0.781967 38.6826 0 38.5946C4.37782 41.3824 9.5356 43.0124 15.1134 43.0124C33.2206 43.0124 43.1102 28.021 43.1102 15.0415C43.1102 14.6236 43.1102 14.2016 43.0802 13.7816C45.0021 12.4036 46.6801 10.6617 48 8.68581L47.906 8.64581Z" fill="#ACACAC"/>
</svg>
