<svg xmlns="http://www.w3.org/2000/svg" id="prefix__icon_modify" width="20" height="20" viewBox="0 0 20 20">
    <path id="prefix__icon_modify-2" fill="#727cf5" d="M19.5 2h-15A2.448 2.448 0 0 0 2 4.5v15A2.448 2.448 0 0 0 4.5 22h15a2.448 2.448 0 0 0 2.5-2.5v-15A2.448 2.448 0 0 0 19.5 2zM6.523 17.478l.564-2.816 2.253 2.253zM9.9 16.351L7.649 14.1l5.632-5.633 2.252 2.253zm7.15-7.15l-.955.955L13.844 7.9l.955-.955a1.2 1.2 0 0 1 1.7 0l.552.553a1.2 1.2 0 0 1 0 1.702z" data-name="icon_modify" transform="translate(-2 -2)"/>
</svg>
