<svg xmlns="http://www.w3.org/2000/svg" id="icon_help" width="24" height="24" viewBox="0 0 24 24">
    <g id="Rectangle_516" fill="#fff" stroke="#e5e5e5" data-name="Rectangle 516">
        <rect width="24" height="24" stroke="none" rx="12"/>
        <rect width="23" height="23" x=".5" y=".5" fill="none" rx="11.5"/>
    </g>
    <path id="Path_325" fill="#030504" d="M508.16 326.209a3.6 3.6 0 0 1 .086-1.25 2.853 2.853 0 0 1 .38-.841 3.005 3.005 0 0 1 .524-.588c.191-.165.371-.324.538-.48a2.349 2.349 0 0 0 .423-.518 1.362 1.362 0 0 0 .172-.711 1.444 1.444 0 0 0-.273-.9 1.025 1.025 0 0 0-.875-.363 1.329 1.329 0 0 0-.99.4 1.879 1.879 0 0 0-.445 1.217h-1.794a3.764 3.764 0 0 1 .38-1.517 3.034 3.034 0 0 1 .789-.984 2.729 2.729 0 0 1 1.026-.511 3.664 3.664 0 0 1 1.091-.117 4.354 4.354 0 0 1 1.184.213 2.913 2.913 0 0 1 .954.518 2.4 2.4 0 0 1 .632.815 2.492 2.492 0 0 1 .229 1.094 2.965 2.965 0 0 1-.187 1.148 2.434 2.434 0 0 1-.466.73 3.783 3.783 0 0 1-.6.513 4.253 4.253 0 0 0-.581.485 2.007 2.007 0 0 0-.581 1.647zm.818 3.609a1.26 1.26 0 0 1-.933-.376 1.36 1.36 0 0 1 0-1.872 1.256 1.256 0 0 1 .933-.376 1.312 1.312 0 1 1 0 2.623z" data-name="Path 325" transform="translate(-497.05 -312.43)"/>
</svg>
