<svg xmlns="http://www.w3.org/2000/svg" width="60" height="64" viewBox="0 0 60 64">
    <defs>
        <style>
            .cls-1{fill:#ff7097}
        </style>
    </defs>
    <g id="icon_needexternalwallet" transform="translate(-3.5 -2.275)">
        <g id="Group_425" data-name="Group 425" transform="translate(35.888 38.663)">
            <path id="Path_376" d="M31.223 12.885a13.57 13.57 0 0 0-3.945-1.185 13.583 13.583 0 0 0-1.972-.2c-.4 0-.769.083-1.16.118a13.641 13.641 0 0 0-10.78 20.492 13.887 13.887 0 0 0 3.384 3.945 13.674 13.674 0 0 0 8.556 3.057 13.774 13.774 0 0 0 5.917-26.227zm-5.8 22.271c-.039 0-.079.012-.118.012a9.863 9.863 0 0 1 0-19.723 10.093 10.093 0 0 1 1.968.2 10.007 10.007 0 0 1 7.889 9.66 9.866 9.866 0 0 1-9.738 9.85z" class="cls-1" data-name="Path 376" transform="translate(-11.5 -11.5)"/>
            <path id="Path_377" d="M24.7 16.921l.039-.039.016-.012a1.975 1.975 0 0 0-2.793-2.793l-.012.016-.043.043-.521.521-1.321 1.321-.651.651-2.454-2.458-.079-.079-.012-.016a1.975 1.975 0 0 0-2.793 2.793l.016.012.051.051 2.485 2.485-2.536 2.536-.016.012a1.975 1.975 0 0 0 2.793 2.793l.012-.016 2.536-2.536 1.116 1.116 1.42 1.42.012.012a2.077 2.077 0 0 0 .643.426 1.789 1.789 0 0 0 1.369.028c.043-.016.095-.012.138-.028a1.939 1.939 0 0 0 1.069-1.069 1.99 1.99 0 0 0 .15-.753 1.947 1.947 0 0 0-.252-.9 2.009 2.009 0 0 0-.323-.493l-.016-.012-2.536-2.536 2.319-2.317z" class="cls-1" data-name="Path 377" transform="translate(-5.612 -5.612)"/>
        </g>
        <path id="Path_378" fill="#231f20" d="M54.825 25.867a9.869 9.869 0 0 0-1.271-2.1 10.035 10.035 0 0 0-7.909-3.933h-6.068V9.785c0-3.164-1.13-5.649-3.1-6.824a5.434 5.434 0 0 0-5.5.126L4.41 20.148c-.048.028-.068.083-.112.118a1.909 1.909 0 0 0-.433.462 2.436 2.436 0 0 0-.144.209 1.947 1.947 0 0 0-.22.864v39.445a1.9 1.9 0 0 0 .257.911 1.7 1.7 0 0 0 .14.205 1.945 1.945 0 0 0 .541.509c.044.028.064.083.112.107.024.016.052.008.076.02a2.035 2.035 0 0 0 .878.221h27.442a1.973 1.973 0 1 0 0-3.945H7.509v-35.5h38.085c.088 0 .172.02.261.024a5.956 5.956 0 0 1 5.745 5.888v5.234a2 2 0 0 0 4.009 0v-5.234a9.647 9.647 0 0 0-.784-3.819zM35.568 13.911v5.917H12.239l20.768-13.34a1.438 1.438 0 0 1 1.395-.15c.541.32 1.166 1.416 1.166 3.448z" data-name="Path 378"/>
    </g>
</svg>
