<svg xmlns="http://www.w3.org/2000/svg" width="106.113" height="20" viewBox="0 0 106.113 20">
    <g id="icon_company_flutterwave" transform="translate(.271 -.64)">
        <path id="Path_382" fill="#f5a623" d="M13.342 9.141c2.575-2.1 7.835-9.685-.4-8.343-3.591.544-8.851 4.026-9.9 8.053a33.274 33.274 0 0 0-1.814-3.12C.211 4.353-.914 5.441.175 6.819a23.215 23.215 0 0 1 5.3 13.82 20.364 20.364 0 0 0-1.124-8.307 5.272 5.272 0 0 0 1.487.218 14.9 14.9 0 0 0 7.11 6.2c2.648 1.052 6.167.435 4.716-3.809a13.317 13.317 0 0 0-4.322-5.8zm.358-7.364c4.571-.508-.326 5.187-1.923 6.239a7.94 7.94 0 0 0-5.187-1.6c1.31-1.7 4.503-4.316 7.11-4.639zM6.559 7.654a6.009 6.009 0 0 1 3.627 1.306 9.141 9.141 0 0 1-3.228.907C5.289 9.866 4.926 7.8 6.559 7.654zM12.87 16.5a12.52 12.52 0 0 1-5.622-4.1 11.45 11.45 0 0 0 3.482-1.378 7.75 7.75 0 0 0 1.161-.725 10.4 10.4 0 0 1 3.12 4.5c.507 1.925-.871 2.07-2.141 1.703z" data-name="Path 382"/>
        <path id="Path_383" d="M680.674 89.508h-6.239a.4.4 0 0 0-.4.4H674V99.7a.4.4 0 0 0 .4.4.46.46 0 0 0 .4-.4v-4.425h5.3a.333.333 0 0 0 .326-.363.3.3 0 0 0-.326-.326h-5.332V90.27h5.913a.333.333 0 0 0 .326-.363c-.007-.107-.115-.254-.333-.399zM683.54 89h-.04a.3.3 0 0 0-.29.326v10.339a.328.328 0 1 0 .653 0V89.4c.004-.255-.105-.4-.323-.4zm9.032 3.7a.328.328 0 1 0-.653 0v4.317a2.5 2.5 0 0 1-2.5 2.575c-1.451 0-2.285-1.016-2.285-2.612V92.7a.335.335 0 0 0-.326-.363.388.388 0 0 0-.327.363v4.389a2.864 2.864 0 0 0 2.866 3.156 2.826 2.826 0 0 0 2.612-1.6v1.124a.326.326 0 0 0 .653 0h-.036zm5.985.363a.351.351 0 0 0 .326-.326.385.385 0 0 0-.326-.326h-2.285V90.27a.388.388 0 0 0-.326-.363h-.036a.33.33 0 0 0-.29.363v2.14h-.8a.3.3 0 0 0-.327.29.358.358 0 0 0 .327.363h.8v5.006a1.906 1.906 0 0 0 1.959 2.1 3.371 3.371 0 0 0 1.052-.181.417.417 0 0 0 .218-.326.286.286 0 0 0-.29-.29 3.092 3.092 0 0 1-.834.109A1.3 1.3 0 0 1 696.272 98v-4.937zm5.622 0a.325.325 0 0 0 .326-.326.351.351 0 0 0-.326-.326h-2.285V90.27a.358.358 0 0 0-.326-.363h-.036a.33.33 0 0 0-.29.363v2.14h-.8a.318.318 0 0 0-.327.29.389.389 0 0 0 .327.363h.8v5.006a1.915 1.915 0 0 0 2 2.1 3.332 3.332 0 0 0 1.016-.181.349.349 0 0 0 .218-.326.267.267 0 0 0-.29-.29 3.093 3.093 0 0 1-.834.109A1.3 1.3 0 0 1 701.895 98v-4.937zm4.969-.871c-1.922 0-3.373 1.741-3.373 4.026v.036c0 2.43 1.6 4.026 3.519 4.026a3.45 3.45 0 0 0 2.757-1.233.314.314 0 0 0 .145-.254.388.388 0 0 0-.326-.363l-.218.073a3.119 3.119 0 0 1-2.321 1.088 2.967 2.967 0 0 1-2.829-3.011h5.659a.389.389 0 0 0 .327-.363c-.001-2.284-1.307-4.025-3.339-4.025zm-2.684 3.664a2.917 2.917 0 0 1 2.648-2.974c1.632 0 2.5 1.415 2.576 2.974zm11.572-3.556a3.387 3.387 0 0 0-2.866 2.322v-1.886a.385.385 0 0 0-.326-.326.333.333 0 0 0-.363.326v7.11a.358.358 0 0 0 .327.363.389.389 0 0 0 .363-.363v-2.829c0-2.5 1.342-3.7 2.866-3.881h.036a.366.366 0 0 0 .326-.4c.001-.254-.145-.436-.363-.436z" data-name="Path 383" transform="translate(-649.812 -85.155)"/>
        <path id="Path_384" d="M1954.193 167.013a1.075 1.075 0 0 0-1.016.871l-1.233 4.135-1.2-4.135a1.166 1.166 0 0 0-1.125-.907h-.109a1.1 1.1 0 0 0-1.125.907l-1.2 4.063-1.161-4.1a1.157 1.157 0 0 0-1.052-.871h-.036a.987.987 0 0 0-.943 1.052l.073.544 1.85 5.695a1.31 1.31 0 0 0 1.2 1.016h.073a1.26 1.26 0 0 0 1.161-.979l1.2-4.063 1.2 4.063a1.227 1.227 0 0 0 1.161.979h.109a1.233 1.233 0 0 0 1.2-1.016l1.85-5.768.109-.435v-.036a.984.984 0 0 0-.986-1.015zm5.332 0a6.975 6.975 0 0 0-2.43.4.9.9 0 0 0-.508.871.856.856 0 0 0 .907.907.488.488 0 0 0 .29-.073 5.087 5.087 0 0 1 1.487-.218c1.088 0 1.632.508 1.632 1.487v.109a5.34 5.34 0 0 0-1.85-.29c-1.777 0-3.011.834-3.011 2.612a2.428 2.428 0 0 0 2.575 2.467 2.929 2.929 0 0 0 2.285-1.016 1 1 0 0 0 1.015.979 1.093 1.093 0 0 0 1.052-1.125V170.5a3.765 3.765 0 0 0-.834-2.539 3.63 3.63 0 0 0-2.61-.948zm1.415 5.26c0 .871-.726 1.415-1.7 1.378-.689 0-1.161-.363-1.161-.979v-.036c0-.689.58-1.124 1.487-1.124a3.821 3.821 0 0 1 1.378.326zm9.4-5.3a1 1 0 0 0-.979.8l-1.668 4.679-1.6-4.643a1.08 1.08 0 0 0-1.052-.834 1.1 1.1 0 0 0-1.052 1.052 1.521 1.521 0 0 0 .145.544l2.322 5.695a1.31 1.31 0 0 0 1.2 1.016h.145a1.473 1.473 0 0 0 1.233-.979l2.249-5.7.109-.544v-.036a1.03 1.03 0 0 0-1.057-1.046zm5.623-.036a3.887 3.887 0 0 0-3.736 4.172v.363a3.859 3.859 0 0 0 3.954 3.809 3.968 3.968 0 0 0 2.612-.979.787.787 0 0 0 .29-.653v-.036a.862.862 0 0 0-.834-.907.679.679 0 0 0-.508.181 2.249 2.249 0 0 1-1.523.544 1.75 1.75 0 0 1-1.814-1.6h4.244a1.052 1.052 0 0 0 .943-1.124v-.181a3.584 3.584 0 0 0-3.634-3.585zm-1.633 3.555c.182-1.052.762-1.7 1.633-1.7s1.451.689 1.56 1.7z" data-name="Path 384" transform="translate(-1873.744 -160.266)"/>
    </g>
</svg>
