<svg width="48" height="48" viewBox="0 0 48 48" fill="none" xmlns="http://www.w3.org/2000/svg">
<path d="M24 47C36.7026 47 47 36.7025 47 24C47 11.2975 36.7026 1 24 1C11.2974 1 1 11.2975 1 24C1 36.7025 11.2974 47 24 47Z" fill="#ACACAC"/>
<path d="M18.9286 9.14285V14.0714H14V17.3572C14 17.3572 15.8821 17.3243 15.8521 17.3572C16.8598 17.3419 17.1807 18.0735 17.2851 18.5614V29.4048C17.2464 29.7131 17.2793 30.478 16.575 30.5C16.6075 30.5285 14 30.5 14 30.5V33.7857H17.563C18.1655 33.7638 18.3466 33.7857 18.9286 33.7857V38.7142H22.2143V33.7857H23.8229L23.8914 38.7142H27.1429L27.1086 33.7857C31.2868 33.4824 33.7143 31.4823 33.6867 28.0357C33.7143 24.8652 31.1788 23.1176 29.6071 23.1071C31.1785 23.1133 32.0714 21.4043 32.0714 19C32.0714 15.7142 29.804 14.0714 27.1429 14.0714V9.14285H23.8571V14.0714C23.2031 14.0714 22.8782 14.0474 22.2143 14.0714V9.14285H18.9286ZM22.2143 17.3572C25.5 17.3572 27.1429 17.3572 27.1429 19.8214C27.1429 22.2857 25.5 22.2857 22.2143 22.2857V17.3572ZM22.2143 25.5715C26.5943 25.5716 28.7862 25.2977 28.7857 28.0357C28.7862 30.7739 26.5943 30.5 22.2143 30.5V25.5715Z" fill="white"/>
</svg>
