<svg width="40" height="40" viewBox="0 0 40 40" fill="none" xmlns="http://www.w3.org/2000/svg">
<g clip-path="url(#clip0)">
<g filter="url(#filter0_d)">
<rect x="4.14169" y="13.4333" width="11.7583" height="11.7583" stroke="#727CF5" stroke-width="0.3"/>
<path d="M9.95357 14.7291C8.89123 14.7532 8.21868 15.1831 7.92968 15.8477C7.65406 16.481 7.71204 17.2775 7.90827 18.1061C7.80302 18.2301 7.7165 18.4041 7.7379 18.6654V18.6797C7.77626 18.9553 7.85921 19.1506 7.96446 19.288C8.01531 19.354 8.08666 19.3576 8.1491 19.3942C8.20351 19.7037 8.32661 19.998 8.46754 20.2299C8.47467 20.2638 8.48895 20.2942 8.50946 20.3218C8.50946 20.3218 8.53265 20.3512 8.538 20.3575C8.60936 20.4636 8.64415 20.6117 8.64415 20.7749C8.64415 20.9489 8.64147 21.1112 8.62274 21.2914C8.55495 21.4635 8.38548 21.6009 8.11342 21.7374C7.82978 21.881 7.45782 22.013 7.07963 22.1762C6.70232 22.3403 6.31877 22.5366 6.01104 22.8488C5.70331 23.1619 5.48299 23.5945 5.45177 24.1591L5.4375 24.3999H14.5267L14.5133 24.1591C14.4821 23.5945 14.2672 23.1627 13.9612 22.8488C13.6544 22.5357 13.2699 22.3403 12.8917 22.1762C12.5135 22.013 12.1398 21.8819 11.8508 21.7374C11.5716 21.5982 11.3968 21.4555 11.3201 21.278C11.3022 21.063 11.2987 20.8945 11.2987 20.7045C11.2987 20.5832 11.3406 20.4734 11.4119 20.3646C11.4137 20.3619 11.4173 20.3602 11.4191 20.3575C11.42 20.3557 11.4334 20.3432 11.4334 20.3432C11.4619 20.3138 11.4815 20.2772 11.4904 20.2371C11.6269 20.0016 11.7411 19.7028 11.7946 19.4013C11.8651 19.3647 11.9453 19.3603 11.9998 19.288C12.1086 19.1462 12.1728 18.9428 12.1978 18.6654C12.2183 18.4255 12.1496 18.2515 12.0426 18.1204C12.1603 17.7574 12.2995 17.1767 12.2549 16.5844C12.2299 16.2589 12.1443 15.9333 11.9507 15.6639C11.775 15.4195 11.4922 15.2527 11.1363 15.1751C10.8964 14.8549 10.4611 14.7291 9.9607 14.7291H9.95357ZM9.9607 15.1822C9.96338 15.1822 9.96516 15.1822 9.96784 15.1822C10.4201 15.184 10.71 15.3116 10.8036 15.473L10.8598 15.572L10.9731 15.5863C11.2853 15.6291 11.4557 15.7495 11.5823 15.9262C11.709 16.1019 11.7812 16.3481 11.8017 16.6192C11.8437 17.1633 11.6858 17.802 11.5823 18.0919L11.511 18.2828L11.6885 18.3755C11.6867 18.3818 11.7607 18.4567 11.7518 18.6226C11.7518 18.6262 11.7518 18.6262 11.7518 18.6297C11.7313 18.8429 11.676 18.9633 11.6385 19.0124C11.601 19.0614 11.5814 19.0543 11.5894 19.0543H11.3914L11.3629 19.2532C11.3236 19.5467 11.1747 19.9169 11.0445 20.1024H11.0373C11.0239 20.122 11.0141 20.1452 11.0016 20.1666C10.9428 20.2353 10.8527 20.3263 10.726 20.4351C10.5137 20.6153 10.2336 20.7749 9.98211 20.7749C9.73236 20.7749 9.4496 20.6081 9.23196 20.4208C9.04375 20.2594 8.93136 20.1202 8.89925 20.081C8.89836 20.0792 8.90015 20.0756 8.89925 20.0738C8.76546 19.8812 8.61204 19.5431 8.57368 19.2532L8.55228 19.0543H8.36853C8.3605 19.0516 8.33909 19.04 8.31858 19.0124C8.27844 18.9598 8.22224 18.8376 8.19103 18.6297C8.19103 18.6253 8.19103 18.6271 8.19103 18.6226C8.19013 18.619 8.19192 18.619 8.19103 18.6155C8.18746 18.4442 8.2936 18.3488 8.27666 18.3612L8.40332 18.2694L8.36853 18.1133C8.15981 17.2873 8.1268 16.5398 8.34712 16.0323C8.56744 15.5257 9.01343 15.2054 9.9607 15.1822ZM9.09727 20.8953C9.33632 21.0711 9.63513 21.2281 9.98211 21.2281C10.322 21.2281 10.6136 21.0791 10.8455 20.9096C10.8464 21.0479 10.8509 21.1888 10.8669 21.3627V21.3913L10.8812 21.4189C10.9214 21.5233 10.9776 21.6125 11.0445 21.6954C11.0418 21.7044 11.0391 21.7142 11.0373 21.724C11.0373 21.724 10.9829 21.8721 10.825 22.0353C10.6663 22.1976 10.4201 22.3609 9.98211 22.3609C9.54594 22.3609 9.29083 22.1905 9.12582 22.021C8.95991 21.8507 8.90639 21.6954 8.90639 21.6954C8.9715 21.6107 9.02591 21.5188 9.06159 21.4118L9.07586 21.3699C9.09549 21.1977 9.09727 21.0434 9.09727 20.8953ZM11.3986 22.0067C11.478 22.0585 11.56 22.1058 11.6456 22.1486C11.9766 22.3127 12.3521 22.4402 12.708 22.5946C13.0639 22.748 13.3957 22.9228 13.6347 23.1681C13.8265 23.3634 13.9416 23.6239 14.0031 23.9468H5.96109C6.02353 23.6239 6.1377 23.3634 6.32947 23.1681C6.57031 22.9228 6.90837 22.748 7.26426 22.5946C7.61927 22.4402 7.99122 22.3136 8.31858 22.1486C8.39975 22.1066 8.48359 22.0629 8.55941 22.0139C8.61025 22.1049 8.68786 22.2235 8.80024 22.3395C9.03127 22.5776 9.42195 22.814 9.98211 22.814C10.5405 22.814 10.924 22.5803 11.1506 22.3466C11.2746 22.219 11.3495 22.1004 11.3986 22.0067Z" fill="#727CF5"/>
<rect x="2" y="9" width="36.6667" height="22.9167" rx="2.5" stroke="#727CF5" stroke-width="0.533333"/>
<line x1="5.85417" y1="28.6354" x2="33.0938" y2="28.6354" stroke="#727CF5" stroke-width="0.833333" stroke-linecap="square" stroke-linejoin="bevel" stroke-dasharray="2.5 2.5"/>
<line x1="19.7604" y1="15.9896" x2="33.5104" y2="15.9896" stroke="#727CF5" stroke-width="0.916667"/>
<line x1="19.7604" y1="18.2813" x2="33.5104" y2="18.2813" stroke="#727CF5" stroke-width="0.916667"/>
<line x1="19.7604" y1="20.5729" x2="33.5104" y2="20.5729" stroke="#727CF5" stroke-width="0.916667"/>
<line x1="19.7604" y1="22.8646" x2="33.5104" y2="22.8646" stroke="#727CF5" stroke-width="0.916667"/>
</g>
</g>
<defs>
<filter id="filter0_d" x="-6.6" y="8.73334" width="53.8667" height="45.1167" filterUnits="userSpaceOnUse" color-interpolation-filters="sRGB">
<feFlood flood-opacity="0" result="BackgroundImageFix"/>
<feColorMatrix in="SourceAlpha" type="matrix" values="0 0 0 0 0 0 0 0 0 0 0 0 0 0 0 0 0 0 127 0"/>
<feOffset dy="13.3333"/>
<feGaussianBlur stdDeviation="4.16667"/>
<feColorMatrix type="matrix" values="0 0 0 0 0.475 0 0 0 0 0.473021 0 0 0 0 0.473021 0 0 0 0.05 0"/>
<feBlend mode="normal" in2="BackgroundImageFix" result="effect1_dropShadow"/>
<feBlend mode="normal" in="SourceGraphic" in2="effect1_dropShadow" result="shape"/>
</filter>
<clipPath id="clip0">
<rect width="40" height="40" fill="white"/>
</clipPath>
</defs>
</svg>
