<svg width="18" height="30" viewBox="0 0 18 30" fill="none" xmlns="http://www.w3.org/2000/svg">
<g clip-path="url(#clip0)">
<path d="M5.68236 1.25426L0.838238 15.885L1.3129 16.0422L0.838238 15.885C0.577834 16.6715 1.24746 17.4527 2.06452 17.3156L8.13112 16.2977C8.20166 16.2858 8.26146 16.3497 8.24497 16.4193L5.67101 27.2865C5.37874 28.5204 7.06169 29.1878 7.69458 28.089L16.8262 12.235C17.2813 11.4448 16.6326 10.4758 15.7285 10.5955L8.74431 11.5207C8.671 11.5304 8.61288 11.46 8.63635 11.3899L11.7961 1.94912C12.0345 1.23659 11.5043 0.5 10.7529 0.5H6.72661C6.25232 0.5 5.83143 0.804003 5.68236 1.25426Z" stroke="black"/>
</g>
<defs>
<clipPath id="clip0">
<rect width="18" height="29.8" fill="white"/>
</clipPath>
</defs>
</svg>
