<svg width="65" height="77" viewBox="0 0 65 77" fill="none" xmlns="http://www.w3.org/2000/svg">
<path fill-rule="evenodd" clip-rule="evenodd" d="M32.2699 0L33.8143 2.1004C37.4489 7.0434 42.8063 9.9637 48.1749 11.5806C53.5477 13.1988 58.7595 13.4568 61.8405 13.2103L64.0662 13.0323L63.9991 15.2641C62.7117 58.0691 43.2587 73.9594 32.6427 76.3517L32.1358 76.466L31.6373 76.319C18.3748 72.4083 10.4226 61.0903 5.84025 49.0286C1.24768 36.9401 -0.126494 23.7063 0.00896766 15.1722L0.0402098 13.204H2.00872C17.9103 13.204 27.8309 5.54871 30.6413 2.03579L32.2699 0ZM32.203 74.4007C7.4119 67.0905 1.74385 31.8903 2.00872 15.204C16.6463 15.204 26.547 8.97138 30.8279 4.78607C31.3805 4.24571 31.8396 3.73947 32.203 3.28518C32.6108 3.83976 33.0377 4.37021 33.4817 4.87746C40.9042 13.3574 53.0875 15.3562 59.9964 15.2893C60.7273 15.2822 61.3991 15.252 62 15.204C61.9796 15.8814 61.9547 16.5518 61.9252 17.2153C60.1182 57.9473 41.4549 72.3157 32.203 74.4007ZM32.4134 8.3649L31.8391 7.68124L31.2648 8.3649C28.617 11.5171 19.9288 17.9445 6.82749 17.6325L6.08974 17.615L6.06024 18.3524C5.79218 25.0538 6.73466 35.6046 10.4373 45.541C14.1397 55.4765 20.6448 64.9017 31.5678 69.1405L31.8107 69.2347L32.0597 69.1581C41.0411 66.3946 58.1824 52.3318 57.221 18.3611L57.1998 17.6143L56.453 17.6326C53.8129 17.6969 49.4034 17.3089 44.8395 15.9264C40.2715 14.5426 35.6226 12.1853 32.4134 8.3649ZM6.80964 18.3823C6.27992 31.6254 10.5442 60.1776 31.8391 68.4413C40.4471 65.7926 57.4248 52.0728 56.4713 18.3823C51.1742 18.5115 39.1212 16.8761 32.3383 9.41822C32.1685 9.23158 32.0021 9.04129 31.8391 8.84729C31.6886 9.02648 31.5202 9.21513 31.3341 9.41165C28.0817 12.8461 19.4362 18.683 6.80964 18.3823ZM32.1669 52.8489C39.9911 52.8489 46.3338 46.4547 46.3338 38.567C46.3338 30.6794 39.9911 24.2852 32.1669 24.2852C24.3427 24.2852 18 30.6794 18 38.567C18 46.4547 24.3427 52.8489 32.1669 52.8489ZM32.1663 51.9728C39.5106 51.9728 45.4643 45.9708 45.4643 38.5669C45.4643 31.1631 39.5106 25.161 32.1663 25.161C24.822 25.161 18.8683 31.1631 18.8683 38.5669C18.8683 45.9708 24.822 51.9728 32.1663 51.9728ZM23.4538 38.6142L29.9165 45.073L40.0871 34.9084L37.8623 32.6849L29.9165 40.5201L25.6787 36.2848L23.4538 38.6142Z" fill="#727CF5"/>
<path fill-rule="evenodd" clip-rule="evenodd" d="M32.2699 0L33.8143 2.1004C37.4489 7.0434 42.8063 9.9637 48.1749 11.5806C53.5477 13.1988 58.7595 13.4568 61.8405 13.2103L64.0662 13.0323L63.9991 15.2641C62.7117 58.0691 43.2587 73.9594 32.6427 76.3517L32.1358 76.466L31.6373 76.319C18.3748 72.4083 10.4226 61.0903 5.84025 49.0286C1.24768 36.9401 -0.126494 23.7063 0.00896766 15.1722L0.0402098 13.204H2.00872C17.9103 13.204 27.8309 5.54871 30.6413 2.03579L32.2699 0ZM32.203 74.4007C7.4119 67.0905 1.74385 31.8903 2.00872 15.204C16.6463 15.204 26.547 8.97138 30.8279 4.78607C31.3805 4.24571 31.8396 3.73947 32.203 3.28518C32.6108 3.83976 33.0377 4.37021 33.4817 4.87746C40.9042 13.3574 53.0875 15.3562 59.9964 15.2893C60.7273 15.2822 61.3991 15.252 62 15.204C61.9796 15.8814 61.9547 16.5518 61.9252 17.2153C60.1182 57.9473 41.4549 72.3157 32.203 74.4007ZM32.4134 8.3649L31.8391 7.68124L31.2648 8.3649C28.617 11.5171 19.9288 17.9445 6.82749 17.6325L6.08974 17.615L6.06024 18.3524C5.79218 25.0538 6.73466 35.6046 10.4373 45.541C14.1397 55.4765 20.6448 64.9017 31.5678 69.1405L31.8107 69.2347L32.0597 69.1581C41.0411 66.3946 58.1824 52.3318 57.221 18.3611L57.1998 17.6143L56.453 17.6326C53.8129 17.6969 49.4034 17.3089 44.8395 15.9264C40.2715 14.5426 35.6226 12.1853 32.4134 8.3649ZM6.80964 18.3823C6.27992 31.6254 10.5442 60.1776 31.8391 68.4413C40.4471 65.7926 57.4248 52.0728 56.4713 18.3823C51.1742 18.5115 39.1212 16.8761 32.3383 9.41822C32.1685 9.23158 32.0021 9.04129 31.8391 8.84729C31.6886 9.02648 31.5202 9.21513 31.3341 9.41165C28.0817 12.8461 19.4362 18.683 6.80964 18.3823ZM32.1669 52.8489C39.9911 52.8489 46.3338 46.4547 46.3338 38.567C46.3338 30.6794 39.9911 24.2852 32.1669 24.2852C24.3427 24.2852 18 30.6794 18 38.567C18 46.4547 24.3427 52.8489 32.1669 52.8489ZM32.1663 51.9728C39.5106 51.9728 45.4643 45.9708 45.4643 38.5669C45.4643 31.1631 39.5106 25.161 32.1663 25.161C24.822 25.161 18.8683 31.1631 18.8683 38.5669C18.8683 45.9708 24.822 51.9728 32.1663 51.9728ZM23.4538 38.6142L29.9165 45.073L40.0871 34.9084L37.8623 32.6849L29.9165 40.5201L25.6787 36.2848L23.4538 38.6142Z" fill="url(#paint0_linear)"/>
<defs>
<linearGradient id="paint0_linear" x1="-13" y1="16.5" x2="52.5" y2="78" gradientUnits="userSpaceOnUse">
<stop stop-color="#BB76DB"/>
<stop offset="1" stop-color="#727CF5" stop-opacity="0.6"/>
</linearGradient>
</defs>
</svg>
