<svg width="60" height="80" viewBox="0 0 60 80" fill="none" xmlns="http://www.w3.org/2000/svg">
<path fill-rule="evenodd" clip-rule="evenodd" d="M26.2906 3.14896L26.1306 3.88169L25.6839 3.79122L25.3955 3.73278L24.9489 3.6423L25.1089 2.90956L25.1968 2.50686L24.6379 2.39364L23.9029 2.24473L23.9914 1.83925L24.0629 1.51199L24.1514 1.10651L24.8865 1.25543L25.4453 1.36865L25.5842 0.732735L25.7442 0L26.1908 0.0904795L26.4793 0.148917L26.9259 0.239396L26.7659 0.972131L26.627 1.60804L27.1978 1.72367L27.9328 1.87258L27.8443 2.27806L27.7728 2.60532L27.6843 3.0108L26.9492 2.86188L26.3785 2.74625L26.2906 3.14896ZM14.3686 9.17615L14.2086 9.90889L13.7619 9.81841L13.4735 9.75997L13.0269 9.66949L13.1869 8.93676L13.4241 7.85046L12.2624 7.61512L11.5273 7.4662L11.6159 7.06072L11.6873 6.73347L11.7759 6.32799L12.5109 6.4769L13.6726 6.71224L13.9107 5.62172L14.0707 4.88898L14.5174 4.97946L14.8058 5.0379L15.2524 5.12838L15.0924 5.86111L14.8543 6.95164L16.0039 7.18454L16.739 7.33345L16.6504 7.73894L16.579 8.06619L16.4904 8.47167L15.7554 8.32275L14.6058 8.08985L14.3686 9.17615ZM2.88582 28.9571L2.72582 29.6898L2.2792 29.5993L1.99075 29.5409L1.54413 29.4504L1.70413 28.7177L1.91695 27.7431L0.764372 27.5096L0.0293045 27.3607L0.117845 26.9552L0.189305 26.6279L0.277845 26.2225L1.01291 26.3714L2.16549 26.6049L2.42801 25.4026L2.58801 24.6699L3.03463 24.7604L3.32307 24.8188L3.76969 24.9093L3.60969 25.642L3.34717 26.8443L4.50588 27.079L5.24095 27.2279L5.15241 27.6334L5.08095 27.9607L4.99241 28.3661L4.25734 28.2172L3.09863 27.9825L2.88582 28.9571ZM1.9675 39.9409L1.8075 40.6736L1.36088 40.5831L1.07243 40.5247L0.625811 40.4342L0.78581 39.7015L0.823502 39.5289L0.735067 39.5109L0 39.362L0.0885402 38.9566L0.16 38.6293L0.248541 38.2238L0.983608 38.3727L1.07204 38.3906L1.08716 38.3214L1.24716 37.5887L1.69378 37.6792L1.98223 37.7376L2.42885 37.8281L2.26885 38.5608L2.25373 38.63L2.4677 38.6734L3.20277 38.8223L3.11423 39.2278L3.04277 39.555L2.95423 39.9605L2.21916 39.8116L2.00519 39.7683L1.9675 39.9409ZM59.3728 52.0489H58.6228H50.3162V59.8333H55.9598H56.7098V60.5833V69.3127V70.0627H55.9598H55.6237V78.3765V79.1265H54.8737H15.5586H14.8086V78.3765V69.6471V68.8971H15.5586H15.8947V61.1127H10.2511H9.50112V60.3627V51.6333V50.8833H10.2511H18.5577V42.5696V41.8196H19.3077H39.8441C30.3342 41.346 22.7697 33.5122 22.7697 23.9177C22.7697 14.0183 30.8227 5.99321 40.7567 5.99321C50.6906 5.99321 58.7437 14.0183 58.7437 23.9177C58.7437 33.5122 51.1792 41.346 41.6693 41.8196H58.6228H59.3728V42.5696V51.2989V52.0489ZM31.4783 50.8344H33.7726V50.1314V43.8432V43.2675H31.4783V43.8432V50.1314V50.8344ZM28.3387 50.8344V50.1314V43.8432V43.2675H23.868V43.8432V50.1314V50.8344H28.3387ZM24.5896 59.7847H22.4217V59.0817V52.7934V52.2177H24.5896V52.7934V59.0817V59.7847ZM14.8114 59.7847H19.2821V59.0817V52.7934V52.2177H14.8114V52.7934V59.0817V59.7847ZM28.8161 68.8482H31.1105V68.1541V61.8659V61.2813H28.8161V61.8659V68.1541V68.8482ZM25.6765 68.8482V68.1541V61.8659V61.2813H21.2138V61.8659V68.1541V68.8482H25.6765ZM29.9059 77.7984V77.1043V70.8161V70.2315H27.6116V70.8161V77.1043V77.7984H29.9059ZM24.4719 70.8161V70.2315H20.0004V70.8161V77.1043V77.7984H24.4719V77.1043V70.8161ZM53.6691 77.1043H30.6559V70.8161H53.6691V77.1043ZM25.2219 77.1043H26.8616V70.8161H25.2219V77.1043ZM19.2504 77.1043H16.6447V70.8161H19.2504V77.1043ZM31.8605 68.1541H54.8737V61.8659H31.8605V68.1541ZM28.0661 68.1541H26.4265V61.8659H28.0661V68.1541ZM17.8581 68.1541H20.4638V61.8659H17.8581V68.1541ZM48.3528 59.0817H25.3396V52.7934H48.3528V59.0817ZM20.0321 59.0817H21.6717V52.7934H20.0321V59.0817ZM14.0614 59.0817H11.4557V52.7934H14.0614V59.0817ZM34.5226 50.1314H57.5359V43.8432H34.5226V50.1314ZM30.7283 50.1314H29.0887V43.8432H30.7283V50.1314ZM20.5123 50.1314H23.118V43.8432H20.5123V50.1314ZM7.30186 20.0355L8.03693 20.1845L8.13444 20.2042L8.11932 20.2735L7.95932 21.0062L8.40594 21.0967L8.69439 21.1551L9.14101 21.2456L9.30101 20.5128L9.31613 20.4436L9.52102 20.4851L10.2561 20.634L10.3446 20.2286L10.4161 19.9013L10.5046 19.4958L9.76957 19.3469L9.56467 19.3054L9.60236 19.1328L9.76236 18.4L9.31574 18.3096L9.02729 18.2511L8.58067 18.1606L8.42067 18.8934L8.38298 19.066L8.28547 19.0462L7.5504 18.8973L7.46186 19.3028L7.3904 19.6301L7.30186 20.0355ZM56.7437 23.9177C56.7437 32.7061 49.5926 39.8423 40.7567 39.8423C31.9207 39.8423 24.7697 32.7061 24.7697 23.9177C24.7697 15.1294 31.9207 7.99321 40.7567 7.99321C49.5926 7.99321 56.7437 15.1294 56.7437 23.9177ZM40.5694 37.5451C33.1386 37.5451 27.1192 31.5428 27.1192 24.1442C27.1192 16.7455 33.1386 10.7432 40.5694 10.7432C48.0003 10.7432 54.0197 16.7455 54.0197 24.1442C54.0197 31.5428 48.0003 37.5451 40.5694 37.5451ZM40.5694 38.2951C32.7269 38.2951 26.3692 31.9595 26.3692 24.1442C26.3692 16.3288 32.7269 9.99321 40.5694 9.99321C48.412 9.99321 54.7697 16.3288 54.7697 24.1442C54.7697 31.9595 48.412 38.2951 40.5694 38.2951ZM40.0137 28.9932H42.126V18.9991H40.3896L37.1699 21.5625L38.1953 22.834L39.3437 21.9112C39.4121 21.8565 39.4827 21.795 39.5557 21.7266C39.6286 21.6582 39.6992 21.5922 39.7676 21.5284L39.9521 21.3438C40.0068 21.2891 40.0456 21.2481 40.0684 21.2207C40.0638 21.3711 40.057 21.5375 40.0478 21.7198C40.0433 21.9021 40.0365 22.0844 40.0273 22.2666C40.0228 22.4444 40.0182 22.6176 40.0137 22.7862V23.21V28.9932Z" fill="#727CF5"/>
<path fill-rule="evenodd" clip-rule="evenodd" d="M26.2906 3.14896L26.1306 3.88169L25.6839 3.79122L25.3955 3.73278L24.9489 3.6423L25.1089 2.90956L25.1968 2.50686L24.6379 2.39364L23.9029 2.24473L23.9914 1.83925L24.0629 1.51199L24.1514 1.10651L24.8865 1.25543L25.4453 1.36865L25.5842 0.732735L25.7442 0L26.1908 0.0904795L26.4793 0.148917L26.9259 0.239396L26.7659 0.972131L26.627 1.60804L27.1978 1.72367L27.9328 1.87258L27.8443 2.27806L27.7728 2.60532L27.6843 3.0108L26.9492 2.86188L26.3785 2.74625L26.2906 3.14896ZM14.3686 9.17615L14.2086 9.90889L13.7619 9.81841L13.4735 9.75997L13.0269 9.66949L13.1869 8.93676L13.4241 7.85046L12.2624 7.61512L11.5273 7.4662L11.6159 7.06072L11.6873 6.73347L11.7759 6.32799L12.5109 6.4769L13.6726 6.71224L13.9107 5.62172L14.0707 4.88898L14.5174 4.97946L14.8058 5.0379L15.2524 5.12838L15.0924 5.86111L14.8543 6.95164L16.0039 7.18454L16.739 7.33345L16.6504 7.73894L16.579 8.06619L16.4904 8.47167L15.7554 8.32275L14.6058 8.08985L14.3686 9.17615ZM2.88582 28.9571L2.72582 29.6898L2.2792 29.5993L1.99075 29.5409L1.54413 29.4504L1.70413 28.7177L1.91695 27.7431L0.764372 27.5096L0.0293045 27.3607L0.117845 26.9552L0.189305 26.6279L0.277845 26.2225L1.01291 26.3714L2.16549 26.6049L2.42801 25.4026L2.58801 24.6699L3.03463 24.7604L3.32307 24.8188L3.76969 24.9093L3.60969 25.642L3.34717 26.8443L4.50588 27.079L5.24095 27.2279L5.15241 27.6334L5.08095 27.9607L4.99241 28.3661L4.25734 28.2172L3.09863 27.9825L2.88582 28.9571ZM1.9675 39.9409L1.8075 40.6736L1.36088 40.5831L1.07243 40.5247L0.625811 40.4342L0.78581 39.7015L0.823502 39.5289L0.735067 39.5109L0 39.362L0.0885402 38.9566L0.16 38.6293L0.248541 38.2238L0.983608 38.3727L1.07204 38.3906L1.08716 38.3214L1.24716 37.5887L1.69378 37.6792L1.98223 37.7376L2.42885 37.8281L2.26885 38.5608L2.25373 38.63L2.4677 38.6734L3.20277 38.8223L3.11423 39.2278L3.04277 39.555L2.95423 39.9605L2.21916 39.8116L2.00519 39.7683L1.9675 39.9409ZM59.3728 52.0489H58.6228H50.3162V59.8333H55.9598H56.7098V60.5833V69.3127V70.0627H55.9598H55.6237V78.3765V79.1265H54.8737H15.5586H14.8086V78.3765V69.6471V68.8971H15.5586H15.8947V61.1127H10.2511H9.50112V60.3627V51.6333V50.8833H10.2511H18.5577V42.5696V41.8196H19.3077H39.8441C30.3342 41.346 22.7697 33.5122 22.7697 23.9177C22.7697 14.0183 30.8227 5.99321 40.7567 5.99321C50.6906 5.99321 58.7437 14.0183 58.7437 23.9177C58.7437 33.5122 51.1792 41.346 41.6693 41.8196H58.6228H59.3728V42.5696V51.2989V52.0489ZM31.4783 50.8344H33.7726V50.1314V43.8432V43.2675H31.4783V43.8432V50.1314V50.8344ZM28.3387 50.8344V50.1314V43.8432V43.2675H23.868V43.8432V50.1314V50.8344H28.3387ZM24.5896 59.7847H22.4217V59.0817V52.7934V52.2177H24.5896V52.7934V59.0817V59.7847ZM14.8114 59.7847H19.2821V59.0817V52.7934V52.2177H14.8114V52.7934V59.0817V59.7847ZM28.8161 68.8482H31.1105V68.1541V61.8659V61.2813H28.8161V61.8659V68.1541V68.8482ZM25.6765 68.8482V68.1541V61.8659V61.2813H21.2138V61.8659V68.1541V68.8482H25.6765ZM29.9059 77.7984V77.1043V70.8161V70.2315H27.6116V70.8161V77.1043V77.7984H29.9059ZM24.4719 70.8161V70.2315H20.0004V70.8161V77.1043V77.7984H24.4719V77.1043V70.8161ZM53.6691 77.1043H30.6559V70.8161H53.6691V77.1043ZM25.2219 77.1043H26.8616V70.8161H25.2219V77.1043ZM19.2504 77.1043H16.6447V70.8161H19.2504V77.1043ZM31.8605 68.1541H54.8737V61.8659H31.8605V68.1541ZM28.0661 68.1541H26.4265V61.8659H28.0661V68.1541ZM17.8581 68.1541H20.4638V61.8659H17.8581V68.1541ZM48.3528 59.0817H25.3396V52.7934H48.3528V59.0817ZM20.0321 59.0817H21.6717V52.7934H20.0321V59.0817ZM14.0614 59.0817H11.4557V52.7934H14.0614V59.0817ZM34.5226 50.1314H57.5359V43.8432H34.5226V50.1314ZM30.7283 50.1314H29.0887V43.8432H30.7283V50.1314ZM20.5123 50.1314H23.118V43.8432H20.5123V50.1314ZM7.30186 20.0355L8.03693 20.1845L8.13444 20.2042L8.11932 20.2735L7.95932 21.0062L8.40594 21.0967L8.69439 21.1551L9.14101 21.2456L9.30101 20.5128L9.31613 20.4436L9.52102 20.4851L10.2561 20.634L10.3446 20.2286L10.4161 19.9013L10.5046 19.4958L9.76957 19.3469L9.56467 19.3054L9.60236 19.1328L9.76236 18.4L9.31574 18.3096L9.02729 18.2511L8.58067 18.1606L8.42067 18.8934L8.38298 19.066L8.28547 19.0462L7.5504 18.8973L7.46186 19.3028L7.3904 19.6301L7.30186 20.0355ZM56.7437 23.9177C56.7437 32.7061 49.5926 39.8423 40.7567 39.8423C31.9207 39.8423 24.7697 32.7061 24.7697 23.9177C24.7697 15.1294 31.9207 7.99321 40.7567 7.99321C49.5926 7.99321 56.7437 15.1294 56.7437 23.9177ZM40.5694 37.5451C33.1386 37.5451 27.1192 31.5428 27.1192 24.1442C27.1192 16.7455 33.1386 10.7432 40.5694 10.7432C48.0003 10.7432 54.0197 16.7455 54.0197 24.1442C54.0197 31.5428 48.0003 37.5451 40.5694 37.5451ZM40.5694 38.2951C32.7269 38.2951 26.3692 31.9595 26.3692 24.1442C26.3692 16.3288 32.7269 9.99321 40.5694 9.99321C48.412 9.99321 54.7697 16.3288 54.7697 24.1442C54.7697 31.9595 48.412 38.2951 40.5694 38.2951ZM40.0137 28.9932H42.126V18.9991H40.3896L37.1699 21.5625L38.1953 22.834L39.3437 21.9112C39.4121 21.8565 39.4827 21.795 39.5557 21.7266C39.6286 21.6582 39.6992 21.5922 39.7676 21.5284L39.9521 21.3438C40.0068 21.2891 40.0456 21.2481 40.0684 21.2207C40.0638 21.3711 40.057 21.5375 40.0478 21.7198C40.0433 21.9021 40.0365 22.0844 40.0273 22.2666C40.0228 22.4444 40.0182 22.6176 40.0137 22.7862V23.21V28.9932Z" fill="url(#paint0_linear)"/>
<defs>
<linearGradient id="paint0_linear" x1="-9" y1="12.5" x2="62.2709" y2="81.7358" gradientUnits="userSpaceOnUse">
<stop offset="0.11095" stop-color="#BB76DB"/>
<stop offset="0.898564" stop-color="#727CF5" stop-opacity="0.6"/>
</linearGradient>
</defs>
</svg>
