<svg width="40" height="40" viewBox="0 0 40 40" fill="none" xmlns="http://www.w3.org/2000/svg">
<mask id="path-2-inside-1" fill="white">
<path d="M26.1242 4H14.8746C13.1509 4 11.7497 5.40245 11.7497 7.12489V9.6248V29.6241V33.374C11.7497 35.0964 13.1509 36.4988 14.8746 36.4988H26.1242C27.8479 36.4988 29.2491 35.0964 29.2491 33.374V29.6241V9.6248V7.12489C29.2491 5.40245 27.8479 4 26.1242 4ZM14.8746 5.24996H26.1242C27.1579 5.24996 27.9991 6.09118 27.9991 7.12489V8.99982H12.9997V7.12489C12.9997 6.09118 13.8409 5.24996 14.8746 5.24996ZM27.9991 28.9991H12.9997V10.2498H27.9991V28.9991ZM26.1242 35.2489H14.8746C13.8409 35.2489 12.9997 34.4077 12.9997 33.374V30.2491H27.9991V33.374C27.9991 34.4077 27.1579 35.2489 26.1242 35.2489Z"/>
</mask>
<path d="M27.9991 8.99982V10.2498H29.2491V8.99982H27.9991ZM12.9997 8.99982H11.7497V10.2498H12.9997V8.99982ZM27.9991 28.9991V30.2491H29.2491V28.9991H27.9991ZM12.9997 28.9991H11.7497V30.2491H12.9997V28.9991ZM12.9997 10.2498V8.99978H11.7497V10.2498H12.9997ZM27.9991 10.2498H29.2491V8.99978H27.9991V10.2498ZM12.9997 30.2491V28.9991H11.7497V30.2491H12.9997ZM27.9991 30.2491H29.2491V28.9991H27.9991V30.2491ZM26.1242 2.75H14.8746V5.25H26.1242V2.75ZM14.8746 2.75C12.4602 2.75 10.4997 4.71242 10.4997 7.12489H12.9997C12.9997 6.09248 13.8416 5.25 14.8746 5.25V2.75ZM10.4997 7.12489V9.6248H12.9997V7.12489H10.4997ZM10.4997 9.6248V29.6241H12.9997V9.6248H10.4997ZM10.4997 29.6241V33.374H12.9997V29.6241H10.4997ZM10.4997 33.374C10.4997 35.7864 12.4602 37.7488 14.8746 37.7488V35.2488C13.8416 35.2488 12.9997 34.4064 12.9997 33.374H10.4997ZM14.8746 37.7488H26.1242V35.2488H14.8746V37.7488ZM26.1242 37.7488C28.5386 37.7488 30.4991 35.7864 30.4991 33.374H27.9991C27.9991 34.4064 27.1572 35.2488 26.1242 35.2488V37.7488ZM30.4991 33.374V29.6241H27.9991V33.374H30.4991ZM30.4991 29.6241V9.6248H27.9991V29.6241H30.4991ZM30.4991 9.6248V7.12489H27.9991V9.6248H30.4991ZM30.4991 7.12489C30.4991 4.71242 28.5386 2.75 26.1242 2.75V5.25C27.1572 5.25 27.9991 6.09248 27.9991 7.12489H30.4991ZM14.8746 6.49996H26.1242V3.99996H14.8746V6.49996ZM26.1242 6.49996C26.4675 6.49996 26.7491 6.78153 26.7491 7.12489H29.2491C29.2491 5.40082 27.8483 3.99996 26.1242 3.99996V6.49996ZM26.7491 7.12489V8.99982H29.2491V7.12489H26.7491ZM27.9991 7.74982H12.9997V10.2498H27.9991V7.74982ZM14.2497 8.99982V7.12489H11.7497V8.99982H14.2497ZM14.2497 7.12489C14.2497 6.78153 14.5312 6.49996 14.8746 6.49996V3.99996C13.1505 3.99996 11.7497 5.40082 11.7497 7.12489H14.2497ZM27.9991 27.7491H12.9997V30.2491H27.9991V27.7491ZM14.2497 28.9991V10.2498H11.7497V28.9991H14.2497ZM12.9997 11.4998H27.9991V8.99978H12.9997V11.4998ZM26.7491 10.2498V28.9991H29.2491V10.2498H26.7491ZM26.1242 33.9989H14.8746V36.4989H26.1242V33.9989ZM14.8746 33.9989C14.5312 33.9989 14.2497 33.7173 14.2497 33.374H11.7497C11.7497 35.098 13.1505 36.4989 14.8746 36.4989V33.9989ZM14.2497 33.374V30.2491H11.7497V33.374H14.2497ZM12.9997 31.4991H27.9991V28.9991H12.9997V31.4991ZM26.7491 30.2491V33.374H29.2491V30.2491H26.7491ZM26.7491 33.374C26.7491 33.7173 26.4675 33.9989 26.1242 33.9989V36.4989C27.8483 36.4989 29.2491 35.098 29.2491 33.374H26.7491Z" fill="#727CF5" mask="url(#path-2-inside-1)"/>
<mask id="path-4-inside-2" fill="white">
<path d="M19.2494 7.74986H21.7493C22.0943 7.74986 22.3743 7.46987 22.3743 7.12489C22.3743 6.7799 22.0943 6.49991 21.7493 6.49991H19.2494C18.9044 6.49991 18.6245 6.7799 18.6245 7.12489C18.6245 7.46987 18.9044 7.74986 19.2494 7.74986Z"/>
</mask>
<path d="M19.2494 7.74986H21.7493C22.0943 7.74986 22.3743 7.46987 22.3743 7.12489C22.3743 6.7799 22.0943 6.49991 21.7493 6.49991H19.2494C18.9044 6.49991 18.6245 6.7799 18.6245 7.12489C18.6245 7.46987 18.9044 7.74986 19.2494 7.74986Z" fill="#727CF5"/>
<path d="M19.2494 8.99986H21.7493V6.49986H19.2494V8.99986ZM21.7493 8.99986C22.7847 8.99986 23.6243 8.16023 23.6243 7.12489H21.1243C21.1243 6.77952 21.404 6.49986 21.7493 6.49986V8.99986ZM23.6243 7.12489C23.6243 6.08954 22.7847 5.24991 21.7493 5.24991V7.74991C21.404 7.74991 21.1243 7.47025 21.1243 7.12489H23.6243ZM21.7493 5.24991H19.2494V7.74991H21.7493V5.24991ZM19.2494 5.24991C18.2141 5.24991 17.3745 6.08954 17.3745 7.12489H19.8745C19.8745 7.47025 19.5948 7.74991 19.2494 7.74991V5.24991ZM17.3745 7.12489C17.3745 8.16023 18.2141 8.99986 19.2494 8.99986V6.49986C19.5948 6.49986 19.8745 6.77952 19.8745 7.12489H17.3745Z" fill="#727CF5" mask="url(#path-4-inside-2)"/>
<path d="M21.1243 32.749C21.1243 33.0941 20.8445 33.3739 20.4994 33.3739C20.1542 33.3739 19.8744 33.0941 19.8744 32.749C19.8744 32.4038 20.1542 32.124 20.4994 32.124C20.8445 32.124 21.1243 32.4038 21.1243 32.749Z" fill="#727CF5" stroke="#727CF5" stroke-width="1.25"/>
<mask id="path-7-inside-3" fill="white">
<path d="M9.44477 12.5209C9.14353 12.3484 8.76229 12.4509 8.5923 12.7497C7.38734 14.8371 6.74987 17.2145 6.74987 19.6244C6.74987 22.0343 7.38734 24.4118 8.5923 26.4992C8.7073 26.6992 8.91729 26.8117 9.13353 26.8117C9.23978 26.8117 9.34727 26.7854 9.44602 26.7279C9.74476 26.5554 9.84726 26.1729 9.67476 25.8742C8.57855 23.9755 7.99982 21.8143 7.99982 19.6244C7.99982 17.4345 8.57855 15.2733 9.67351 13.3746C9.84726 13.0759 9.74476 12.6934 9.44477 12.5209ZM6.19864 10.646C5.8999 10.4747 5.51616 10.576 5.34492 10.8747C3.80997 13.5321 3 16.557 3 19.6244C3 22.6918 3.80997 25.7167 5.34492 28.3741C5.45991 28.5741 5.67115 28.6866 5.88615 28.6866C5.99239 28.6866 6.09989 28.6603 6.19864 28.6029C6.49738 28.4304 6.59987 28.0479 6.42613 27.7491C5.00368 25.2817 4.24996 22.4718 4.24996 19.6244C4.24996 16.777 5.00368 13.9671 6.42613 11.4997C6.59987 11.201 6.49738 10.8185 6.19864 10.646ZM31.554 12.5209C31.2552 12.6934 31.1527 13.0759 31.3252 13.3746C32.4202 15.2733 32.9989 17.4345 32.9989 19.6244C32.9989 21.8143 32.4202 23.9755 31.3252 25.8742C31.1515 26.1729 31.254 26.5554 31.554 26.7279C31.6527 26.7842 31.7602 26.8117 31.8665 26.8117C32.0827 26.8117 32.2927 26.6992 32.4077 26.4992C33.6114 24.4118 34.2489 22.0343 34.2489 19.6244C34.2489 17.2145 33.6114 14.8371 32.4064 12.7497C32.2365 12.4509 31.8527 12.3484 31.554 12.5209ZM35.6538 10.8747C35.4826 10.5747 35.0989 10.4722 34.8001 10.646C34.5014 10.8185 34.3989 11.201 34.5726 11.4997C35.9951 13.9671 36.7488 16.777 36.7488 19.6244C36.7488 22.4718 35.9951 25.2817 34.5726 27.7491C34.3989 28.0479 34.5014 28.4304 34.8014 28.6029C34.9001 28.6591 35.0076 28.6866 35.1139 28.6866C35.3288 28.6866 35.5401 28.5741 35.6551 28.3741C37.19 25.7167 38 22.6918 38 19.6244C38 16.557 37.1888 13.5321 35.6538 10.8747Z"/>
</mask>
<path d="M9.44477 12.5209C9.14353 12.3484 8.76229 12.4509 8.5923 12.7497C7.38734 14.8371 6.74987 17.2145 6.74987 19.6244C6.74987 22.0343 7.38734 24.4118 8.5923 26.4992C8.7073 26.6992 8.91729 26.8117 9.13353 26.8117C9.23978 26.8117 9.34727 26.7854 9.44602 26.7279C9.74476 26.5554 9.84726 26.1729 9.67476 25.8742C8.57855 23.9755 7.99982 21.8143 7.99982 19.6244C7.99982 17.4345 8.57855 15.2733 9.67351 13.3746C9.84726 13.0759 9.74476 12.6934 9.44477 12.5209ZM6.19864 10.646C5.8999 10.4747 5.51616 10.576 5.34492 10.8747C3.80997 13.5321 3 16.557 3 19.6244C3 22.6918 3.80997 25.7167 5.34492 28.3741C5.45991 28.5741 5.67115 28.6866 5.88615 28.6866C5.99239 28.6866 6.09989 28.6603 6.19864 28.6029C6.49738 28.4304 6.59987 28.0479 6.42613 27.7491C5.00368 25.2817 4.24996 22.4718 4.24996 19.6244C4.24996 16.777 5.00368 13.9671 6.42613 11.4997C6.59987 11.201 6.49738 10.8185 6.19864 10.646ZM31.554 12.5209C31.2552 12.6934 31.1527 13.0759 31.3252 13.3746C32.4202 15.2733 32.9989 17.4345 32.9989 19.6244C32.9989 21.8143 32.4202 23.9755 31.3252 25.8742C31.1515 26.1729 31.254 26.5554 31.554 26.7279C31.6527 26.7842 31.7602 26.8117 31.8665 26.8117C32.0827 26.8117 32.2927 26.6992 32.4077 26.4992C33.6114 24.4118 34.2489 22.0343 34.2489 19.6244C34.2489 17.2145 33.6114 14.8371 32.4064 12.7497C32.2365 12.4509 31.8527 12.3484 31.554 12.5209ZM35.6538 10.8747C35.4826 10.5747 35.0989 10.4722 34.8001 10.646C34.5014 10.8185 34.3989 11.201 34.5726 11.4997C35.9951 13.9671 36.7488 16.777 36.7488 19.6244C36.7488 22.4718 35.9951 25.2817 34.5726 27.7491C34.3989 28.0479 34.5014 28.4304 34.8014 28.6029C34.9001 28.6591 35.0076 28.6866 35.1139 28.6866C35.3288 28.6866 35.5401 28.5741 35.6551 28.3741C37.19 25.7167 38 22.6918 38 19.6244C38 16.557 37.1888 13.5321 35.6538 10.8747Z" fill="#727CF5"/>
<path d="M9.44477 12.5209L10.0679 11.4373L10.0659 11.4362L9.44477 12.5209ZM8.5923 12.7497L9.6749 13.3746L9.67872 13.3679L8.5923 12.7497ZM8.5923 26.4992L9.67593 25.8761L9.67488 25.8743L8.5923 26.4992ZM9.44602 26.7279L8.82097 25.6454L8.81703 25.6477L9.44602 26.7279ZM9.67476 25.8742L8.59223 26.4992L8.59226 26.4992L9.67476 25.8742ZM9.67351 13.3746L8.59296 12.7462L8.59067 12.7502L9.67351 13.3746ZM6.19864 10.646L6.82368 9.56348L6.82028 9.56152L6.19864 10.646ZM5.34492 10.8747L6.42733 11.4999L6.42938 11.4964L5.34492 10.8747ZM5.34492 28.3741L6.42855 27.751L6.42733 27.7489L5.34492 28.3741ZM6.19864 28.6029L5.57359 27.5203L5.56965 27.5226L6.19864 28.6029ZM6.42613 27.7491L5.34319 28.3734L5.34559 28.3776L6.42613 27.7491ZM6.42613 11.4997L5.34558 10.8713L5.3432 10.8754L6.42613 11.4997ZM31.3252 13.3746L32.4081 12.7502L32.4077 12.7496L31.3252 13.3746ZM31.3252 25.8742L32.4058 26.5026L32.4081 26.4987L31.3252 25.8742ZM31.554 26.7279L30.9309 27.8116L30.9353 27.8141L31.554 26.7279ZM32.4077 26.4992L31.3248 25.8747L31.3241 25.8761L32.4077 26.4992ZM32.4064 12.7497L31.32 13.3679L31.3239 13.3746L32.4064 12.7497ZM35.6538 10.8747L34.5682 11.4944L34.5714 11.4999L35.6538 10.8747ZM34.8001 10.646L35.4252 11.7285L35.4285 11.7265L34.8001 10.646ZM34.5726 11.4997L35.6556 10.8754L35.6532 10.8713L34.5726 11.4997ZM34.5726 27.7491L35.6532 28.3776L35.6556 28.3734L34.5726 27.7491ZM34.8014 28.6029L34.1783 29.6865L34.1827 29.689L34.8014 28.6029ZM35.6551 28.3741L34.5727 27.7489L34.5715 27.751L35.6551 28.3741ZM10.0659 11.4362C9.17348 10.9252 8.02308 11.2225 7.50588 12.1315L9.67872 13.3679C9.5015 13.6793 9.11358 13.7717 8.82363 13.6057L10.0659 11.4362ZM7.50972 12.1247C6.19519 14.402 5.49987 16.9949 5.49987 19.6244H7.99987C7.99987 17.4341 8.5795 15.2722 9.67488 13.3746L7.50972 12.1247ZM5.49987 19.6244C5.49987 22.2539 6.19519 24.8468 7.50972 27.1241L9.67488 25.8743C8.5795 23.9767 7.99987 21.8147 7.99987 19.6244H5.49987ZM7.50867 27.1223C7.85585 27.7261 8.48865 28.0617 9.13353 28.0617V25.5617C9.34593 25.5617 9.55875 25.6723 9.67593 25.8761L7.50867 27.1223ZM9.13353 28.0617C9.44764 28.0617 9.77427 27.9833 10.075 27.8081L8.81703 25.6477C8.92028 25.5876 9.03191 25.5617 9.13353 25.5617V28.0617ZM10.0711 27.8104C10.9676 27.2928 11.275 26.1458 10.7573 25.2492L8.59226 26.4992C8.4195 26.2 8.52194 25.8181 8.82097 25.6454L10.0711 27.8104ZM10.7573 25.2492C9.7708 23.5405 9.24982 21.5949 9.24982 19.6244H6.74982C6.74982 22.0338 7.3863 24.4105 8.59223 26.4992L10.7573 25.2492ZM9.24982 19.6244C9.24982 17.6539 9.77081 15.708 10.7564 13.9991L8.59067 12.7502C7.38629 14.8386 6.74982 17.2151 6.74982 19.6244H9.24982ZM10.7541 14.0031C11.2769 13.104 10.967 11.9543 10.0679 11.4373L8.82168 13.6046C8.52255 13.4326 8.41759 13.0478 8.59297 12.7462L10.7541 14.0031ZM6.82028 9.56152C5.93141 9.05201 4.78005 9.34665 4.26045 10.2531L6.42938 11.4964C6.25227 11.8053 5.86838 11.8975 5.577 11.7305L6.82028 9.56152ZM4.26251 10.2495C2.61768 13.0972 1.75 16.3377 1.75 19.6244H4.25C4.25 16.7764 5.00226 13.9671 6.42733 11.4999L4.26251 10.2495ZM1.75 19.6244C1.75 22.9111 2.61768 26.1517 4.26251 28.9993L6.42733 27.7489C5.00226 25.2817 4.25 22.4725 4.25 19.6244H1.75ZM4.26128 28.9972C4.60913 29.6022 5.24391 29.9366 5.88615 29.9366V27.4366C6.0984 27.4366 6.31069 27.5461 6.42855 27.751L4.26128 28.9972ZM5.88615 29.9366C6.20026 29.9366 6.52688 29.8582 6.82762 29.6831L5.56965 27.5226C5.6729 27.4625 5.78453 27.4366 5.88615 27.4366V29.9366ZM6.82368 29.6854C7.72024 29.1677 8.02904 28.0189 7.50667 27.1207L5.34559 28.3776C5.1707 28.0769 5.27451 27.693 5.57359 27.5203L6.82368 29.6854ZM7.50906 27.1248C6.19579 24.8468 5.49996 22.2521 5.49996 19.6244H2.99996C2.99996 22.6915 3.81157 25.7166 5.3432 28.3734L7.50906 27.1248ZM5.49996 19.6244C5.49996 16.9967 6.19579 14.402 7.50906 12.124L5.3432 10.8754C3.81157 13.5322 2.99996 16.5573 2.99996 19.6244H5.49996ZM7.50667 12.1281C8.02904 11.23 7.72024 10.0812 6.82368 9.56348L5.57359 11.7285C5.27451 11.5558 5.1707 11.172 5.34559 10.8713L7.50667 12.1281ZM30.9289 11.4384C30.0324 11.9561 29.725 13.103 30.2427 13.9997L32.4077 12.7496C32.5805 13.0488 32.4781 13.4308 32.179 13.6034L30.9289 11.4384ZM30.2424 13.9991C31.2279 15.708 31.7489 17.6539 31.7489 19.6244H34.2489C34.2489 17.2151 33.6125 14.8386 32.4081 12.7502L30.2424 13.9991ZM31.7489 19.6244C31.7489 21.595 31.2279 23.5408 30.2424 25.2497L32.4081 26.4987C33.6125 24.4102 34.2489 22.0337 34.2489 19.6244H31.7489ZM30.2447 25.2458C29.7218 26.1448 30.0318 27.2946 30.9309 27.8116L32.1771 25.6443C32.4762 25.8163 32.5812 26.2011 32.4058 26.5026L30.2447 25.2458ZM30.9353 27.8141C31.2225 27.9777 31.5432 28.0617 31.8665 28.0617V25.5617C31.9772 25.5617 32.083 25.5907 32.1727 25.6418L30.9353 27.8141ZM31.8665 28.0617C32.5114 28.0617 33.1442 27.7261 33.4913 27.1223L31.3241 25.8761C31.4413 25.6723 31.6541 25.5617 31.8665 25.5617V28.0617ZM33.4906 27.1236C34.8036 24.8466 35.4989 22.2539 35.4989 19.6244H32.9989C32.9989 21.8148 32.4192 23.9769 31.3248 25.8747L33.4906 27.1236ZM35.4989 19.6244C35.4989 16.9949 34.8036 14.402 33.489 12.1247L31.3239 13.3746C32.4193 15.2722 32.9989 17.4341 32.9989 19.6244H35.4989ZM33.4929 12.1315C32.9763 11.2236 31.8218 10.9229 30.9289 11.4384L32.179 13.6034C31.8836 13.774 31.4966 13.6782 31.32 13.3679L33.4929 12.1315ZM36.7394 10.255C36.2227 9.34978 35.0683 9.04398 34.1717 9.56545L35.4285 11.7265C35.1294 11.9005 34.7425 11.7997 34.5683 11.4944L36.7394 10.255ZM34.1751 9.56348C33.2785 10.0812 32.9697 11.23 33.4921 12.1281L35.6532 10.8713C35.8281 11.172 35.7242 11.5558 35.4252 11.7285L34.1751 9.56348ZM33.4897 12.124C34.803 14.402 35.4988 16.9967 35.4988 19.6244H37.9988C37.9988 16.5573 37.1872 13.5322 35.6556 10.8754L33.4897 12.124ZM35.4988 19.6244C35.4988 22.2521 34.803 24.8468 33.4897 27.1248L35.6556 28.3734C37.1872 25.7166 37.9988 22.6915 37.9988 19.6244H35.4988ZM33.4921 27.1207C32.9692 28.0197 33.2792 29.1695 34.1783 29.6865L35.4245 27.5192C35.7236 27.6912 35.8285 28.076 35.6532 28.3776L33.4921 27.1207ZM34.1827 29.689C34.4699 29.8526 34.7906 29.9366 35.1139 29.9366V27.4366C35.2246 27.4366 35.3303 27.4656 35.4201 27.5167L34.1827 29.689ZM35.1139 29.9366C35.7561 29.9366 36.3909 29.6022 36.7387 28.9972L34.5715 27.751C34.6893 27.546 34.9016 27.4366 35.1139 27.4366V29.9366ZM36.7375 28.9993C38.3823 26.1517 39.25 22.9111 39.25 19.6244H36.75C36.75 22.4725 35.9977 25.2817 34.5727 27.7489L36.7375 28.9993ZM39.25 19.6244C39.25 16.3374 38.3809 13.0969 36.7362 10.2495L34.5714 11.4999C35.9967 13.9674 36.75 16.7767 36.75 19.6244H39.25Z" fill="#727CF5" mask="url(#path-7-inside-3)"/>
</svg>
