<svg xmlns="http://www.w3.org/2000/svg" width="21" height="21" viewBox="0 0 21 21">
    <defs>
        <linearGradient id="5j1gqb0nsa" x2="1" y2=".983" gradientUnits="objectBoundingBox">
            <stop offset="0" stop-color="#bb76db"/>
            <stop offset="1" stop-color="#727cf5"/>
        </linearGradient>
    </defs>
    <g>
        <path fill="url(#5j1gqb0nsa)" stroke="rgba(0,0,0,0)" stroke-miterlimit="10" d="M2771.418-2002.542a1.112 1.112 0 0 1-.686-1.027v-16.29a2.6 2.6 0 0 1 2.6-2.6h14.8a2.6 2.6 0 0 1 2.6 2.6v11.84a2.6 2.6 0 0 1-2.6 2.6h-12.868l-2.637 2.637a1.111 1.111 0 0 1-.788.326 1.12 1.12 0 0 1-.421-.086zm1.536-17.317v13.607l1.066-1.065a1.11 1.11 0 0 1 .786-.327h13.329a.376.376 0 0 0 .375-.376v-11.84a.376.376 0 0 0-.375-.376h-14.8a.378.378 0 0 0-.381.378zm7.344 11.4a1.2 1.2 0 0 1-.355-.252 1.087 1.087 0 0 1-.327-.785.993.993 0 0 1 .09-.415 1.058 1.058 0 0 1 .237-.37 1.158 1.158 0 0 1 .355-.238 1.144 1.144 0 0 1 1.216.238 1.139 1.139 0 0 1 .325.785 1.114 1.114 0 0 1-.325.785 1.109 1.109 0 0 1-.787.327 1.448 1.448 0 0 1-.427-.078zm-.677-4a3.048 3.048 0 0 1 1.605-2.776c.5-.332.616-.41.616-.927a1.016 1.016 0 0 0-1.111-1.111 1.02 1.02 0 0 0-1.111 1.124 1.118 1.118 0 0 1-1.112 1.091h-.013a1.1 1.1 0 0 1-1.1-1.1 3.241 3.241 0 0 1 3.334-3.334 3.24 3.24 0 0 1 3.333 3.334 3.046 3.046 0 0 1-1.605 2.776c-.5.332-.617.41-.617.928a1.111 1.111 0 0 1-1.111 1.111 1.111 1.111 0 0 1-1.108-1.114z" transform="translate(14.768 .957) translate(-2785 2022)"/>
    </g>
</svg>
