<svg xmlns="http://www.w3.org/2000/svg" width="21.097" height="21.001" viewBox="0 0 21.097 21.001">
    <defs>
        <linearGradient id="c76lemlria" x2="1" y2="1" gradientUnits="objectBoundingBox">
            <stop offset="0" stop-color="#bb76db"/>
            <stop offset="1" stop-color="#727cf5"/>
        </linearGradient>
    </defs>
    <g>
        <path fill="url(#c76lemlria)" stroke="rgba(0,0,0,0)" stroke-miterlimit="10" d="M2870.028-1999.861v-10.324a1.111 1.111 0 0 1 1.111-1.111 1.111 1.111 0 0 1 1.112 1.111v10.324a1.112 1.112 0 0 1-1.112 1.111 1.111 1.111 0 0 1-1.111-1.111zm-5.927 0v-6.482a1.111 1.111 0 0 1 1.112-1.111 1.111 1.111 0 0 1 1.111 1.111v6.482a1.111 1.111 0 0 1-1.111 1.111 1.112 1.112 0 0 1-1.113-1.111zm-5.926 0v-6.482a1.111 1.111 0 0 1 1.111-1.111 1.111 1.111 0 0 1 1.111 1.111v6.482a1.111 1.111 0 0 1-1.111 1.111 1.111 1.111 0 0 1-1.11-1.111zm-5.926 0v-2.963a1.112 1.112 0 0 1 1.111-1.111 1.112 1.112 0 0 1 1.111 1.111v2.963a1.111 1.111 0 0 1-1.111 1.111 1.111 1.111 0 0 1-1.11-1.111zm.325-5.141a1.11 1.11 0 0 1 0-1.57l5.927-5.926a1.11 1.11 0 0 1 1.571 0l2.178 2.176 5.965-5.966-.767.062a1.109 1.109 0 0 1-1.2-1.016 1.109 1.109 0 0 1 1.017-1.2l3.78-.307a.087.087 0 0 1 .026 0h.025c.014 0 .025-.008.039-.008s.048.014.073.015a1.059 1.059 0 0 1 .3.059 1.128 1.128 0 0 1 .108.043 1.1 1.1 0 0 1 .248.167c.023.021.05.035.073.059a1.1 1.1 0 0 1 .211.3v.018a.709.709 0 0 1 .023.083 1.1 1.1 0 0 1 .064.31c0 .02.011.036.011.055v3.515a1.112 1.112 0 0 1-1.112 1.111 1.112 1.112 0 0 1-1.112-1.111v-.833l-6.992 6.991a1.11 1.11 0 0 1-1.571 0l-2.178-2.176-5.14 5.139a1.1 1.1 0 0 1-.786.326 1.105 1.105 0 0 1-.78-.314z" transform="translate(-2.653 -2.75) translate(-2849 2022)"/>
    </g>
</svg>
