<svg xmlns="http://www.w3.org/2000/svg" width="20" height="20" viewBox="0 0 20 20">
    <defs>
        <style>
            .cls-2{fill:#231f20}
        </style>
    </defs>
    <g id="icon_support" opacity="0.15" transform="translate(14.268 .457)">
        <path id="Path_421" d="M3.135-.457h-14.8a2.6 2.6 0 0 0-2.6 2.6v16.29a1.112 1.112 0 0 0 .686 1.027 1.127 1.127 0 0 0 .425.084 1.109 1.109 0 0 0 .787-.326l2.637-2.637H3.135a2.6 2.6 0 0 0 2.6-2.6V2.142a2.6 2.6 0 0 0-2.6-2.599zm.375 14.439a.377.377 0 0 1-.375.376h-13.329a1.109 1.109 0 0 0-.785.326l-1.067 1.065V2.142a.378.378 0 0 1 .378-.376h14.8a.377.377 0 0 1 .375.376z" class="cls-2" data-name="Path 421"/>
        <path id="Path_422" d="M-6.435 1.543a3.241 3.241 0 0 0-3.333 3.333 1.1 1.1 0 0 0 1.1 1.1h.013A1.117 1.117 0 0 0-7.546 4.89a1.021 1.021 0 0 1 1.111-1.125 1.016 1.016 0 0 1 1.111 1.111c0 .517-.119.6-.616.927A3.049 3.049 0 0 0-7.546 8.58a1.112 1.112 0 0 0 1.111 1.111A1.112 1.112 0 0 0-5.324 8.58c0-.517.119-.6.616-.927A3.047 3.047 0 0 0-3.1 4.876a3.24 3.24 0 0 0-3.335-3.333z" class="cls-2" data-name="Path 422" transform="translate(2.167 .963)"/>
        <path id="Path_423" d="M-7.59 7.626a1.161 1.161 0 0 0-.354.237 1.061 1.061 0 0 0-.237.37 1 1 0 0 0-.09.415 1.086 1.086 0 0 0 .327.785 1.208 1.208 0 0 0 .354.252 1.471 1.471 0 0 0 .43.074 1.111 1.111 0 0 0 .787-.326 1.115 1.115 0 0 0 .324-.785 1.141 1.141 0 0 0-.324-.785 1.145 1.145 0 0 0-1.217-.237z" class="cls-2" data-name="Path 423" transform="translate(2.887 3.853)"/>
    </g>
</svg>
