<svg xmlns="http://www.w3.org/2000/svg" width="20" height="20" viewBox="0 0 20 20">
    <path id="Path_413" fill="#231f20" d="M-36.255 9.363l8.889-5.926a1.111 1.111 0 0 1 1.233 0l8.889 5.926a1.109 1.109 0 0 1 .495.924v11.852a1.112 1.112 0 0 1-1.111 1.111h-5.926a1.112 1.112 0 0 1-1.114-1.111v-4.815h-3.7v4.815a1.112 1.112 0 0 1-1.111 1.111h-5.926a1.112 1.112 0 0 1-1.111-1.111V10.287a1.109 1.109 0 0 1 .493-.924zm1.727 11.665h3.7v-4.815a1.112 1.112 0 0 1 1.115-1.113h5.926a1.112 1.112 0 0 1 1.111 1.111v4.815h3.7V10.881L-26.75 5.7l-7.778 5.185z" data-name="Path 413" opacity="0.15" transform="translate(36.75 -3.25)"/>
</svg>
