<svg width="41" height="42" viewBox="0 0 41 42" version="1.1" xmlns="http://www.w3.org/2000/svg" xmlns:xlink="http://www.w3.org/1999/xlink">
  <title>Group</title>
  <desc>Created using Figma</desc>
  <g id="Canvas" transform="translate(9696 -1403)">
    <g id="Group">
      <g id="Group">
        <g id="Group">
          <g id="Group">
            <g id="Vector">
              <use xlink:href="#path0_fill" transform="translate(-9696 1403)" fill="#727cf5"/>
            </g>
          </g>
          <g id="Vector" style="mix-blend-mode:multiply">
            <use xlink:href="#path1_fill" transform="translate(-9692.04 1413.62)" fill="url(#paint1_linear)"/>
          </g>
        </g>
      </g>
    </g>
  </g>
  <defs>
    <linearGradient id="paint1_linear" x1="0" y1="0" x2="1" y2="0" gradientUnits="userSpaceOnUse" gradientTransform="matrix(3.20278 9.64289 -9.64289 3.20278 8.55769 -1.71687)">
      <stop offset="0" stop-color="rgba(0,0,0,0)"/>
      <stop offset="1" stop-color="rgba(0,0,0,0.3)"/>
    </linearGradient>
    <path
      id="path0_fill"
      d="M 28.1339 40.8967C 23.4819 42.2694 18.296 41.7356 14.4066 38.9901C 11.4324 36.931 9.44955 33.8805 8.83945 30.2962C 8.22934 26.7881 8.99197 23.2037 11.0511 20.2295C 11.1273 20.1532 11.1273 20.0769 11.2036 20.0007C 9.1445 18.7042 6.39904 16.6451 4.56873 14.281C 3.8061 13.3658 -2.44745 5.12943 1.06064 1.24002C 2.66216 -0.590288 5.33136 -0.132711 11.7374 0.934969C 14.3304 1.39255 16.0082 1.62133 17.6097 2.07891C 23.0243 3.45164 33.1673 6.04458 37.7431 14.4335C 40.8698 20.1532 41.8613 28.7709 36.9804 35.0245C 34.6926 37.9225 31.5658 39.9053 28.1339 40.8967ZM 18.296 20.1532C 16.847 20.6108 15.5506 21.4497 14.6354 22.8224C 13.2627 24.8052 12.7289 27.2457 13.1864 29.6098C 13.644 31.9739 14.9405 34.033 16.9233 35.4058C 21.8041 38.7613 29.5067 37.3123 33.4723 32.279C 37.6668 26.9406 35.5314 19.6956 33.8537 16.5689C 30.193 9.85772 21.5753 7.72236 16.4657 6.42589C 15.0167 6.04458 13.4915 5.81579 10.9748 5.35821C 9.98339 5.20569 8.99197 5.05316 8.00056 4.90064C 6.24651 4.59559 4.87378 6.50216 5.71267 8.10368C 6.32277 9.24762 7.0854 10.4678 8.00056 11.688C 9.83086 13.9759 12.8051 16.035 14.5592 17.0264C 18.2198 14.8911 22.9481 14.9673 26.6087 17.484C 30.8794 20.4583 31.9471 26.3305 28.9728 30.6012C 26.5324 34.1856 21.6516 35.1007 18.0673 32.7366C 17.0758 32.0502 16.6183 30.7537 17.2284 29.7623C 17.8385 28.6184 19.2875 28.2371 20.3551 28.9234C 22.0329 29.9911 24.2445 29.6861 25.3885 28.0845C 26.99 25.7967 26.3799 22.7461 24.092 21.1446C 22.338 19.8482 20.2026 19.6194 18.296 20.1532Z"/>
    <path
      id="path1_fill"
      d="M 3.35557 -2.9092e-07C 2.0591 0.762628 0.915154 1.75404 -1.4546e-07 2.97425C 0.305051 3.35556 0.53384 3.66062 0.610103 3.81314C 2.44041 6.17729 5.10961 8.16012 7.16871 9.45659C 8.08386 8.23639 9.22781 7.16871 10.6005 6.32982C 8.84649 5.26214 5.87224 3.35557 4.11819 1.06768C 3.88941 0.686366 3.58435 0.381314 3.35557 -2.9092e-07Z"/>
  </defs>
</svg>
