<svg width="168" height="42" viewBox="0 0 168 42" version="1.1" xmlns="http://www.w3.org/2000/svg" xmlns:xlink="http://www.w3.org/1999/xlink">
  <title>Group</title>
  <desc>Created using Figma</desc>
  <g id="Canvas" transform="translate(5335 1119)">
    <rect x="-5335" y="-1119" width="168" height="42" fill="#272727"/>
    <clipPath id="clip-0" clip-rule="evenodd">
      <path d="M -5712 -1154L -3792 -1154L -3792 -74L -5712 -74L -5712 -1154Z" fill="#FFFFFF"/>
    </clipPath>
    <g id="login_otp" clip-path="url(#clip-0)">
      <path d="M -5712 -1154L -3792 -1154L -3792 -74L -5712 -74L -5712 -1154Z" fill="#FFFFFF"/>
      <g id="haeder">
        <g id="Group">
          <g id="Group">
            <g id="Group">
              <g id="Group">
                <g id="Vector">
                  <use xlink:href="#path0_fill" transform="translate(-5335 -1119)" fill="#727cf5D9"/>
                </g>
              </g>
              <g id="Vector" style="mix-blend-mode:multiply">
                <use xlink:href="#path1_fill" transform="translate(-5331.04 -1108.38)" fill="url(#paint1_linear)"/>
              </g>
            </g>
            <g id="Group">
              <g id="Vector">
                <use xlink:href="#path2_fill" transform="translate(-5280.94 -1103.35)" fill="#727cf5D9"/>
              </g>
              <g id="Vector">
                <use xlink:href="#path3_fill" transform="translate(-5268.05 -1100.45)" fill="#727cf5D9"/>
              </g>
              <g id="Vector">
                <use xlink:href="#path4_fill" transform="translate(-5256.91 -1100.37)" fill="#727cf5D9"/>
              </g>
              <g id="Vector">
                <use xlink:href="#path5_fill" transform="translate(-5244.79 -1100.45)" fill="#727cf5D9"/>
              </g>
              <g id="Vector">
                <use xlink:href="#path6_fill" transform="translate(-5229 -1103.35)" fill="#727cf5D9"/>
              </g>
              <g id="Vector">
                <use xlink:href="#path7_fill" transform="translate(-5209.33 -1100.6)" fill="#727cf5D9"/>
              </g>
              <g id="Vector">
                <use xlink:href="#path8_fill" transform="translate(-5197.2 -1104.19)" fill="#727cf5D9"/>
              </g>
              <g id="Vector">
                <use xlink:href="#path9_fill" transform="translate(-5191.25 -1104.19)" fill="#727cf5D9"/>
              </g>
              <g id="Vector">
                <use xlink:href="#path10_fill" transform="translate(-5185.61 -1100.45)" fill="#727cf5D9"/>
              </g>
              <g id="Vector">
                <use xlink:href="#path11_fill" transform="translate(-5174.47 -1102.35)" fill="#727cf5D9"/>
              </g>
            </g>
          </g>
        </g>
      </g>
    </g>
  </g>
  <defs>
    <linearGradient id="paint1_linear" x1="0" y1="0" x2="1" y2="0" gradientUnits="userSpaceOnUse" gradientTransform="matrix(3.20278 9.64289 -9.64289 3.20278 8.55769 -1.71687)">
      <stop offset="0" stop-color="rgba(0,0,0,0)"/>
      <stop offset="1" stop-color="rgba(0,0,0,0.3)"/>
    </linearGradient>
    <path
      id="path0_fill"
      d="M 28.1339 40.8967C 23.4819 42.2694 18.296 41.7356 14.4066 38.9901C 11.4324 36.931 9.44955 33.8805 8.83945 30.2962C 8.22934 26.7881 8.99197 23.2037 11.0511 20.2295C 11.1273 20.1532 11.1273 20.0769 11.2036 20.0007C 9.1445 18.7042 6.39904 16.6451 4.56873 14.281C 3.8061 13.3658 -2.44745 5.12943 1.06064 1.24002C 2.66216 -0.590288 5.33136 -0.132711 11.7374 0.934969C 14.3304 1.39255 16.0082 1.62133 17.6097 2.07891C 23.0243 3.45164 33.1673 6.04458 37.7431 14.4335C 40.8698 20.1532 41.8613 28.7709 36.9804 35.0245C 34.6926 37.9225 31.5658 39.9053 28.1339 40.8967ZM 18.296 20.1532C 16.847 20.6108 15.5506 21.4497 14.6354 22.8224C 13.2627 24.8052 12.7289 27.2457 13.1864 29.6098C 13.644 31.9739 14.9405 34.033 16.9233 35.4058C 21.8041 38.7613 29.5067 37.3123 33.4723 32.279C 37.6668 26.9406 35.5314 19.6956 33.8537 16.5689C 30.193 9.85772 21.5753 7.72236 16.4657 6.42589C 15.0167 6.04458 13.4915 5.81579 10.9748 5.35821C 9.98339 5.20569 8.99197 5.05316 8.00056 4.90064C 6.24651 4.59559 4.87378 6.50216 5.71267 8.10368C 6.32277 9.24762 7.0854 10.4678 8.00056 11.688C 9.83086 13.9759 12.8051 16.035 14.5592 17.0264C 18.2198 14.8911 22.9481 14.9673 26.6087 17.484C 30.8794 20.4583 31.9471 26.3305 28.9728 30.6012C 26.5324 34.1856 21.6516 35.1007 18.0673 32.7366C 17.0758 32.0502 16.6183 30.7537 17.2284 29.7623C 17.8385 28.6184 19.2875 28.2371 20.3551 28.9234C 22.0329 29.9911 24.2445 29.6861 25.3885 28.0845C 26.99 25.7967 26.3799 22.7461 24.092 21.1446C 22.338 19.8482 20.2026 19.6194 18.296 20.1532Z"/>
    <path
      id="path1_fill"
      d="M 3.35557 -2.9092e-07C 2.0591 0.762628 0.915154 1.75404 -1.4546e-07 2.97425C 0.305051 3.35556 0.53384 3.66062 0.610103 3.81314C 2.44041 6.17729 5.10961 8.16012 7.16871 9.45659C 8.08386 8.23639 9.22781 7.16871 10.6005 6.32982C 8.84649 5.26214 5.87224 3.35557 4.11819 1.06768C 3.88941 0.686366 3.58435 0.381314 3.35557 -2.9092e-07Z"/>
    <path
      id="path2_fill"
      d="M 11.2106 6.40608C 11.2106 8.6177 10.6005 10.2955 9.38033 11.5157C 8.16012 12.7359 6.48234 13.346 4.27072 13.346L 1.16368e-06 13.346L 1.16368e-06 0L 4.57577 0C 6.71113 0 8.31265 0.53384 9.53286 1.60152C 10.6768 2.74546 11.2106 4.34698 11.2106 6.40608ZM 7.47376 6.48234C 7.47376 5.26214 7.24497 4.34698 6.7874 3.81314C 6.32982 3.20304 5.56719 2.89799 4.57577 2.89799L 3.50809 2.89799L 3.50809 10.2955L 4.27072 10.2955C 5.3384 10.2955 6.17729 9.99043 6.63487 9.38033C 7.24497 8.77023 7.47376 7.77881 7.47376 6.48234Z"/>
    <path
      id="path3_fill"
      d="M 10.2955 5.26214C 10.2955 6.93992 9.83791 8.23639 8.92275 9.22781C 8.0076 10.2192 6.78739 10.6005 5.10961 10.6005C 3.58435 10.6005 2.28788 10.143 1.37273 9.15154C 0.457576 8.16012 2.32736e-06 6.86366 2.32736e-06 5.26214C 2.32736e-06 3.58435 0.457576 2.28789 1.37273 1.37273C 2.28788 0.457577 3.50809 -5.81839e-07 5.18587 -5.81839e-07C 6.17729 -5.81839e-07 7.09244 0.228789 7.85507 0.610103C 8.6177 1.06768 9.22781 1.67778 9.60912 2.44041C 10.143 3.20304 10.2955 4.19446 10.2955 5.26214ZM 3.66062 5.26214C 3.66062 6.17729 3.81314 6.78739 4.04193 7.24497C 4.27072 7.70255 4.65203 7.93134 5.26213 7.93134C 5.79597 7.93134 6.17729 7.70255 6.40608 7.24497C 6.63487 6.78739 6.71113 6.10103 6.71113 5.26214C 6.71113 4.42325 6.5586 3.73688 6.32981 3.2793C 6.10103 2.82173 5.71971 2.59294 5.18587 2.59294C 4.65203 2.59294 4.27072 2.82173 4.04193 3.2793C 3.81314 3.66062 3.66062 4.34698 3.66062 5.26214Z"/>
    <path
      id="path4_fill"
      d="M 3.88941 10.2955L 1.16368e-06 -2.9092e-07L 3.73688 -2.9092e-07L 5.49092 6.10103C 5.49092 6.10103 5.49092 6.17729 5.49092 6.25355C 5.49092 6.32982 5.49092 6.40608 5.56719 6.48234C 5.56719 6.55861 5.56719 6.71113 5.64345 6.78739C 5.64345 6.86366 5.64345 7.01618 5.64345 7.09245L 5.71971 7.09245C 5.71971 6.78739 5.79598 6.40608 5.87224 6.10103L 7.70255 -2.9092e-07L 11.3632 -2.9092e-07L 7.47376 10.2955L 3.88941 10.2955Z"/>
    <path
      id="path5_fill"
      d="M 5.41466 10.6005C 3.73688 10.6005 2.36415 10.143 1.44899 9.22781C 0.533838 8.31265 2.32736e-06 7.01618 2.32736e-06 5.3384C 2.32736e-06 3.58435 0.457577 2.28789 1.29647 1.37273C 2.13536 0.457577 3.43183 -5.81839e-07 5.03335 -5.81839e-07C 6.55861 -5.81839e-07 7.77881 0.381314 8.61771 1.22021C 9.4566 2.0591 9.91417 3.20304 9.91417 4.7283L 9.91417 6.32981L 3.58435 6.32981C 3.58435 6.93992 3.81314 7.32123 4.19446 7.70255C 4.57577 8.0076 5.10961 8.16012 5.79598 8.16012C 6.40608 8.16012 7.01618 8.08386 7.55002 8.0076C 8.08386 7.85507 8.6177 7.70255 9.2278 7.3975L 9.2278 9.91417C 8.69396 10.2192 8.08387 10.3717 7.47376 10.5243C 6.93992 10.5243 6.17729 10.6005 5.41466 10.6005ZM 5.18587 2.36415C 4.80456 2.36415 4.42324 2.51667 4.11819 2.74546C 3.81314 2.97425 3.66062 3.43183 3.66062 3.96567L 6.71113 3.96567C 6.71113 3.43183 6.5586 3.05051 6.25355 2.74546C 6.02477 2.51667 5.64345 2.36415 5.18587 2.36415Z"/>
    <path
      id="path6_fill"
      d="M 15.4814 13.2697L 11.2106 13.2697L 9.91417 7.47376C 9.83791 7.24497 9.76165 6.78739 9.60912 6.02476C 9.4566 5.3384 9.38033 4.7283 9.30406 4.19446C 9.2278 4.57577 9.15154 5.10961 9.07527 5.64345C 8.99901 6.25355 8.84649 6.78739 8.77023 7.24497C 8.69396 7.70255 8.23639 9.68538 7.47376 13.1935L 3.20304 13.1935L 0 0L 3.43183 0L 4.88082 6.63487C 5.18587 8.08386 5.41466 9.30407 5.56719 10.143C 5.64345 9.53286 5.79597 8.69396 6.02476 7.62629C 6.25355 6.55861 6.40608 5.71971 6.55861 5.03335L 7.70255 0L 11.0581 0L 12.2021 5.03335C 12.4308 5.87224 12.5834 6.78739 12.8122 7.85507C 13.0409 8.92275 13.1172 9.68538 13.1935 10.2192C 13.2697 9.53286 13.4985 8.38891 13.8036 6.71113L 15.2526 0.0762631L 18.6844 0.0762631L 15.4814 13.2697Z"/>
    <path
      id="path7_fill"
      d="M 7.24497 10.5243L 6.5586 9.15154L 6.48234 9.15154C 6.02477 9.76164 5.49092 10.143 5.03334 10.3717C 4.57577 10.6005 3.8894 10.6768 3.12677 10.6768C 2.13535 10.6768 1.37273 10.3717 0.838887 9.83791C 0.305047 9.2278 2.32736e-06 8.46518 2.32736e-06 7.3975C 2.32736e-06 6.32982 0.381317 5.49093 1.14394 4.95709C 1.90657 4.42325 2.97426 4.11819 4.42325 4.04193L 6.10103 3.96567L 6.10103 3.81314C 6.10103 2.97425 5.71971 2.51667 4.88082 2.51667C 4.11819 2.51667 3.20304 2.74546 2.0591 3.2793L 1.06768 0.915154C 2.28788 0.305051 3.81315 2.9092e-07 5.56719 2.9092e-07C 6.86366 2.9092e-07 7.93134 0.305051 8.61771 0.991417C 9.30407 1.67778 9.68538 2.59294 9.68538 3.73688L 9.68538 10.448L 7.24497 10.448L 7.24497 10.5243ZM 4.65203 8.23639C 5.10961 8.23639 5.41466 8.08386 5.71972 7.85507C 6.02477 7.55002 6.17729 7.24497 6.17729 6.78739L 6.17729 6.02477L 5.3384 6.02477C 4.19446 6.10103 3.58435 6.48234 3.58435 7.32123C 3.66062 7.93134 3.96566 8.23639 4.65203 8.23639Z"/>
    <path id="path8_fill" d="M 3.58435 14.1086L -2.32736e-06 14.1086L -2.32736e-06 -2.9092e-07L 3.58435 -2.9092e-07L 3.58435 14.1086Z"/>
    <path id="path9_fill" d="M 3.58435 14.1086L 0 14.1086L 0 -2.9092e-07L 3.58435 -2.9092e-07L 3.58435 14.1086Z"/>
    <path
      id="path10_fill"
      d="M 5.41466 10.6005C 3.73688 10.6005 2.36415 10.143 1.449 9.22781C 0.533842 8.31265 -4.65471e-06 7.01618 -4.65471e-06 5.3384C -4.65471e-06 3.58435 0.457582 2.28789 1.29647 1.37273C 2.13536 0.457577 3.43183 -5.81839e-07 5.03335 -5.81839e-07C 6.5586 -5.81839e-07 7.77881 0.381314 8.6177 1.22021C 9.45659 2.0591 9.91417 3.20304 9.91417 4.7283L 9.91417 6.32981L 3.58436 6.32981C 3.58436 6.93992 3.81314 7.32123 4.19445 7.70255C 4.57577 8.0076 5.10961 8.16012 5.79598 8.16012C 6.40608 8.16012 7.01618 8.08386 7.55002 8.0076C 8.08386 7.85507 8.6177 7.70255 9.22781 7.3975L 9.22781 9.91417C 8.69396 10.2192 8.08386 10.3717 7.47376 10.5243C 6.86365 10.6768 6.17729 10.6005 5.41466 10.6005ZM 5.18587 2.36415C 4.80456 2.36415 4.42325 2.51667 4.1182 2.74546C 3.81314 2.97425 3.66061 3.43183 3.66061 3.96567L 6.71113 3.96567C 6.71113 3.43183 6.55861 3.05051 6.25356 2.74546C 6.02477 2.51667 5.64345 2.36415 5.18587 2.36415Z"/>
    <path
      id="path11_fill"
      d="M 5.79598 9.68538C 6.25356 9.68538 6.86366 9.53286 7.47376 9.30407L 7.47376 11.897C 7.01618 12.1258 6.5586 12.2783 6.10103 12.3546C 5.64345 12.4308 5.18587 12.5071 4.57577 12.5071C 3.35557 12.5071 2.51668 12.2021 1.98284 11.6682C 1.449 11.0581 1.22021 10.2192 1.22021 8.99901L 1.22021 4.7283L 2.16752e-14 4.7283L 2.16752e-14 3.2793L 1.60152 2.13536L 2.51668 -5.81839e-07L 4.80456 -5.81839e-07L 4.80456 2.0591L 7.32124 2.0591L 7.32124 4.7283L 4.80456 4.7283L 4.80456 8.69396C 4.88082 9.38033 5.18588 9.68538 5.79598 9.68538Z"/>
  </defs>
</svg>
