<svg width="60" height="60" viewBox="0 0 60 60" fill="none" xmlns="http://www.w3.org/2000/svg">
<g clip-path="url(#clip0)">
<g filter="url(#filter0_d)">
<rect x="3" y="3" width="55" height="55.5" rx="1" stroke="black" stroke-opacity="0.54" stroke-width="0.533333"/>
</g>
<path d="M5.99999 31.5H55.5" stroke="#979797" stroke-opacity="0.74" stroke-width="0.833333" stroke-linecap="square" stroke-linejoin="bevel" stroke-dasharray="2.5 2.5"/>
<rect x="9" y="37.5" width="17.1875" height="17.1875" fill="#C4C4C4" fill-opacity="0.54"/>
<path d="M17.4928 39.2188C15.8993 39.2549 14.8905 39.8998 14.457 40.8966C14.0436 41.8465 14.1305 43.0413 14.4249 44.2843C14.267 44.4702 14.1372 44.7312 14.1693 45.1232V45.1446C14.2269 45.558 14.3513 45.851 14.5092 46.0571C14.5854 46.1561 14.6925 46.1614 14.7861 46.2163C14.8678 46.6806 15.0524 47.1221 15.2638 47.47C15.2745 47.5208 15.2959 47.5663 15.3267 47.6078C15.3267 47.6078 15.3615 47.6519 15.3695 47.6613C15.4765 47.8205 15.5287 48.0426 15.5287 48.2875C15.5287 48.5484 15.5247 48.7919 15.4966 49.0621C15.3949 49.3204 15.1407 49.5264 14.7326 49.7311C14.3071 49.9465 13.7492 50.1445 13.1819 50.3894C12.616 50.6356 12.0406 50.9299 11.579 51.3982C11.1174 51.8678 10.787 52.5168 10.7401 53.3637L10.7187 53.7249H24.3526L24.3325 53.3637C24.2857 52.5168 23.9632 51.8692 23.5043 51.3982C23.044 50.9286 22.4674 50.6356 21.9001 50.3894C21.3328 50.1445 20.7722 49.9479 20.3387 49.7311C19.9199 49.5224 19.6577 49.3083 19.5426 49.0421C19.5158 48.7196 19.5105 48.4667 19.5105 48.1818C19.5105 47.9998 19.5734 47.8352 19.6804 47.672C19.6831 47.668 19.6884 47.6653 19.6911 47.6613C19.6924 47.6586 19.7125 47.6399 19.7125 47.6399C19.7553 47.5957 19.7848 47.5409 19.7981 47.4807C20.0029 47.1274 20.1741 46.6792 20.2544 46.227C20.3601 46.1721 20.4805 46.1654 20.5621 46.0571C20.7254 45.8443 20.8217 45.5393 20.8591 45.1232C20.8899 44.7633 20.7869 44.5024 20.6263 44.3057C20.803 43.7611 21.0117 42.8901 20.9448 42.0017C20.9073 41.5134 20.7789 41.025 20.4885 40.6209C20.225 40.2543 19.8008 40.0041 19.267 39.8877C18.9071 39.4074 18.2541 39.2188 17.5035 39.2188H17.4928ZM17.5035 39.8984C17.5076 39.8984 17.5102 39.8984 17.5142 39.8984C18.1926 39.9011 18.6274 40.0924 18.7679 40.3346L18.8522 40.4831L19.0221 40.5045C19.4904 40.5688 19.746 40.7494 19.936 41.0143C20.1259 41.2779 20.2343 41.6472 20.2651 42.0539C20.328 42.87 20.0912 43.828 19.936 44.2629L19.8289 44.5492L20.0952 44.6883C20.0925 44.6977 20.2035 44.8101 20.1902 45.059C20.1902 45.0643 20.1902 45.0643 20.1902 45.0697C20.1594 45.3894 20.0764 45.5701 20.0202 45.6436C19.9641 45.7172 19.9346 45.7065 19.9467 45.7065H19.6496L19.6068 46.0049C19.5479 46.4451 19.3245 47.0003 19.1292 47.2786H19.1185C19.0984 47.3081 19.0837 47.3429 19.0649 47.375C18.9766 47.478 18.8415 47.6145 18.6515 47.7777C18.3331 48.048 17.913 48.2875 17.5357 48.2875C17.161 48.2875 16.7369 48.0373 16.4104 47.7563C16.1281 47.5141 15.9595 47.3054 15.9114 47.2465C15.91 47.2438 15.9127 47.2385 15.9114 47.2358C15.7107 46.9468 15.4805 46.4397 15.423 46.0049L15.3909 45.7065H15.1153C15.1032 45.7025 15.0711 45.6851 15.0404 45.6436C14.9801 45.5647 14.8959 45.3814 14.849 45.0697C14.849 45.063 14.849 45.0656 14.849 45.059C14.8477 45.0536 14.8504 45.0536 14.849 45.0482C14.8437 44.7914 15.0029 44.6482 14.9775 44.6669L15.1675 44.5291L15.1153 44.295C14.8022 43.056 14.7527 41.9348 15.0832 41.1735C15.4136 40.4136 16.0826 39.9332 17.5035 39.8984ZM16.2084 48.4681C16.567 48.7317 17.0152 48.9671 17.5357 48.9671C18.0454 48.9671 18.4829 48.7437 18.8308 48.4895C18.8321 48.6969 18.8388 48.9083 18.8629 49.1692V49.212L18.8843 49.2535C18.9445 49.41 19.0288 49.5438 19.1292 49.6682C19.1251 49.6816 19.1211 49.6963 19.1185 49.711C19.1185 49.711 19.0368 49.9331 18.8 50.178C18.5619 50.4215 18.1926 50.6663 17.5357 50.6663C16.8814 50.6663 16.4987 50.4108 16.2512 50.1566C16.0023 49.901 15.9221 49.6682 15.9221 49.6682C16.0197 49.5411 16.1014 49.4033 16.1549 49.2428L16.1763 49.1799C16.2057 48.9216 16.2084 48.6902 16.2084 48.4681ZM19.6603 50.1352C19.7794 50.2128 19.9025 50.2837 20.0309 50.3479C20.5273 50.5941 21.0906 50.7854 21.6245 51.0169C22.1583 51.247 22.656 51.5093 23.0146 51.8772C23.3023 52.1702 23.4749 52.5609 23.5672 53.0452H11.5041C11.5978 52.5609 11.769 52.1702 12.0567 51.8772C12.4179 51.5093 12.925 51.247 13.4589 51.0169C13.9914 50.7854 14.5493 50.5954 15.0404 50.3479C15.1621 50.285 15.2879 50.2195 15.4016 50.1459C15.4779 50.2824 15.5943 50.4603 15.7629 50.6342C16.1094 50.9915 16.6954 51.346 17.5357 51.346C18.3732 51.346 18.9485 50.9955 19.2884 50.6449C19.4744 50.4536 19.5867 50.2757 19.6603 50.1352Z" fill="black" fill-opacity="0.54"/>
<line x1="30" y1="41.5417" x2="50.625" y2="41.5417" stroke="#969595" stroke-opacity="0.74" stroke-width="0.916667"/>
<line x1="30" y1="44.9792" x2="50.625" y2="44.9792" stroke="#969595" stroke-opacity="0.74" stroke-width="0.916667"/>
<line x1="30" y1="48.4167" x2="50.625" y2="48.4167" stroke="#969595" stroke-opacity="0.74" stroke-width="0.916667"/>
<line x1="30" y1="51.8542" x2="50.625" y2="51.8542" stroke="#969595" stroke-opacity="0.74" stroke-width="0.916667"/>
<circle cx="30" cy="16.5" r="8.625" stroke="#757575" stroke-width="0.75"/>
<path d="M34.675 16.5C34.675 18.9407 34.1247 21.1342 33.2514 22.7061C32.372 24.289 31.2091 25.175 30 25.175C28.7909 25.175 27.628 24.289 26.7486 22.7061C25.8753 21.1342 25.325 18.9407 25.325 16.5C25.325 14.0593 25.8753 11.8658 26.7486 10.2939C27.628 8.71098 28.7909 7.825 30 7.825C31.2091 7.825 32.372 8.71098 33.2514 10.2939C34.1247 11.8658 34.675 14.0593 34.675 16.5Z" stroke="#757575" stroke-width="0.65"/>
<path d="M30.1542 8.16669L30.1541 25.2819" stroke="#757575" stroke-width="0.65"/>
<path d="M21.2058 16.2708H38.7381" stroke="#757575" stroke-width="0.75"/>
<path d="M22.3333 12.5L37.6667 12.5" stroke="#757575" stroke-width="0.75"/>
<line x1="22.3333" y1="20.4584" x2="37.6667" y2="20.4584" stroke="#757575" stroke-width="0.75"/>
</g>
<defs>
<filter id="filter0_d" x="-5.6" y="2.73334" width="72.2" height="77.7" filterUnits="userSpaceOnUse" color-interpolation-filters="sRGB">
<feFlood flood-opacity="0" result="BackgroundImageFix"/>
<feColorMatrix in="SourceAlpha" type="matrix" values="0 0 0 0 0 0 0 0 0 0 0 0 0 0 0 0 0 0 127 0"/>
<feOffset dy="13.3333"/>
<feGaussianBlur stdDeviation="4.16667"/>
<feColorMatrix type="matrix" values="0 0 0 0 0.475 0 0 0 0 0.473021 0 0 0 0 0.473021 0 0 0 0.05 0"/>
<feBlend mode="normal" in2="BackgroundImageFix" result="effect1_dropShadow"/>
<feBlend mode="normal" in="SourceGraphic" in2="effect1_dropShadow" result="shape"/>
</filter>
<clipPath id="clip0">
<rect width="60" height="60" fill="white"/>
</clipPath>
</defs>
</svg>
