<svg width="22" height="20" xmlns="http://www.w3.org/2000/svg" xmlns:xlink="http://www.w3.org/1999/xlink"><use xlink:href="#path0_fill" transform="translate(0 13.146)" fill="#727cf5"/><use xlink:href="#path1_fill" transform="translate(4.6)" fill="#727cf5"/><defs><path id="path0_fill" d="M13.99.04a.982.982 0 0 0-.91.186L11 1.947 8.92.227A.995.995 0 0 0 8.01.04C6.673.46 0 2.692 0 5.924c0 .512.43.93.957.93h20.087c.526 0 .956-.418.956-.93C22 2.692 15.328.46 13.99.04z"/><path id="path1_fill" d="M6.433 12.581c3.539 0 6.432-2.814 6.432-6.279C12.865 2.814 9.972 0 6.433 0 2.893 0 0 2.814 0 6.28c0 3.487 2.893 6.301 6.433 6.301z"/></defs></svg>