<svg width="21" height="21" xmlns="http://www.w3.org/2000/svg" xmlns:xlink="http://www.w3.org/1999/xlink"><g transform="translate(-7916 657)"><mask id="a"><use xlink:href="#path0_fill" fill="#fff" transform="matrix(.6919 -.72199 .6919 .72199 7913 -648)"/></mask><g mask="url(#a)"><use xlink:href="#path1_stroke_2x" transform="matrix(.6919 -.72199 .6919 .72199 7913 -648)" fill="#727cf5"/></g></g><use xlink:href="#path2_stroke" transform="scale(.9785 1.02104) rotate(45 -10.543 23.647)" fill="#727cf5"/><defs><path id="path0_fill" d="M16.62 8.31A8.31 8.31 0 1 1 0 8.31a8.31 8.31 0 0 1 16.62 0z"/><path id="path1_stroke_2x" d="M14.62 8.31a6.31 6.31 0 0 1-6.31 6.31v4c5.695 0 10.31-4.615 10.31-10.31h-4zm-6.31 6.31A6.31 6.31 0 0 1 2 8.31h-4c0 5.695 4.616 10.31 10.31 10.31v-4zM2 8.31A6.31 6.31 0 0 1 8.31 2v-4C2.616-2-2 2.616-2 8.31h4zM8.31 2a6.31 6.31 0 0 1 6.31 6.31h4C18.62 2.616 14.006-2 8.31-2v4z"/><path id="path2_stroke" d="M0 0h8.748v-2H0v2z"/></defs></svg>