<svg width="40" height="40" viewBox="0 0 40 40" fill="none" xmlns="http://www.w3.org/2000/svg">
<path d="M27.8618 38.9471C23.4201 40.2543 18.4687 39.746 14.7552 37.1314C11.9155 35.1704 10.0223 32.2654 9.43975 28.8519C8.85723 25.5111 9.58537 22.0975 11.5514 19.2651C11.6241 19.1925 11.6241 19.1198 11.697 19.0472C9.73101 17.8125 7.10969 15.8516 5.36214 13.6002C4.634 12.7286 -1.33679 4.8849 2.01268 1.18091C3.54178 -0.562148 6.09029 -0.126385 12.2067 0.890397C14.6824 1.32616 16.2843 1.54404 17.8134 1.9798C22.9832 3.28709 32.6676 5.75642 37.0365 13.7454C40.0218 19.1925 40.9684 27.3993 36.3082 33.3548C34.1239 36.1147 31.1385 38.0029 27.8618 38.9471ZM18.4687 19.1925C17.0852 19.6282 15.8474 20.4272 14.9736 21.7344C13.663 23.6227 13.1533 25.9468 13.5901 28.1982C14.0271 30.4496 15.2649 32.4106 17.1581 33.7179C21.8182 36.9135 29.1725 35.5335 32.9588 30.7402C36.9636 25.6563 34.9248 18.7567 33.3229 15.779C29.8277 9.38778 21.5997 7.35422 16.7212 6.11956C15.3377 5.75642 13.8814 5.53854 11.4785 5.10277C10.532 4.95752 9.58537 4.81227 8.63879 4.66702C6.96406 4.37651 5.6534 6.19219 6.45435 7.71736C7.03687 8.80677 7.76501 9.96878 8.63879 11.1308C10.3863 13.3096 13.2261 15.2706 14.9009 16.2147C18.3959 14.1812 22.9104 14.2538 26.4055 16.6505C30.4831 19.483 31.5025 25.0753 28.6627 29.1424C26.3327 32.5559 21.6726 33.4274 18.2503 31.176C17.3037 30.5223 16.8669 29.2876 17.4494 28.3435C18.0319 27.2541 19.4154 26.891 20.4347 27.5446C22.0366 28.5614 24.1482 28.2709 25.2405 26.7457C26.7696 24.5669 26.1871 21.6617 24.0026 20.1366C22.3279 18.902 20.2891 18.6841 18.4687 19.1925Z" fill="url(#paint0_linear)"/>
<g style="mix-blend-mode:multiply">
<path style="mix-blend-mode:multiply" d="M8.08091 10C6.8723 10.7258 5.80589 11.6694 4.95276 12.8306C5.23714 13.1935 5.45042 13.4839 5.52151 13.629C7.22777 15.879 9.71607 17.7661 11.6356 19C12.4887 17.8387 13.5552 16.8226 14.8348 16.0242C13.1997 15.0081 10.427 13.1936 8.79184 11.0161C8.57856 10.6532 8.29418 10.3629 8.08091 10Z" fill="url(#paint1_linear)"/>
</g>
<defs>
<linearGradient id="paint0_linear" x1="1" y1="0" x2="47.0496" y2="44.3666" gradientUnits="userSpaceOnUse">
<stop stop-color="#BB76DB"/>
<stop offset="0.59116" stop-color="#727CF5"/>
</linearGradient>
<linearGradient id="paint1_linear" x1="12.9305" y1="8.36603" x2="16.0293" y2="17.505" gradientUnits="userSpaceOnUse">
<stop stop-opacity="0"/>
<stop offset="1" stop-opacity="0.3"/>
</linearGradient>
</defs>
</svg>
