<svg width="34" height="68" viewBox="0 0 34 68" fill="none" xmlns="http://www.w3.org/2000/svg">
<g clip-path="url(#clip0)">
<path d="M29.3636 15.4545L29.3636 51C29.3636 57.8309 23.8309 63.3636 17 63.3636C10.1691 63.3636 4.63636 57.8309 4.63636 51L4.63636 12.3636C4.63636 8.09819 8.09818 4.63636 12.3636 4.63636C16.6291 4.63636 20.0909 8.09819 20.0909 12.3636L20.0909 44.8182C20.0909 46.5182 18.7 47.9091 17 47.9091C15.3 47.9091 13.9091 46.5182 13.9091 44.8182L13.9091 15.4545H9.27273L9.27273 44.8182C9.27273 49.0836 12.7345 52.5455 17 52.5455C21.2655 52.5455 24.7273 49.0836 24.7273 44.8182L24.7273 12.3636C24.7273 5.53273 19.1945 0 12.3636 0C5.53273 0 0 5.53273 0 12.3636L0 51C0 60.3964 7.60364 68 17 68C26.3964 68 34 60.3964 34 51V15.4545H29.3636Z" fill="black" fill-opacity="0.54"/>
</g>
<defs>
<clipPath id="clip0">
<rect y="68" width="68" height="34" transform="rotate(-90 0 68)" fill="white"/>
</clipPath>
</defs>
</svg>
