<svg xmlns="http://www.w3.org/2000/svg" width="14" height="14" viewBox="0 0 14 14">
    <g id="icon_popup_5" transform="translate(39.931 -97.655)">
        <g id="Group_330" data-name="Group 330">
            <circle id="Ellipse_56" cx="7" cy="7" r="7" fill="#fff" data-name="Ellipse 56" transform="translate(-39.931 97.655)"/>
            <path id="Path_297" fill="#e5e5e5" d="M-32.931 98.655a6.007 6.007 0 0 1 6 6 6.007 6.007 0 0 1-6 6 6.007 6.007 0 0 1-6-6 6.007 6.007 0 0 1 6-6m0-1a7 7 0 0 0-7 7 7 7 0 0 0 7 7 7 7 0 0 0 7-7 7 7 0 0 0-7-7z" data-name="Path 297"/>
        </g>
        <path id="Path_298" d="M-29.931 106.755h-6a.6.6 0 0 1-.6-.6.6.6 0 0 1 .6-.6h6a.6.6 0 0 1 .6.6.6.6 0 0 1-.6.6z" data-name="Path 298"/>
        <path id="Path_299" d="M-29.931 103.755h-6a.6.6 0 0 1-.6-.6.6.6 0 0 1 .6-.6h6a.6.6 0 0 1 .6.6.6.6 0 0 1-.6.6z" data-name="Path 299"/>
    </g>
</svg>
