<svg xmlns="http://www.w3.org/2000/svg" width="320" height="268" viewBox="0 0 320 268">
    <defs>
        <linearGradient id="linear-gradient" x1=".5" x2=".5" y2="1" gradientUnits="objectBoundingBox">
            <stop offset="0" stop-color="#bb76db"/>
            <stop offset="1" stop-color="#727cf5"/>
        </linearGradient>
        <style>
            .cls-2{fill-rule:evenodd;fill:url(#linear-gradient)}
        </style>
    </defs>
    <g id="tutorial_1" transform="translate(0 -20)">
        <path id="Rectangle_9" fill="#fff" d="M0 0H320V268H0z" data-name="Rectangle 9" transform="translate(0 20)"/>
        <g id="main-bonus" transform="translate(112.926 91)">
            <path id="Path_442" d="M41.791 5.006l-.254 1.164-.71-.144-.458-.093-.71-.144.254-1.165.14-.64-.888-.18L38 3.568l.141-.645.114-.52.141-.645L39.559 2l.888.18.221-1.011L40.922 0l.71.144.459.093.71.144-.254 1.165-.221 1.011.907.184 1.168.237-.141.645-.114.52-.141.645-1.168-.237-.907-.184zm-18.951 9.58l-.254 1.165-.71-.144-.458-.093-.71-.144.254-1.165.377-1.727-1.847-.378-1.168-.237.141-.645.113-.52.141-.645 1.168.237 1.847.374.378-1.733.254-1.165.71.144.458.093.71.144-.254 1.165-.378 1.733 1.827.37 1.168.237-.141.645-.113.52-.141.645-1.168-.237-1.827-.37zM4.587 46.03l-.254 1.165-.71-.144-.459-.093-.71-.144.254-1.165.339-1.549-1.832-.371-1.168-.237.141-.645.114-.52.141-.644 1.168.237 1.832.371.417-1.911.254-1.165.71.144.458.093.71.144-.254 1.164-.417 1.911 1.842.373 1.168.237-.141.645-.114.52-.141.644-1.168-.237-1.841-.373zm-1.46 17.46l-.254 1.165-.71-.144-.463-.094-.71-.144.254-1.165.06-.274-.141-.029L0 62.569l.141-.644.114-.52.145-.645 1.164.24.141.028.024-.11.254-1.165.71.144.459.093.71.144-.255 1.166-.024.11.34.069 1.168.237-.141.645-.114.52-.136.639-1.168-.237-.34-.069zm91.25 19.247h-14.4V95.11h10.168v16.26h-1.727v14.408H23.539v-16.26h1.726V97.143H15.1v-16.26h14.4V66.475h33.835a28.592 28.592 0 1 1 2.9 0h28.143v16.26zm-44.34-1.931h3.647V68.777h-3.647v12.028zm-4.991 0V68.777H37.94v12.028zm-5.959 14.226h-3.446V83h3.446v12.032zm-15.543 0h7.106V83h-7.106v12.032zm22.261 14.408h3.647V97.411h-3.647v12.029zm-4.991 0V97.411h-7.093v12.029zm6.723 14.227v-12.029h-3.646v12.028zm-8.638-11.1v-.929h-7.107v12.028H38.9v-11.1zm46.411 10H48.73v-10h36.581zm-45.219 0H42.7v-10h-2.608zm-9.492 0h-4.141v-10H30.6zm20.045-14.227h36.582v-10H50.645zm-6.031 0h-2.606v-10h2.606zm-16.226 0h4.142v-10h-4.142zm48.474-14.425H40.279v-10h36.582zm-45.018 0h2.606v-10h-2.606zm-9.491 0H18.21v-10h4.142zm32.524-14.227h36.582v-10H54.876zm-6.031 0h-2.606v-10h2.606zm-16.239 0h4.142v-10h-4.142zm-21-47.84l1.168.237.155.031-.024.11-.254 1.165.71.144.459.093.71.144.254-1.165.024-.11.326.066 1.166.237.141-.644.114-.52.141-.645-1.168-.237-.326-.066.06-.274.254-1.165-.71-.144-.459-.093-.71-.144-.254 1.165-.06.274-.155-.031L12 30.039l-.141.645-.114.52zM90.2 38.019a25.413 25.413 0 1 1-25.414-25.313A25.363 25.363 0 0 1 90.2 38.019zM64.488 59.681a21.3 21.3 0 1 1 21.38-21.3 21.341 21.341 0 0 1-21.38 21.3zm0 1.192a22.494 22.494 0 1 1 22.573-22.494 22.533 22.533 0 0 1-22.573 22.494zM63.6 46.087h3.358V30.2H64.2l-5.118 4.075 1.63 2.021 1.828-1.466q.163-.13.337-.293l.337-.315.293-.293q.13-.13.185-.2-.011.359-.033.793t-.033.869l-.022.826v9.867z" class="cls-2" data-name="Path 442"/>
            <path id="Path_443" d="M41.791 5.006l-.254 1.164-.71-.144-.458-.093-.71-.144.254-1.165.14-.64-.888-.18L38 3.568l.141-.645.114-.52.141-.645L39.559 2l.888.18.221-1.011L40.922 0l.71.144.459.093.71.144-.254 1.165-.221 1.011.907.184 1.168.237-.141.645-.114.52-.141.645-1.168-.237-.907-.184zm-18.951 9.58l-.254 1.165-.71-.144-.458-.093-.71-.144.254-1.165.377-1.727-1.847-.378-1.168-.237.141-.645.113-.52.141-.645 1.168.237 1.847.374.378-1.733.254-1.165.71.144.458.093.71.144-.254 1.165-.378 1.733 1.827.37 1.168.237-.141.645-.113.52-.141.645-1.168-.237-1.827-.37zM4.587 46.03l-.254 1.165-.71-.144-.459-.093-.71-.144.254-1.165.339-1.549-1.832-.371-1.168-.237.141-.645.114-.52.141-.644 1.168.237 1.832.371.417-1.911.254-1.165.71.144.458.093.71.144-.254 1.164-.417 1.911 1.842.373 1.168.237-.141.645-.114.52-.141.644-1.168-.237-1.841-.373zm-1.46 17.46l-.254 1.165-.71-.144-.463-.094-.71-.144.254-1.165.06-.274-.141-.029L0 62.569l.141-.644.114-.52.145-.645 1.164.24.141.028.024-.11.254-1.165.71.144.459.093.71.144-.255 1.166-.024.11.34.069 1.168.237-.141.645-.114.52-.136.639-1.168-.237-.34-.069zm91.25 19.247h-14.4V95.11h10.168v16.26h-1.727v14.408H23.539v-16.26h1.726V97.143H15.1v-16.26h14.4V66.475h33.835a28.592 28.592 0 1 1 2.9 0h28.143v16.26zm-44.34-1.931h3.647V68.777h-3.647v12.028zm-4.991 0V68.777H37.94v12.028zm-5.959 14.226h-3.446V83h3.446v12.032zm-15.543 0h7.106V83h-7.106v12.032zm22.261 14.408h3.647V97.411h-3.647v12.029zm-4.991 0V97.411h-7.093v12.029zm6.723 14.227v-12.029h-3.646v12.028zm-8.638-11.1v-.929h-7.107v12.028H38.9v-11.1zm46.411 10H48.73v-10h36.581zm-45.219 0H42.7v-10h-2.608zm-9.492 0h-4.141v-10H30.6zm20.045-14.227h36.582v-10H50.645zm-6.031 0h-2.606v-10h2.606zm-16.226 0h4.142v-10h-4.142zm48.474-14.425H40.279v-10h36.582zm-45.018 0h2.606v-10h-2.606zm-9.491 0H18.21v-10h4.142zm32.524-14.227h36.582v-10H54.876zm-6.031 0h-2.606v-10h2.606zm-16.239 0h4.142v-10h-4.142zm-21-47.84l1.168.237.155.031-.024.11-.254 1.165.71.144.459.093.71.144.254-1.165.024-.11.326.066 1.166.237.141-.644.114-.52.141-.645-1.168-.237-.326-.066.06-.274.254-1.165-.71-.144-.459-.093-.71-.144-.254 1.165-.06.274-.155-.031L12 30.039l-.141.645-.114.52zM90.2 38.019a25.413 25.413 0 1 1-25.414-25.313A25.363 25.363 0 0 1 90.2 38.019zM64.488 59.681a21.3 21.3 0 1 1 21.38-21.3 21.341 21.341 0 0 1-21.38 21.3zm0 1.192a22.494 22.494 0 1 1 22.573-22.494 22.533 22.533 0 0 1-22.573 22.494zM63.6 46.087h3.358V30.2H64.2l-5.118 4.075 1.63 2.021 1.828-1.466q.163-.13.337-.293l.337-.315.293-.293q.13-.13.185-.2-.011.359-.033.793t-.033.869l-.022.826v9.867z" class="cls-2" data-name="Path 443"/>
        </g>
    </g>
</svg>
