<svg xmlns="http://www.w3.org/2000/svg" width="320" height="268" viewBox="0 0 320 268">
    <defs>
        <linearGradient id="linear-gradient" x1=".5" x2=".5" y2="1" gradientUnits="objectBoundingBox">
            <stop offset="0" stop-color="#bb76db"/>
            <stop offset="1" stop-color="#727cf5"/>
        </linearGradient>
        <style>
            .cls-2{fill-rule:evenodd;fill:url(#linear-gradient)}
        </style>
    </defs>
    <g id="tutorial_2" transform="translate(0 -20)">
        <path id="Rectangle_9" fill="#fff" d="M0 0H320V268H0z" data-name="Rectangle 9" transform="translate(0 20)"/>
        <g id="main-various-markets" transform="translate(100.733 92.143)">
            <path id="Path_446" d="M75.127 0l2.7 1.219-29.093 60.416-2.7-1.219zM.38 10.259h8.968V3.312h7.235v6.948h.737V3.312h7.235v7.031a16.681 16.681 0 0 1 6.293 1.838 8.712 8.712 0 0 1 3.292 3.041 7.524 7.524 0 0 1 .971 4.905A11.808 11.808 0 0 1 34.054 24a8.81 8.81 0 0 1-1.121 1.8 9.037 9.037 0 0 1 3.711 3.695c1.551 2.906 1.56 6.84-1.357 11.338L35.18 41l-.147.13a13.543 13.543 0 0 1-4.2 2.692 24.633 24.633 0 0 1-6.474 1.4v7.269H17.32V45.34h-.737v7.141H9.348V45.34H0l.418-1.756 1.2-5.018.31-1.3 1.319.228a5.31 5.31 0 0 0 2.385.032.866.866 0 0 0 .48-.344A2.128 2.128 0 0 0 6.358 36c0-1.726-.05-6.057-.1-9.969l-.068-5.155-.023-1.621-.006-.447v-.156l1.425-.021s.2 13.9.2 17.369S4.861 39.219 3 38.9l-.856 3.59-.344 1.425h8.968v7.141h4.385v-7.141h3.587v7.141h4.19v-7.141c6.975-.579 8.968-1.93 11.161-3.86 4.485-6.917 1.125-11.688-2.234-13.2a5.557 5.557 0 0 0-1.951-.505 4.624 4.624 0 0 0 1.641-1.134 9.294 9.294 0 0 0 2.146-5.235c.8-6.485-6.71-8.235-10.563-8.3V4.737h-4.385v6.948h-3.587V4.737h-4.385v6.948H1.8v4.632a12.431 12.431 0 0 1 1.425-.242c3.575-.38 4.414 1.468 4.354 2.558l-1.425.02V18.551a.862.862 0 0 0-.43-.753c-.4-.26-1.4-.595-3.612-.1L.38 18.1v-7.84zm15.207 7.1v5.992a12.493 12.493 0 0 0 5.583-.9c1.6-.724 2.185-1.63 2.27-2.19.063-.414-.087-1.156-1.484-1.861a14.029 14.029 0 0 0-6.37-1.04zm-1.425-1.369c15.744-.965 12.755 10.036 0 8.685zm1.424 14.61v6.167a14.61 14.61 0 0 0 7.1-.614c1.907-.757 2.6-1.807 2.691-2.475.072-.531-.182-1.451-1.909-2.228-1.562-.705-4.127-1.15-7.882-.85zm-1.425-1.292c18.335-2.123 15.346 11.387 0 8.685zm66.78 47.3h8.968v-6.952h7.235V76.6h.737v-6.944h7.235v7.031a16.681 16.681 0 0 1 6.293 1.839 8.712 8.712 0 0 1 3.292 3.041 7.525 7.525 0 0 1 .971 4.905 11.8 11.8 0 0 1-1.057 3.873 8.793 8.793 0 0 1-1.121 1.8 9.038 9.038 0 0 1 3.711 3.695c1.551 2.906 1.56 6.84-1.357 11.338l-.107.165-.147.13a13.545 13.545 0 0 1-4.2 2.692 24.64 24.64 0 0 1-6.474 1.4v7.269h-7.039v-7.141h-.737v7.141h-7.235v-7.141h-9.348l.418-1.756 1.2-5.018.31-1.3 1.319.228a5.308 5.308 0 0 0 2.385.032.866.866 0 0 0 .48-.344 2.127 2.127 0 0 0 .25-1.178c0-1.726-.05-6.057-.1-9.969l-.068-5.155-.026-1.633-.006-.447V85l1.425-.021s.2 13.9.2 17.37-2.923 3.217-4.783 2.895l-.856 3.593-.34 1.425h8.968v7.138h4.385v-7.14h3.587v7.14h4.185v-7.14c6.975-.579 8.968-1.93 11.16-3.86 4.485-6.917 1.125-11.688-2.234-13.2a5.55 5.55 0 0 0-1.951-.505 4.621 4.621 0 0 0 1.64-1.134 9.293 9.293 0 0 0 2.146-5.235c.8-6.485-6.71-8.235-10.563-8.3v-6.944h-4.386v6.948h-3.587v-6.948h-4.384v6.948h-8.969v4.632a12.457 12.457 0 0 1 1.425-.242c3.575-.38 4.414 1.468 4.354 2.558L86.721 85v-.098a.862.862 0 0 0-.43-.753c-.4-.26-1.4-.595-3.612-.1l-1.739.393V76.6zm15.207 7.1V89.7a12.494 12.494 0 0 0 5.583-.9c1.6-.724 2.185-1.63 2.27-2.19.063-.414-.087-1.156-1.484-1.861a14.03 14.03 0 0 0-6.369-1.049zm-1.425-1.369c15.744-.965 12.755 10.036 0 8.685zm1.425 14.609v6.167a14.609 14.609 0 0 0 7.1-.614c1.908-.757 2.6-1.807 2.691-2.475.072-.531-.182-1.451-1.909-2.228-1.563-.708-4.13-1.152-7.882-.854zm-1.425-1.292c18.335-2.123 15.346 11.387 0 8.685zm-19.8-29.72l-2.589-1.169-27.9 57.944 2.589 1.169zm26.871-62.58l.584 1.028 14.962 26.363.351.618-.617.352-14.965 8.551-.352.2-.353-.2-16.39-9.264-.655-.37.406-.634 16.39-25.654zM86.907 30.439l14.136 7.99V23.678zm15.561-6.663l12.816 7.324-12.816 7.323zm12.35 5.416l-12.35-7.057V7.431zM101.043 7.171V22.1L87.31 28.666zM84.289 32.615l-.922 1.044 17.815 24.229.59.8.569-.817 16.39-23.516-.935-1.028-16.042 9.073zm2.176 2.852l14.578 8.164v11.662zm16 8.162V55.2l13.3-19.087zM19.656 66.546l.584 1.028L35.2 93.941l.351.618-.617.352-14.965 8.551-.352.2-.353-.2L2.879 94.2l-.655-.37.4-.634L19.02 67.543zM4.772 93.633l14.136 7.99V86.872zm15.561-6.663l12.816 7.323-12.816 7.323zm12.35 5.416l-12.35-7.057v-14.7zM18.908 70.365v14.927L5.174 91.86zM1.231 96.853l.922-1.044 17.465 9.781 16.042-9.067.935 1.028L20.2 121.067l-.569.817-.59-.8zm17.677 9.972L4.329 98.661l14.578 19.826zm1.425 11.566v-11.568l13.3-7.519z" class="cls-2" data-name="Path 446"/>
            <path id="Path_447" d="M75.127 0l2.7 1.219-29.093 60.416-2.7-1.219zM.38 10.259h8.968V3.312h7.235v6.948h.737V3.312h7.235v7.031a16.681 16.681 0 0 1 6.293 1.838 8.712 8.712 0 0 1 3.292 3.041 7.524 7.524 0 0 1 .971 4.905A11.808 11.808 0 0 1 34.054 24a8.81 8.81 0 0 1-1.121 1.8 9.037 9.037 0 0 1 3.711 3.695c1.551 2.906 1.56 6.84-1.357 11.338L35.18 41l-.147.13a13.543 13.543 0 0 1-4.2 2.692 24.633 24.633 0 0 1-6.474 1.4v7.269H17.32V45.34h-.737v7.141H9.348V45.34H0l.418-1.756 1.2-5.018.31-1.3 1.319.228a5.31 5.31 0 0 0 2.385.032.866.866 0 0 0 .48-.344A2.128 2.128 0 0 0 6.358 36c0-1.726-.05-6.057-.1-9.969l-.068-5.155-.023-1.621-.006-.447v-.156l1.425-.021s.2 13.9.2 17.369S4.861 39.219 3 38.9l-.856 3.59-.344 1.425h8.968v7.141h4.385v-7.141h3.587v7.141h4.19v-7.141c6.975-.579 8.968-1.93 11.161-3.86 4.485-6.917 1.125-11.688-2.234-13.2a5.557 5.557 0 0 0-1.951-.505 4.624 4.624 0 0 0 1.641-1.134 9.294 9.294 0 0 0 2.146-5.235c.8-6.485-6.71-8.235-10.563-8.3V4.737h-4.385v6.948h-3.587V4.737h-4.385v6.948H1.8v4.632a12.431 12.431 0 0 1 1.425-.242c3.575-.38 4.414 1.468 4.354 2.558l-1.425.02V18.551a.862.862 0 0 0-.43-.753c-.4-.26-1.4-.595-3.612-.1L.38 18.1v-7.84zm15.207 7.1v5.992a12.493 12.493 0 0 0 5.583-.9c1.6-.724 2.185-1.63 2.27-2.19.063-.414-.087-1.156-1.484-1.861a14.029 14.029 0 0 0-6.37-1.04zm-1.425-1.369c15.744-.965 12.755 10.036 0 8.685zm1.424 14.61v6.167a14.61 14.61 0 0 0 7.1-.614c1.907-.757 2.6-1.807 2.691-2.475.072-.531-.182-1.451-1.909-2.228-1.562-.705-4.127-1.15-7.882-.85zm-1.425-1.292c18.335-2.123 15.346 11.387 0 8.685zm66.78 47.3h8.968v-6.952h7.235V76.6h.737v-6.944h7.235v7.031a16.681 16.681 0 0 1 6.293 1.839 8.712 8.712 0 0 1 3.292 3.041 7.525 7.525 0 0 1 .971 4.905 11.8 11.8 0 0 1-1.057 3.873 8.793 8.793 0 0 1-1.121 1.8 9.038 9.038 0 0 1 3.711 3.695c1.551 2.906 1.56 6.84-1.357 11.338l-.107.165-.147.13a13.545 13.545 0 0 1-4.2 2.692 24.64 24.64 0 0 1-6.474 1.4v7.269h-7.039v-7.141h-.737v7.141h-7.235v-7.141h-9.348l.418-1.756 1.2-5.018.31-1.3 1.319.228a5.308 5.308 0 0 0 2.385.032.866.866 0 0 0 .48-.344 2.127 2.127 0 0 0 .25-1.178c0-1.726-.05-6.057-.1-9.969l-.068-5.155-.026-1.633-.006-.447V85l1.425-.021s.2 13.9.2 17.37-2.923 3.217-4.783 2.895l-.856 3.593-.34 1.425h8.968v7.138h4.385v-7.14h3.587v7.14h4.185v-7.14c6.975-.579 8.968-1.93 11.16-3.86 4.485-6.917 1.125-11.688-2.234-13.2a5.55 5.55 0 0 0-1.951-.505 4.621 4.621 0 0 0 1.64-1.134 9.293 9.293 0 0 0 2.146-5.235c.8-6.485-6.71-8.235-10.563-8.3v-6.944h-4.386v6.948h-3.587v-6.948h-4.384v6.948h-8.969v4.632a12.457 12.457 0 0 1 1.425-.242c3.575-.38 4.414 1.468 4.354 2.558L86.721 85v-.098a.862.862 0 0 0-.43-.753c-.4-.26-1.4-.595-3.612-.1l-1.739.393V76.6zm15.207 7.1V89.7a12.494 12.494 0 0 0 5.583-.9c1.6-.724 2.185-1.63 2.27-2.19.063-.414-.087-1.156-1.484-1.861a14.03 14.03 0 0 0-6.369-1.049zm-1.425-1.369c15.744-.965 12.755 10.036 0 8.685zm1.425 14.609v6.167a14.609 14.609 0 0 0 7.1-.614c1.908-.757 2.6-1.807 2.691-2.475.072-.531-.182-1.451-1.909-2.228-1.563-.708-4.13-1.152-7.882-.854zm-1.425-1.292c18.335-2.123 15.346 11.387 0 8.685zm-19.8-29.72l-2.589-1.169-27.9 57.944 2.589 1.169zm26.871-62.58l.584 1.028 14.962 26.363.351.618-.617.352-14.965 8.551-.352.2-.353-.2-16.39-9.264-.655-.37.406-.634 16.39-25.654zM86.907 30.439l14.136 7.99V23.678zm15.561-6.663l12.816 7.324-12.816 7.323zm12.35 5.416l-12.35-7.057V7.431zM101.043 7.171V22.1L87.31 28.666zM84.289 32.615l-.922 1.044 17.815 24.229.59.8.569-.817 16.39-23.516-.935-1.028-16.042 9.073zm2.176 2.852l14.578 8.164v11.662zm16 8.162V55.2l13.3-19.087zM19.656 66.546l.584 1.028L35.2 93.941l.351.618-.617.352-14.965 8.551-.352.2-.353-.2L2.879 94.2l-.655-.37.4-.634L19.02 67.543zM4.772 93.633l14.136 7.99V86.872zm15.561-6.663l12.816 7.323-12.816 7.323zm12.35 5.416l-12.35-7.057v-14.7zM18.908 70.365v14.927L5.174 91.86zM1.231 96.853l.922-1.044 17.465 9.781 16.042-9.067.935 1.028L20.2 121.067l-.569.817-.59-.8zm17.677 9.972L4.329 98.661l14.578 19.826zm1.425 11.566v-11.568l13.3-7.519z" class="cls-2" data-name="Path 447"/>
        </g>
    </g>
</svg>
