<svg xmlns="http://www.w3.org/2000/svg" width="320" height="268" viewBox="0 0 320 268">
    <defs>
        <linearGradient id="linear-gradient" x1=".5" x2=".5" y2="1" gradientUnits="objectBoundingBox">
            <stop offset="0" stop-color="#bb76db"/>
            <stop offset="1" stop-color="#727cf5"/>
        </linearGradient>
        <style>
            .cls-2{fill-rule:evenodd;fill:url(#linear-gradient)}
        </style>
    </defs>
    <g id="tutorial_3" transform="translate(0 -20)">
        <path id="Rectangle_9" fill="#fff" d="M0 0H320V268H0z" data-name="Rectangle 9" transform="translate(0 20)"/>
        <g id="main-security" transform="translate(114.608 99.5)">
            <path id="Path_444" d="M45.809 0L48 2.982C53.161 10 60.766 14.144 68.388 16.439a56.1 56.1 0 0 0 19.4 2.313l3.16-.253-.1 3.168c-1.828 60.765-29.442 83.322-44.513 86.718l-.72.162-.708-.209C26.084 102.788 14.8 86.722 8.291 69.6 1.771 52.439-.18 33.653.013 21.538l.044-2.794h2.795c22.573 0 36.656-10.867 40.648-15.854zm-.095 105.617C10.522 95.239 2.476 45.27 2.852 21.583c20.779 0 34.834-8.848 40.911-14.789a24 24 0 0 0 1.952-2.131q.868 1.181 1.815 2.26C58.066 18.962 75.361 21.8 85.169 21.7c1.038-.01 1.991-.053 2.844-.121q-.043 1.442-.106 2.855c-2.565 57.826-29.059 78.223-42.193 81.183zm.3-93.742L45.2 10.9l-.815.97c-3.759 4.475-16.092 13.6-34.69 13.156l-1.047-.025-.048 1.051a105.142 105.142 0 0 0 6.214 38.6c5.256 14.1 14.49 27.484 30 33.5l.345.134.353-.109c12.75-3.923 37.083-23.886 35.718-72.11L81.2 25l-1.06.026a55.891 55.891 0 0 1-16.486-2.422c-6.486-1.96-13.085-5.304-17.641-10.729zM9.667 26.095c-.752 18.8 5.3 59.331 35.531 71.062 12.22-3.76 36.321-23.236 34.967-71.062-7.52.183-24.63-2.138-34.258-12.725q-.362-.4-.709-.81-.32.382-.717.8c-4.617 4.876-16.89 13.162-34.814 12.735zm36 48.928a20.275 20.275 0 1 0-20.115-20.275 20.193 20.193 0 0 0 20.111 20.275zm0-1.244a19.031 19.031 0 1 0-18.882-19.031 18.954 18.954 0 0 0 18.877 19.031zM33.294 54.815l9.174 9.169 14.438-14.429-3.158-3.155-11.28 11.121-6.016-6.012z" class="cls-2" data-name="Path 444"/>
            <path id="Path_445" d="M45.809 0L48 2.982C53.161 10 60.766 14.144 68.388 16.439a56.1 56.1 0 0 0 19.4 2.313l3.16-.253-.1 3.168c-1.828 60.765-29.442 83.322-44.513 86.718l-.72.162-.708-.209C26.084 102.788 14.8 86.722 8.291 69.6 1.771 52.439-.18 33.653.013 21.538l.044-2.794h2.795c22.573 0 36.656-10.867 40.648-15.854zm-.095 105.617C10.522 95.239 2.476 45.27 2.852 21.583c20.779 0 34.834-8.848 40.911-14.789a24 24 0 0 0 1.952-2.131q.868 1.181 1.815 2.26C58.066 18.962 75.361 21.8 85.169 21.7c1.038-.01 1.991-.053 2.844-.121q-.043 1.442-.106 2.855c-2.565 57.826-29.059 78.223-42.193 81.183zm.3-93.742L45.2 10.9l-.815.97c-3.759 4.475-16.092 13.6-34.69 13.156l-1.047-.025-.048 1.051a105.142 105.142 0 0 0 6.214 38.6c5.256 14.1 14.49 27.484 30 33.5l.345.134.353-.109c12.75-3.923 37.083-23.886 35.718-72.11L81.2 25l-1.06.026a55.891 55.891 0 0 1-16.486-2.422c-6.486-1.96-13.085-5.304-17.641-10.729zM9.667 26.095c-.752 18.8 5.3 59.331 35.531 71.062 12.22-3.76 36.321-23.236 34.967-71.062-7.52.183-24.63-2.138-34.258-12.725q-.362-.4-.709-.81-.32.382-.717.8c-4.617 4.876-16.89 13.162-34.814 12.735zm36 48.928a20.275 20.275 0 1 0-20.115-20.275 20.193 20.193 0 0 0 20.111 20.275zm0-1.244a19.031 19.031 0 1 0-18.882-19.031 18.954 18.954 0 0 0 18.877 19.031zM33.294 54.815l9.174 9.169 14.438-14.429-3.158-3.155-11.28 11.121-6.016-6.012z" class="cls-2" data-name="Path 445"/>
        </g>
    </g>
</svg>
