<svg width="40" height="40" viewBox="0 0 40 40" fill="none" xmlns="http://www.w3.org/2000/svg">
<g clip-path="url(#clip0)">
<path d="M21.8443 25.247V24C21.8443 23.7929 21.6764 23.625 21.4693 23.625H18.0591C17.852 23.625 17.6841 23.7929 17.6841 24V24.5591V25.242C17.332 25.2158 16.9293 25.2373 16.516 25.2943C15.8961 25.3796 15.2167 25.5498 14.5851 25.7935C14.4405 25.8493 14.3451 25.9883 14.3451 26.1433V31.921C14.3451 31.9752 14.3566 32.0269 14.3774 32.0736C14.3756 32.0823 14.3735 32.092 14.371 32.1026C14.3381 32.2436 14.2708 32.4504 14.1834 32.7048C14.1572 32.781 14.1293 32.861 14.1005 32.9437C13.9454 33.3892 13.7634 33.9115 13.6783 34.3127C13.6524 34.4347 13.6329 34.5568 13.6269 34.6701C13.6213 34.7764 13.6253 34.9101 13.6736 35.0353C13.7292 35.1798 13.8516 35.3239 14.0553 35.3645C14.2234 35.398 14.3802 35.3453 14.4937 35.2917C14.7271 35.1817 15.0165 34.9509 15.3721 34.6098C15.7125 34.2833 16.1383 33.8311 16.6666 33.2279H20.5457H25.3767H26.0872C26.2645 33.2279 26.4176 33.1037 26.4541 32.9301C26.5385 32.5289 26.7721 31.9531 27.179 31.5383C27.5677 31.1421 28.1174 30.8846 28.913 31.0744C29.0574 31.1088 29.2085 31.0548 29.2984 30.9367C29.3883 30.8185 29.4 30.6585 29.3283 30.5285C28.9064 29.7634 28.1566 28.7824 27.4239 28.0159C27.0573 27.6324 26.683 27.2899 26.345 27.0524C26.1765 26.9339 26.0052 26.8332 25.8395 26.7686C25.7798 26.7453 25.7143 26.7242 25.6451 26.7097C25.4821 26.3213 25.1771 25.8945 24.6127 25.5916C23.996 25.2607 23.1109 25.1002 21.8443 25.247Z" fill="#B1B1B1" stroke="#B1B1B1" stroke-width="0.75" stroke-linecap="round" stroke-linejoin="round"/>
<path d="M14.0193 12.052L13.5979 18.8652C17.0396 27.7855 25.8897 23.6414 26.2409 18.8652C26.6535 13.2539 26.8731 12.0051 26.5219 12.052C25.679 13.2882 17.742 12.5671 14.0193 12.052Z" fill="white"/>
<path fill-rule="evenodd" clip-rule="evenodd" d="M13.9038 11.9108L14.0363 11.9292C15.8948 12.1863 18.8053 12.4949 21.3549 12.5848C22.6302 12.6298 23.8109 12.6199 24.7231 12.5227C25.1796 12.474 25.564 12.4039 25.8576 12.3099C26.1564 12.2143 26.3384 12.1009 26.4194 11.9821L26.4506 11.9364L26.5055 11.9291C26.5452 11.9238 26.5892 11.9267 26.6322 11.9461C26.6752 11.9656 26.7075 11.9971 26.7311 12.0329C26.7748 12.0992 26.7958 12.1909 26.8074 12.2938C26.8312 12.5045 26.8228 12.8422 26.7916 13.3445C26.7609 13.8393 26.7071 14.5058 26.6358 15.3877C26.562 16.3021 26.4695 17.4481 26.3646 18.8743C26.1839 21.3312 23.8296 23.5972 21.1018 24.1232C19.7319 24.3873 18.2604 24.2152 16.9122 23.4065C15.5643 22.598 14.3502 21.1596 13.4822 18.9098L13.4724 18.8846L13.9038 11.9108ZM26.5431 12.2191C26.5495 12.2431 26.5558 12.2763 26.5609 12.3216C26.5819 12.5073 26.5754 12.8236 26.5441 13.3291C26.5134 13.8232 26.4599 14.4861 26.3889 15.3647C26.3151 16.2779 26.2226 17.4241 26.1173 18.8561C25.9467 21.1754 23.7004 23.3696 21.0549 23.8797C19.7381 24.1336 18.3299 23.9677 17.0397 23.1938C15.7542 22.4227 14.5754 21.0415 13.7233 18.8458L14.1348 12.193C16.0029 12.4471 18.8457 12.7444 21.3462 12.8327C22.6258 12.8778 23.82 12.8684 24.7494 12.7693C25.2138 12.7197 25.6168 12.6474 25.9332 12.5461C26.1884 12.4645 26.4027 12.3593 26.5431 12.2191Z" fill="#ACACAC"/>
<path d="M27.5755 3.41259C26.9012 4.42403 25.679 4.53642 22.0266 2.78044C18.3741 1.02445 16.1967 2.78044 16.1967 2.78044C16.1967 2.78044 15.1431 2.78044 14.23 4.04474C13.3169 5.30905 13.5515 4.95157 12.755 6.29239C10.0016 5.73049 11.0927 11.9115 11.9824 15.0723C10.69 17.6009 12.5677 18.6077 13.6681 18.795C13.7618 16.4302 13.9491 11.757 13.9491 11.9818C13.9491 12.2627 25.1873 13.6675 26.4516 12.1222C26.7326 12.1222 26.6624 14.2997 26.3112 19.1462C29.0645 18.7528 29.0739 16.4537 28.5588 15.4235C30.0198 8.73671 28.6993 6.54994 27.8564 6.29239C28.7555 4.99999 28.0437 3.83403 27.5755 3.41259Z" fill="#7D7D7D"/>
<path d="M17.5355 19.4271C17.2616 19.4271 17.0355 19.6506 17.0792 19.921C17.1174 20.1569 17.1829 20.388 17.2748 20.6098C17.4301 20.9848 17.6577 21.3255 17.9447 21.6124C18.2317 21.8994 18.5724 22.1271 18.9474 22.2824C19.3223 22.4377 19.7242 22.5176 20.1301 22.5176C20.5359 22.5176 20.9378 22.4377 21.3127 22.2824C21.6877 22.1271 22.0284 21.8994 22.3154 21.6124C22.6024 21.3255 22.83 20.9848 22.9853 20.6098C23.0772 20.388 23.1427 20.1569 23.1809 19.921C23.2246 19.6506 22.9985 19.4271 22.7246 19.4271L20.1301 19.4271H17.5355Z" fill="#8C8C8C"/>
<path d="M18.8655 20.2339C18.8655 20.0943 18.9787 19.9812 19.1182 19.9812H21.1403C21.2805 19.9812 21.3941 20.0949 21.3941 20.2351C21.3941 20.3236 21.3479 20.4063 21.2713 20.4507C20.4299 20.9383 19.8923 20.9589 18.9902 20.4499C18.9126 20.4061 18.8655 20.323 18.8655 20.2339Z" fill="#FDFDFD"/>
<path d="M17.461 16.3366C17.461 16.6469 17.2094 16.8985 16.8991 16.8985C16.5888 16.8985 16.3372 16.6469 16.3372 16.3366C16.3372 16.0262 16.5888 15.7747 16.8991 15.7747C17.2094 15.7747 17.461 16.0262 17.461 16.3366Z" fill="#7C7C7C"/>
<path d="M24.0635 16.3366C24.0635 16.6469 23.8119 16.8985 23.5016 16.8985C23.1913 16.8985 22.9397 16.6469 22.9397 16.3366C22.9397 16.0263 23.1913 15.7747 23.5016 15.7747C23.8119 15.7747 24.0635 16.0263 24.0635 16.3366Z" fill="#7C7C7C"/>
<path d="M15.5635 14.7018C15.9067 14.2186 16.8751 13.5105 18.0022 14.5439" stroke="#A9A9A9" stroke-width="0.5" stroke-linecap="round" stroke-linejoin="round"/>
<path d="M24.8477 14.6658C24.5301 14.2685 23.6012 13.6862 22.4263 14.5354" stroke="#A9A9A9" stroke-width="0.5" stroke-linecap="round" stroke-linejoin="round"/>
<rect x="8.99997" y="26" width="15" height="10" rx="0.5" fill="white"/>
<rect x="9.09497" y="26.095" width="14.81" height="9.81" rx="0.405" stroke="black" stroke-opacity="0.64" stroke-width="0.19"/>
<path d="M13.1243 29V27.7772H13.4854C13.5935 27.7772 13.6892 27.8013 13.7726 27.8494C13.8566 27.8976 13.9216 27.9659 13.9675 28.0543C14.0134 28.1428 14.0363 28.2441 14.0363 28.3584V28.4197C14.0363 28.5356 14.0131 28.6375 13.9666 28.7254C13.9207 28.8133 13.8549 28.881 13.7693 28.9286C13.6842 28.9762 13.5865 29 13.4762 29H13.1243ZM13.3367 27.9485V28.8304H13.4753C13.5867 28.8304 13.6721 28.7956 13.7315 28.7262C13.7914 28.6562 13.8219 28.556 13.823 28.4255V28.3575C13.823 28.2248 13.7942 28.1235 13.7365 28.0535C13.6788 27.9835 13.5951 27.9485 13.4854 27.9485H13.3367ZM14.19 28.5372C14.19 28.4482 14.2077 28.3682 14.2429 28.2971C14.2782 28.2254 14.3278 28.1705 14.3916 28.1324C14.4554 28.0938 14.5288 28.0745 14.6116 28.0745C14.7342 28.0745 14.8336 28.114 14.9098 28.1929C14.9865 28.2719 15.0279 28.3766 15.0341 28.507L15.0349 28.5549C15.0349 28.6445 15.0176 28.7245 14.9828 28.7951C14.9487 28.8656 14.8994 28.9202 14.835 28.9588C14.7712 28.9975 14.6973 29.0168 14.6133 29.0168C14.4851 29.0168 14.3824 28.9742 14.3051 28.8891C14.2284 28.8035 14.19 28.6895 14.19 28.5473V28.5372ZM14.3941 28.5549C14.3941 28.6484 14.4134 28.7217 14.4521 28.7749C14.4907 28.8276 14.5444 28.8539 14.6133 28.8539C14.6822 28.8539 14.7356 28.827 14.7737 28.7732C14.8124 28.7195 14.8317 28.6408 14.8317 28.5372C14.8317 28.4454 14.8118 28.3726 14.772 28.3189C14.7328 28.2651 14.6794 28.2383 14.6116 28.2383C14.545 28.2383 14.4921 28.2649 14.4529 28.318C14.4137 28.3707 14.3941 28.4496 14.3941 28.5549ZM15.5145 28.7413L15.7068 28.0913H15.9176L15.6026 29H15.4254L15.108 28.0913H15.3196L15.5145 28.7413ZM16.4341 29.0168C16.3048 29.0168 16.1998 28.9762 16.1191 28.895C16.0391 28.8133 15.9991 28.7047 15.9991 28.5692V28.544C15.9991 28.4533 16.0164 28.3724 16.0511 28.3012C16.0864 28.2296 16.1357 28.1739 16.1989 28.1341C16.2622 28.0944 16.3327 28.0745 16.4106 28.0745C16.5343 28.0745 16.6298 28.114 16.697 28.1929C16.7647 28.2719 16.7986 28.3836 16.7986 28.528V28.6103H16.2048C16.211 28.6853 16.2359 28.7447 16.2796 28.7884C16.3238 28.832 16.3792 28.8539 16.4458 28.8539C16.5394 28.8539 16.6155 28.8161 16.6743 28.7405L16.7843 28.8455C16.7479 28.8998 16.6992 28.9421 16.6382 28.9723C16.5777 29.002 16.5097 29.0168 16.4341 29.0168ZM16.4097 28.2383C16.3537 28.2383 16.3084 28.2579 16.2737 28.2971C16.2395 28.3362 16.2177 28.3908 16.2082 28.4608H16.597V28.4457C16.5925 28.3774 16.5743 28.3259 16.5424 28.2912C16.5105 28.2559 16.4663 28.2383 16.4097 28.2383ZM18.3649 28.6977L18.553 27.7772H18.7638L18.4816 29H18.2784L18.0458 28.1072L17.8081 29H17.604L17.3218 27.7772H17.5326L17.7224 28.696L17.9559 27.7772H18.1339L18.3649 28.6977ZM19.4139 29C19.4049 28.9826 19.3971 28.9544 19.3903 28.9152C19.3254 28.9829 19.2459 29.0168 19.1518 29.0168C19.0606 29.0168 18.9861 28.9908 18.9284 28.9387C18.8708 28.8866 18.8419 28.8222 18.8419 28.7455C18.8419 28.6487 18.8778 28.5745 18.9494 28.523C19.0216 28.4709 19.1247 28.4449 19.2585 28.4449H19.3836V28.3852C19.3836 28.3382 19.3705 28.3007 19.3441 28.2727C19.3178 28.2441 19.2778 28.2299 19.2241 28.2299C19.1776 28.2299 19.1395 28.2416 19.1098 28.2651C19.0802 28.2881 19.0653 28.3175 19.0653 28.3533H18.8612C18.8612 28.3035 18.8778 28.257 18.9108 28.2139C18.9438 28.1702 18.9886 28.1361 19.0452 28.1114C19.1023 28.0868 19.1658 28.0745 19.2358 28.0745C19.3422 28.0745 19.427 28.1014 19.4903 28.1551C19.5536 28.2083 19.586 28.2833 19.5877 28.3802V28.79C19.5877 28.8718 19.5992 28.937 19.6221 28.9857V29H19.4139ZM19.1896 28.853C19.2299 28.853 19.2677 28.8432 19.303 28.8236C19.3388 28.804 19.3657 28.7777 19.3836 28.7447V28.5734H19.2736C19.198 28.5734 19.1412 28.5865 19.1031 28.6128C19.065 28.6391 19.046 28.6764 19.046 28.7245C19.046 28.7637 19.0589 28.7951 19.0846 28.8186C19.111 28.8415 19.1459 28.853 19.1896 28.853ZM20.0185 29H19.8145V27.71H20.0185V29ZM20.4586 29H20.2545V27.71H20.4586V29ZM21.0818 29.0168C20.9524 29.0168 20.8475 28.9762 20.7668 28.895C20.6868 28.8133 20.6467 28.7047 20.6467 28.5692V28.544C20.6467 28.4533 20.6641 28.3724 20.6988 28.3012C20.7341 28.2296 20.7834 28.1739 20.8466 28.1341C20.9099 28.0944 20.9804 28.0745 21.0583 28.0745C21.182 28.0745 21.2775 28.114 21.3447 28.1929C21.4124 28.2719 21.4463 28.3836 21.4463 28.528V28.6103H20.8525C20.8587 28.6853 20.8836 28.7447 20.9273 28.7884C20.9715 28.832 21.0269 28.8539 21.0935 28.8539C21.187 28.8539 21.2632 28.8161 21.322 28.7405L21.432 28.8455C21.3956 28.8998 21.3469 28.9421 21.2859 28.9723C21.2254 29.002 21.1574 29.0168 21.0818 29.0168ZM21.0574 28.2383C21.0014 28.2383 20.9561 28.2579 20.9214 28.2971C20.8872 28.3362 20.8654 28.3908 20.8559 28.4608H21.2447V28.4457C21.2402 28.3774 21.222 28.3259 21.1901 28.2912C21.1582 28.2559 21.114 28.2383 21.0574 28.2383ZM21.8612 27.8704V28.0913H22.0216V28.2425H21.8612V28.7497C21.8612 28.7844 21.8679 28.8096 21.8813 28.8253C21.8953 28.8404 21.9199 28.848 21.9552 28.848C21.9787 28.848 22.0025 28.8452 22.0266 28.8396V28.9975C21.9801 29.0104 21.9353 29.0168 21.8922 29.0168C21.7355 29.0168 21.6571 28.9303 21.6571 28.7573V28.2425H21.5076V28.0913H21.6571V27.8704H21.8612Z" fill="#1F1F1F"/>
<path d="M14.8234 31H14.0825V30.8736L14.4495 30.4732C14.5025 30.4142 14.5401 30.365 14.5623 30.3257C14.585 30.2858 14.5964 30.2459 14.5964 30.2061C14.5964 30.1536 14.5815 30.1112 14.5517 30.0789C14.5224 30.0466 14.4828 30.0305 14.4329 30.0305C14.3733 30.0305 14.3272 30.0487 14.2944 30.085C14.2616 30.1213 14.2452 30.171 14.2452 30.2341H14.0613C14.0613 30.167 14.0764 30.1067 14.1067 30.0532C14.1375 29.9992 14.1811 29.9573 14.2376 29.9276C14.2946 29.8978 14.3602 29.8829 14.4344 29.8829C14.5414 29.8829 14.6256 29.9099 14.6872 29.9639C14.7492 30.0174 14.7803 30.0915 14.7803 30.1864C14.7803 30.2414 14.7646 30.2992 14.7333 30.3597C14.7026 30.4198 14.6519 30.4881 14.5812 30.5648L14.3118 30.8532H14.8234V31ZM15.6817 30.5361C15.6817 30.6945 15.6519 30.8141 15.5924 30.8948C15.5333 30.975 15.4433 31.0151 15.3222 31.0151C15.2031 31.0151 15.1133 30.976 15.0527 30.8978C14.9927 30.8191 14.9619 30.7028 14.9604 30.5489V30.3582C14.9604 30.1998 14.9899 30.0809 15.0489 30.0017C15.1085 29.9225 15.199 29.8829 15.3206 29.8829C15.4412 29.8829 15.531 29.9215 15.5901 29.9987C15.6496 30.0759 15.6801 30.1914 15.6817 30.3453V30.5361ZM15.4977 30.3302C15.4977 30.2268 15.4836 30.1511 15.4554 30.1031C15.4271 30.0547 15.3822 30.0305 15.3206 30.0305C15.2606 30.0305 15.2165 30.0535 15.1882 30.0994C15.1599 30.1448 15.1451 30.2159 15.1435 30.3128V30.5625C15.1435 30.6655 15.1579 30.7422 15.1867 30.7926C15.2154 30.8431 15.2606 30.8683 15.3222 30.8683C15.3812 30.8683 15.4248 30.8451 15.4531 30.7987C15.4813 30.7518 15.4962 30.6786 15.4977 30.5792V30.3302ZM16.5853 31H15.8444V30.8736L16.2114 30.4732C16.2644 30.4142 16.302 30.365 16.3242 30.3257C16.3469 30.2858 16.3583 30.2459 16.3583 30.2061C16.3583 30.1536 16.3434 30.1112 16.3136 30.0789C16.2844 30.0466 16.2447 30.0305 16.1948 30.0305C16.1353 30.0305 16.0891 30.0487 16.0563 30.085C16.0235 30.1213 16.0071 30.171 16.0071 30.2341H15.8232C15.8232 30.167 15.8383 30.1067 15.8686 30.0532C15.8994 29.9992 15.943 29.9573 15.9995 29.9276C16.0565 29.8978 16.1221 29.8829 16.1963 29.8829C16.3033 29.8829 16.3875 29.9099 16.4491 29.9639C16.5112 30.0174 16.5422 30.0915 16.5422 30.1864C16.5422 30.2414 16.5265 30.2992 16.4953 30.3597C16.4645 30.4198 16.4138 30.4881 16.3431 30.5648L16.0737 30.8532H16.5853V31ZM17.4436 30.5361C17.4436 30.6945 17.4138 30.8141 17.3543 30.8948C17.2952 30.975 17.2052 31.0151 17.0841 31.0151C16.965 31.0151 16.8752 30.976 16.8146 30.8978C16.7546 30.8191 16.7238 30.7028 16.7223 30.5489V30.3582C16.7223 30.1998 16.7518 30.0809 16.8109 30.0017C16.8704 29.9225 16.961 29.8829 17.0826 29.8829C17.2032 29.8829 17.293 29.9215 17.352 29.9987C17.4115 30.0759 17.4421 30.1914 17.4436 30.3453V30.5361ZM17.2597 30.3302C17.2597 30.2268 17.2455 30.1511 17.2173 30.1031C17.189 30.0547 17.1441 30.0305 17.0826 30.0305C17.0225 30.0305 16.9784 30.0535 16.9501 30.0994C16.9219 30.1448 16.907 30.2159 16.9055 30.3128V30.5625C16.9055 30.6655 16.9198 30.7422 16.9486 30.7926C16.9774 30.8431 17.0225 30.8683 17.0841 30.8683C17.1431 30.8683 17.1868 30.8451 17.215 30.7987C17.2433 30.7518 17.2581 30.6786 17.2597 30.5792V30.3302ZM17.7327 30.8063C17.767 30.8063 17.7935 30.8161 17.8122 30.8358C17.8308 30.8549 17.8402 30.8792 17.8402 30.9084C17.8402 30.9372 17.8308 30.9611 17.8122 30.9803C17.7935 30.999 17.767 31.0083 17.7327 31.0083C17.6999 31.0083 17.6739 30.999 17.6547 30.9803C17.6356 30.9617 17.626 30.9377 17.626 30.9084C17.626 30.8792 17.6353 30.8549 17.654 30.8358C17.6726 30.8161 17.6989 30.8063 17.7327 30.8063ZM18.345 30.4505L18.5009 30.1811H18.7052L18.4547 30.5845L18.7135 31H18.5107L18.3472 30.72L18.1845 31H17.9802L18.239 30.5845L17.9893 30.1811H18.1921L18.345 30.4505ZM19.1245 30.4505L19.2804 30.1811H19.4848L19.2342 30.5845L19.4931 31H19.2903L19.1268 30.72L18.9641 31H18.7597L19.0185 30.5845L18.7688 30.1811H18.9716L19.1245 30.4505ZM19.7247 30.8063C19.759 30.8063 19.7855 30.8161 19.8041 30.8358C19.8228 30.8549 19.8321 30.8792 19.8321 30.9084C19.8321 30.9372 19.8228 30.9611 19.8041 30.9803C19.7855 30.999 19.759 31.0083 19.7247 31.0083C19.6919 31.0083 19.6659 30.999 19.6467 30.9803C19.6275 30.9617 19.618 30.9377 19.618 30.9084C19.618 30.8792 19.6273 30.8549 19.646 30.8358C19.6646 30.8161 19.6909 30.8063 19.7247 30.8063ZM20.337 30.4505L20.4929 30.1811H20.6972L20.4467 30.5845L20.7055 31H20.5027L20.3392 30.72L20.1765 31H19.9722L20.231 30.5845L19.9812 30.1811H20.1841L20.337 30.4505ZM21.1165 30.4505L21.2724 30.1811H21.4768L21.2262 30.5845L21.4851 31H21.2822L21.1188 30.72L20.956 31H20.7517L21.0105 30.5845L20.7608 30.1811H20.9636L21.1165 30.4505Z" fill="#1F1F1F"/>
<g filter="url(#filter0_d)">
<path d="M18.1242 33.116C18.1242 32.5682 18.5683 32.124 19.1162 32.124H26.8252C27.3731 32.124 27.8172 32.5682 27.8172 33.116V37.1901C27.8172 37.738 27.3731 38.1822 26.8252 38.1822H19.1162C18.5683 38.1822 18.1242 37.738 18.1242 37.1901V33.116Z" fill="white"/>
<path fill-rule="evenodd" clip-rule="evenodd" d="M18 33.116C18 32.4997 18.4996 32 19.116 32H26.825C27.4413 32 27.941 32.4997 27.941 33.116V37.1901C27.941 37.8065 27.4413 38.3061 26.825 38.3061H19.116C18.4996 38.3061 18 37.8065 18 37.1901V33.116ZM19.116 32.248C18.6366 32.248 18.248 32.6366 18.248 33.116V37.1901C18.248 37.6695 18.6366 38.0581 19.116 38.0581H26.825C27.3044 38.0581 27.693 37.6695 27.693 37.1901V33.116C27.693 32.6366 27.3044 32.248 26.825 32.248H19.116Z" fill="black" fill-opacity="0.54"/>
<path fill-rule="evenodd" clip-rule="evenodd" d="M19.0329 37.3008H19.3394V37.4248H19.0329V37.3008ZM19.5802 37.3008H20.0691V37.4248H19.5802V37.3008ZM20.3099 37.3008H20.7988V37.4248H20.3099V37.3008ZM21.0397 37.3008H21.5285V37.4248H21.0397V37.3008ZM21.7694 37.3008H22.2582V37.4248H21.7694V37.3008ZM22.4991 37.3008H22.988V37.4248H22.4991V37.3008ZM23.2288 37.3008H23.7177V37.4248H23.2288V37.3008ZM23.9585 37.3008H24.4474V37.4248H23.9585V37.3008ZM24.6883 37.3008H25.1771V37.4248H24.6883V37.3008ZM25.418 37.3008H25.9068V37.4248H25.418V37.3008ZM26.1477 37.3008H26.4541V37.4248H26.1477V37.3008Z" fill="#979797" fill-opacity="0.74"/>
<path fill-rule="evenodd" clip-rule="evenodd" d="M26.4541 34.0929H22.8192V33.9565H26.4541V34.0929Z" fill="#969595" fill-opacity="0.74"/>
<path fill-rule="evenodd" clip-rule="evenodd" d="M26.4541 34.6986H22.8192V34.5622H26.4541V34.6986Z" fill="#969595" fill-opacity="0.74"/>
<path fill-rule="evenodd" clip-rule="evenodd" d="M26.4541 35.3044H22.8192V35.168H26.4541V35.3044Z" fill="#969595" fill-opacity="0.74"/>
<path fill-rule="evenodd" clip-rule="evenodd" d="M26.4541 35.9102H22.8192V35.7738H26.4541V35.9102Z" fill="#969595" fill-opacity="0.74"/>
</g>
<path d="M18.7253 33.3264H21.7544V36.3554H18.7253V33.3264Z" fill="#C4C4C4"/>
<path d="M19.535 34.7137L19.4865 35.4973C19.8824 36.5233 20.9003 36.0467 20.9407 35.4973C20.9882 34.8519 21.0134 34.7083 20.973 34.7137C20.8761 34.8559 19.9632 34.7729 19.535 34.7137Z" fill="#FDF5F5"/>
<path fill-rule="evenodd" clip-rule="evenodd" d="M19.4195 34.5725L19.552 34.5908C19.7633 34.62 20.0941 34.6551 20.3826 34.6653C20.5274 34.6704 20.6572 34.669 20.7545 34.6587C20.8035 34.6534 20.8395 34.6464 20.8632 34.6388C20.8699 34.6366 20.8746 34.6348 20.8776 34.6334L20.9018 34.598L20.9566 34.5907C20.977 34.588 21.0035 34.5891 21.0309 34.6015C21.0584 34.6139 21.077 34.6333 21.0887 34.651C21.1087 34.6814 21.1132 34.7139 21.1149 34.7292C21.1189 34.7644 21.1171 34.8127 21.1136 34.8691C21.11 34.9264 21.1037 35.0047 21.0954 35.1075C21.0869 35.2132 21.0763 35.3449 21.0644 35.5064C21.0391 35.8498 20.7206 36.1423 20.3704 36.2098C20.1893 36.2447 19.9921 36.2221 19.8113 36.1137C19.6309 36.0055 19.4774 35.8181 19.3709 35.5419L19.3611 35.5166L19.4195 34.5725ZM20.8685 34.757C20.8685 34.757 20.8685 34.7571 20.8685 34.7572L20.8685 34.757ZM20.8634 34.8935C20.8598 34.9441 20.8547 35.0066 20.8485 35.0845C20.84 35.189 20.8293 35.3209 20.817 35.4882C20.8019 35.6941 20.5913 35.9146 20.3235 35.9663C20.1955 35.9909 20.0616 35.9746 19.9389 35.901C19.8202 35.8298 19.7022 35.6991 19.612 35.4773L19.6506 34.8536C19.8598 34.879 20.1302 34.9045 20.3739 34.9131C20.5229 34.9184 20.6663 34.9175 20.7808 34.9053C20.8091 34.9022 20.8369 34.8984 20.8634 34.8935Z" fill="black" fill-opacity="0.45"/>
<path d="M21.0942 33.72C21.0166 33.8363 20.876 33.8493 20.456 33.6473C20.0359 33.4453 19.7854 33.6473 19.7854 33.6473C19.7854 33.6473 19.6642 33.6473 19.5592 33.7927C19.4542 33.9381 19.4812 33.897 19.3896 34.0512C19.0729 33.9866 19.1984 34.6975 19.3007 35.0611C19.1521 35.3519 19.368 35.4677 19.4946 35.4892C19.5054 35.2172 19.5269 34.6797 19.5269 34.7056C19.5269 34.7379 20.8195 34.8995 20.9649 34.7218C20.9972 34.7218 20.9891 34.9722 20.9488 35.5296C21.2654 35.4844 21.2665 35.2199 21.2073 35.1014C21.3753 34.3324 21.2234 34.0808 21.1265 34.0512C21.2299 33.9026 21.148 33.7685 21.0942 33.72Z" fill="#6C6C6F"/>
<path fill-rule="evenodd" clip-rule="evenodd" d="M19.7405 33.528C19.7199 33.5318 19.6936 33.5387 19.6639 33.5511C19.6005 33.5777 19.5254 33.628 19.4588 33.7201C19.4052 33.7943 19.3847 33.8219 19.3658 33.8507C19.3531 33.87 19.3412 33.8899 19.3205 33.9248C19.2906 33.9282 19.2612 33.9367 19.2332 33.9513C19.1771 33.9807 19.1403 34.0278 19.1166 34.0758C19.0716 34.167 19.0618 34.2863 19.0641 34.3983C19.0687 34.6107 19.1201 34.8656 19.1692 35.0499C19.1023 35.2076 19.1164 35.3458 19.1955 35.4508C19.2727 35.5532 19.3929 35.5977 19.4739 35.6115L19.613 35.6352L19.6186 35.4942C19.624 35.3582 19.6321 35.1559 19.6388 34.9908C19.6407 34.943 19.6426 34.8984 19.6442 34.8594C19.666 34.8628 19.6895 34.8662 19.7144 34.8696C19.8407 34.8869 20.0098 34.9049 20.1834 34.9162C20.3564 34.9275 20.5377 34.9324 20.6871 34.9225C20.7488 34.9185 20.8081 34.9117 20.8605 34.9009C20.8604 34.9051 20.8603 34.9094 20.8602 34.9138C20.8573 35.0427 20.8454 35.2419 20.8252 35.5207L20.8141 35.6742L20.9664 35.6524C21.1637 35.6242 21.2849 35.5209 21.3352 35.3866C21.374 35.2829 21.3659 35.1732 21.3367 35.0898C21.4148 34.7171 21.4204 34.456 21.3884 34.2773C21.3719 34.1847 21.3445 34.1101 21.3084 34.0532C21.3003 34.0404 21.2914 34.0281 21.2819 34.0165C21.3049 33.947 21.3047 33.8791 21.2898 33.8185C21.2688 33.7327 21.2198 33.6662 21.1772 33.6279L21.0706 33.5319L20.9911 33.6513C20.9811 33.6663 20.9738 33.6713 20.9681 33.6739C20.9618 33.6769 20.9465 33.682 20.9131 33.6794C20.8407 33.6738 20.7186 33.6359 20.5098 33.5356C20.2745 33.4224 20.0785 33.4194 19.9367 33.4505C19.8668 33.4658 19.812 33.489 19.7736 33.5091C19.7608 33.5159 19.7497 33.5223 19.7405 33.528ZM19.6505 34.7149C19.6506 34.7141 19.6506 34.7136 19.6506 34.7135C19.6506 34.7135 19.6506 34.7139 19.6505 34.7149L19.6505 34.7149ZM19.789 33.7713C19.7884 33.7714 19.7875 33.7715 19.7863 33.7717C19.7813 33.7726 19.7719 33.7748 19.7597 33.7799C19.7362 33.7897 19.6983 33.8121 19.6599 33.8653C19.6084 33.9366 19.59 33.9611 19.5731 33.9867C19.5563 34.0124 19.5411 34.0391 19.4963 34.1146L19.4513 34.1904L19.3649 34.1728C19.3556 34.1709 19.3504 34.171 19.3482 34.1713C19.3467 34.1728 19.3433 34.1767 19.339 34.1855C19.3216 34.2208 19.3099 34.2898 19.3121 34.393C19.3156 34.5571 19.3525 34.7598 19.3933 34.9253C19.3957 34.8655 19.3979 34.813 19.3996 34.7736C19.4007 34.7481 19.4016 34.7279 19.4022 34.7148C19.4025 34.7085 19.4028 34.7031 19.403 34.6995L19.4032 34.696L19.4035 34.6932C19.4036 34.6925 19.4038 34.6896 19.4044 34.686L19.4044 34.6859C19.4046 34.6846 19.4054 34.6794 19.4071 34.6729C19.4083 34.6689 19.4122 34.6578 19.4153 34.6508C19.4238 34.6359 19.4705 34.5943 19.5145 34.5814C19.5663 34.5877 19.6234 34.6302 19.6382 34.6509C19.6285 34.6317 19.6162 34.6199 19.6114 34.6156C19.6003 34.6054 19.5901 34.6001 19.587 34.5985C19.5812 34.5956 19.5772 34.5943 19.5772 34.5943C19.5772 34.5943 19.5774 34.5944 19.5779 34.5945C19.5815 34.5956 19.5907 34.598 19.6073 34.6013C19.6393 34.6078 19.6875 34.6156 19.7481 34.6239C19.8687 34.6404 20.0319 34.6578 20.1995 34.6687C20.3679 34.6797 20.537 34.6839 20.6708 34.6751C20.7381 34.6706 20.7921 34.6632 20.8309 34.6533C20.8593 34.646 20.8705 34.6398 20.8728 34.6387L20.9063 34.5978H20.965C21.0127 34.5978 21.0462 34.6226 21.0644 34.6436C21.0805 34.6623 21.0884 34.6817 21.0922 34.6925C21.1001 34.7148 21.1034 34.7388 21.1052 34.7575C21.1091 34.7976 21.1097 34.8525 21.1082 34.9195C21.1078 34.9375 21.1072 34.9566 21.1065 34.977C21.1684 34.6571 21.1672 34.4489 21.1443 34.3209C21.1318 34.2508 21.1135 34.2088 21.0991 34.1862C21.0923 34.1755 21.0872 34.1703 21.0849 34.1682L20.9276 34.1201L21.0248 33.9804C21.0445 33.9521 21.0515 33.9279 21.0522 33.9074C21.003 33.9259 20.9498 33.931 20.8941 33.9267C20.7719 33.9173 20.6136 33.8607 20.4023 33.7591C20.2176 33.6703 20.0782 33.6733 19.9898 33.6927C19.9446 33.7026 19.9106 33.7173 19.8889 33.7287C19.8781 33.7344 19.8704 33.7392 19.866 33.7421C19.8641 33.7434 19.8629 33.7443 19.8623 33.7447L19.8293 33.7713H19.789ZM21.0977 35.1595C21.0947 35.2115 21.0912 35.2683 21.0871 35.3299C21.0944 35.3195 21.0994 35.3091 21.103 35.2995C21.1213 35.2506 21.1132 35.1925 21.0977 35.1595ZM19.6476 34.6765C19.6465 34.6727 19.6449 34.6675 19.6432 34.6624C19.6449 34.6668 19.6464 34.6715 19.6476 34.6765ZM19.651 34.7056L19.651 34.7032L19.651 34.7056ZM19.3792 35.2735C19.3733 35.2545 19.3714 35.2272 19.3826 35.1878C19.3815 35.2166 19.3803 35.2454 19.3792 35.2735ZM19.3491 34.1705C19.3491 34.1705 19.349 34.1706 19.3488 34.1707L19.3491 34.1705ZM19.3475 34.1714C19.347 34.1716 19.3468 34.1716 19.3468 34.1716C19.3467 34.1716 19.347 34.1715 19.3475 34.1714Z" fill="black" fill-opacity="0.45"/>
<path d="M19.4403 35.2242C19.4287 35.1622 19.3617 35.1207 19.3261 35.1727C19.3043 35.2045 19.296 35.2437 19.3031 35.2816C19.3102 35.3195 19.332 35.353 19.3638 35.3748C19.4158 35.4105 19.4633 35.3476 19.4518 35.2856L19.446 35.2549L19.4403 35.2242Z" fill="#4F4E4D"/>
<path d="M21.0235 35.3017C21.0115 35.3636 21.0584 35.4269 21.1107 35.3917C21.1427 35.3702 21.1649 35.3368 21.1722 35.299C21.1796 35.2611 21.1717 35.2219 21.1502 35.1899C21.1149 35.1376 21.0476 35.1786 21.0355 35.2405L21.0295 35.2711L21.0235 35.3017Z" fill="#4F4E4D"/>
<path d="M20.022 35.5619C19.9449 35.5619 19.88 35.6267 19.9095 35.6979C19.9274 35.7411 19.9536 35.7802 19.9866 35.8132C20.0196 35.8463 20.0588 35.8724 20.1019 35.8903C20.145 35.9082 20.1912 35.9174 20.2379 35.9174C20.2846 35.9174 20.3308 35.9082 20.3739 35.8903C20.4171 35.8724 20.4563 35.8463 20.4893 35.8132C20.5223 35.7802 20.5485 35.7411 20.5663 35.6979C20.5958 35.6267 20.5309 35.5619 20.4538 35.5619L20.2379 35.5619H20.022Z" fill="black" fill-opacity="0.65"/>
<path d="M20.0925 35.7363C20.0925 35.7203 20.1055 35.7073 20.1215 35.7073H20.3541C20.3702 35.7073 20.3833 35.7203 20.3833 35.7365C20.3833 35.7467 20.378 35.7562 20.3692 35.7613C20.2724 35.8174 20.2106 35.8197 20.1068 35.7612C20.0979 35.7561 20.0925 35.7466 20.0925 35.7363Z" fill="#FDFDFD"/>
<path d="M19.9309 35.2064C19.9309 35.2421 19.902 35.2711 19.8663 35.2711C19.8306 35.2711 19.8016 35.2421 19.8016 35.2064C19.8016 35.1708 19.8306 35.1418 19.8663 35.1418C19.902 35.1418 19.9309 35.1708 19.9309 35.2064Z" fill="black" fill-opacity="0.65"/>
<path d="M20.6903 35.2064C20.6903 35.2421 20.6614 35.271 20.6257 35.271C20.59 35.271 20.561 35.2421 20.561 35.2064C20.561 35.1707 20.59 35.1418 20.6257 35.1418C20.6614 35.1418 20.6903 35.1707 20.6903 35.2064Z" fill="black" fill-opacity="0.65"/>
<path fill-rule="evenodd" clip-rule="evenodd" d="M20.0709 34.8831C20.0799 34.9337 20.0462 34.982 19.9956 34.991L19.6321 35.0556C19.5815 35.0646 19.5332 35.0309 19.5242 34.9803C19.5153 34.9298 19.549 34.8815 19.5995 34.8725L19.9631 34.8078C20.0136 34.7989 20.0619 34.8326 20.0709 34.8831Z" fill="black" fill-opacity="0.65"/>
<path fill-rule="evenodd" clip-rule="evenodd" d="M20.4244 34.8786C20.4358 34.8285 20.4856 34.7971 20.5357 34.8085L20.8958 34.8902C20.9459 34.9015 20.9773 34.9514 20.9659 35.0014C20.9545 35.0515 20.9047 35.0829 20.8546 35.0716L20.4945 34.9898C20.4445 34.9785 20.4131 34.9287 20.4244 34.8786Z" fill="black" fill-opacity="0.65"/>
<path d="M26.4969 34.8965H29.636C30.3208 34.8965 30.876 34.3413 30.876 33.6565V30.5174C30.876 29.8325 30.3208 29.2774 29.636 29.2774H26.5439C25.8409 29.2774 25.0245 29.8757 25.1995 30.5565C25.2132 30.6098 25.2319 30.6633 25.2568 30.7173C24.9263 31.3017 24.8786 31.62 25.2568 32.1572C24.8827 32.6617 24.8274 32.9628 25.2568 33.5619V33.6565C25.2568 34.3413 25.812 34.8965 26.4969 34.8965Z" fill="white"/>
<path fill-rule="evenodd" clip-rule="evenodd" d="M31 33.6564C31 34.4098 30.3893 35.0204 29.636 35.0204H26.4969C25.7435 35.0204 25.1328 34.4098 25.1328 33.6564V33.6014C24.9284 33.3095 24.8236 33.0656 24.8315 32.82C24.839 32.5904 24.9446 32.382 25.1053 32.1549C24.942 31.9063 24.8607 31.686 24.8671 31.4515C24.8735 31.2147 24.9694 30.9813 25.1189 30.7098C25.1029 30.6689 25.0899 30.628 25.0794 30.5873C24.9761 30.1856 25.1699 29.821 25.4611 29.568C25.7523 29.315 26.1606 29.1533 26.5439 29.1533H29.6359C30.3893 29.1533 31 29.764 31 30.5173V33.6564ZM25.3297 30.8412C25.1894 31.0979 25.1197 31.2848 25.115 31.4583C25.1104 31.6278 25.1678 31.802 25.3221 32.0331H28.5581V32.2811H25.3199C25.1603 32.5039 25.0846 32.6669 25.0794 32.8281C25.0742 32.9895 25.1392 33.1734 25.3212 33.4379H28.2771V33.6859H25.3812C25.3968 34.2886 25.8903 34.7724 26.4969 34.7724H29.636C30.2523 34.7724 30.752 34.2728 30.752 33.6564V30.5173C30.752 29.901 30.2523 29.4013 29.6359 29.4013H26.5439C26.2242 29.4013 25.8728 29.5388 25.6238 29.7552C25.3749 29.9715 25.2479 30.2465 25.3196 30.5256C25.3254 30.548 25.3322 30.5706 25.3401 30.5932H28.2771V30.8412H25.3297Z" fill="black" fill-opacity="0.45"/>
<path d="M11.2126 29.4178H8.07354C7.3887 29.4178 6.83353 29.9729 6.83353 30.6578V33.7969C6.83353 34.4817 7.3887 35.0369 8.07354 35.0369H11.1656C11.8686 35.0369 12.685 34.4386 12.51 33.7578C12.4963 33.7045 12.4776 33.651 12.4527 33.597C12.7832 33.0126 12.8309 32.6942 12.4527 32.1571C12.8268 31.6525 12.8821 31.3514 12.4527 30.7523V30.6578C12.4527 29.9729 11.8975 29.4178 11.2126 29.4178Z" fill="white"/>
<path fill-rule="evenodd" clip-rule="evenodd" d="M6.70953 30.6578C6.70953 29.9045 7.32023 29.2938 8.07355 29.2938H11.2127C11.966 29.2938 12.5767 29.9045 12.5767 30.6578V30.7129C12.7811 31.0047 12.8859 31.2487 12.878 31.4942C12.8705 31.7238 12.7649 31.9322 12.6042 32.1594C12.7675 32.4079 12.8488 32.6282 12.8424 32.8627C12.836 33.0995 12.7401 33.3329 12.5906 33.6044C12.6066 33.6454 12.6196 33.6862 12.6301 33.7269C12.7334 34.1287 12.5396 34.4932 12.2484 34.7463C11.9572 34.9992 11.5489 35.1609 11.1656 35.1609H8.07355C7.32023 35.1609 6.70953 34.5502 6.70953 33.7969V30.6578ZM12.3798 33.473C12.5201 33.2163 12.5898 33.0294 12.5945 32.856C12.5991 32.6865 12.5417 32.5123 12.3874 32.2811H9.15143V32.0331H12.3896C12.5492 31.8103 12.6249 31.6473 12.6301 31.4862C12.6353 31.3247 12.5703 31.1408 12.3883 30.8763H9.43238V30.6283H12.3283C12.3127 30.0256 11.8192 29.5418 11.2127 29.5418H8.07355C7.45719 29.5418 6.95754 30.0415 6.95754 30.6578V33.7969C6.95754 34.4133 7.4572 34.9129 8.07355 34.9129H11.1656C11.4853 34.9129 11.8367 34.7755 12.0857 34.5591C12.3347 34.3428 12.4616 34.0678 12.3899 33.7887C12.3841 33.7662 12.3773 33.7437 12.3694 33.721H9.43238V33.473H12.3798Z" fill="black" fill-opacity="0.45"/>
</g>
<defs>
<filter id="filter0_d" x="13" y="32" width="19.941" height="19.3061" filterUnits="userSpaceOnUse" color-interpolation-filters="sRGB">
<feFlood flood-opacity="0" result="BackgroundImageFix"/>
<feColorMatrix in="SourceAlpha" type="matrix" values="0 0 0 0 0 0 0 0 0 0 0 0 0 0 0 0 0 0 127 0"/>
<feOffset dy="8"/>
<feGaussianBlur stdDeviation="2.5"/>
<feColorMatrix type="matrix" values="0 0 0 0 0.475 0 0 0 0 0.473021 0 0 0 0 0.473021 0 0 0 0.05 0"/>
<feBlend mode="normal" in2="BackgroundImageFix" result="effect1_dropShadow"/>
<feBlend mode="normal" in="SourceGraphic" in2="effect1_dropShadow" result="shape"/>
</filter>
<clipPath id="clip0">
<rect width="40" height="40" fill="white"/>
</clipPath>
</defs>
</svg>
