<svg width="14" height="14" xmlns="http://www.w3.org/2000/svg" xmlns:xlink="http://www.w3.org/1999/xlink"><g transform="translate(-7409 -352)"><path fill="#272727" d="M7409 352h14v14h-14z"/><clipPath id="a" clip-rule="evenodd"><path d="M6288 57h1920v1080H6288V57z" fill="#FFF"/></clipPath><g clip-path="url(#a)"><path d="M6288 57h1920v1080H6288V57z" fill="#FFF"/><use xlink:href="#path0_fill" transform="translate(7396 339)" fill="#fa5c7c"/><use xlink:href="#path1_stroke" transform="rotate(45 3284.897 9135.638)" fill="#FFF"/><use xlink:href="#path1_stroke" transform="rotate(-45 4131.113 -8768.152)" fill="#FFF"/></g></g><defs><path id="path0_fill" d="M0 4a4 4 0 0 1 4-4h32a4 4 0 0 1 4 4v32a4 4 0 0 1-4 4H4a4 4 0 0 1-4-4V4z"/><path id="path1_stroke" d="M-1 0v16.97h2V0h-2z"/></defs></svg>